<?xml version="1.0" standalone="no"?>
 <!DOCTYPE svg PUBLIC "-//W3C//DTD SVG 1.1//EN" 
 "http://www.w3.org/Graphics/SVG/1.1/DTD/svg11.dtd"> 
<svg
  xmlns:svg="http://www.w3.org/2000/svg"
  xmlns="http://www.w3.org/2000/svg"
  xmlns:xlink="http://www.w3.org/1999/xlink"
  version="1.1"
  width="39.9796mm" height="39.9796mm" viewBox="0.0000 0.0000 39.9796 39.9796">
<title>SVG Image created as Graphical Drawings-Warning_System.svg date 2025/02/06 13:37:17 </title>
  <desc>Image generated by Eeschema-SVG </desc>
<g style="fill:#000000; fill-opacity:1.0000;stroke:#000000; stroke-opacity:1.0000;
stroke-linecap:round; stroke-linejoin:round;"
 transform="translate(0 0) scale(1 1)">
</g>
<g style="fill:#FFFFFF; fill-opacity:1.0000; stroke:none;">
<rect x="27.940000" y="13.970000" width="2.540000" height="2.540000" rx="0.000000" />
</g>
<g style="fill:#848484; fill-opacity:0.3500; stroke:none;">
<rect x="5.080000" y="7.620000" width="24.130000" height="26.670000" rx="0.000000" />
<path style="fill:none; 
stroke:#000000; stroke-width:0.3810; stroke-opacity:1; 
stroke-linecap:round; stroke-linejoin:round;fill:none"
d="M 33.0200,7.6200
33.0200,5.0800
" /> 
<path style="fill:none; 
stroke:#000000; stroke-width:0.3810; stroke-opacity:1; 
stroke-linecap:round; stroke-linejoin:round;fill:none"
d="M 31.7500,5.0800
34.2900,5.0800
" /> 
</g>
<g style="fill:none; 
stroke:#000000; stroke-width:0.3175; stroke-opacity:1; 
stroke-linecap:round; stroke-linejoin:round;">
<text x="33.0199" y="4.4450"
textLength="6.9881" font-size="1.6933" lengthAdjust="spacingAndGlyphs"
text-anchor="middle" opacity="0" stroke-opacity="0">0-24V</text>
<g class="stroked-text"><desc>0-24V</desc>
<path d="M30.4194 3.1109
L30.5404 3.1109
" />
<path d="M30.5404 3.1109
L30.6613 3.1714
" />
<path d="M30.6613 3.1714
L30.7218 3.2319
" />
<path d="M30.7218 3.2319
L30.7823 3.3528
" />
<path d="M30.7823 3.3528
L30.8428 3.5947
" />
<path d="M30.8428 3.5947
L30.8428 3.8971
" />
<path d="M30.8428 3.8971
L30.7823 4.1390
" />
<path d="M30.7823 4.1390
L30.7218 4.2600
" />
<path d="M30.7218 4.2600
L30.6613 4.3205
" />
<path d="M30.6613 4.3205
L30.5404 4.3809
" />
<path d="M30.5404 4.3809
L30.4194 4.3809
" />
<path d="M30.4194 4.3809
L30.2985 4.3205
" />
<path d="M30.2985 4.3205
L30.2380 4.2600
" />
<path d="M30.2380 4.2600
L30.1775 4.1390
" />
<path d="M30.1775 4.1390
L30.1171 3.8971
" />
<path d="M30.1171 3.8971
L30.1171 3.5947
" />
<path d="M30.1171 3.5947
L30.1775 3.3528
" />
<path d="M30.1775 3.3528
L30.2380 3.2319
" />
<path d="M30.2380 3.2319
L30.2985 3.1714
" />
<path d="M30.2985 3.1714
L30.4194 3.1109
" />
<path d="M31.3870 3.8971
L32.3547 3.8971
" />
<path d="M32.8990 3.2319
L32.9594 3.1714
" />
<path d="M32.9594 3.1714
L33.0804 3.1109
" />
<path d="M33.0804 3.1109
L33.3828 3.1109
" />
<path d="M33.3828 3.1109
L33.5037 3.1714
" />
<path d="M33.5037 3.1714
L33.5642 3.2319
" />
<path d="M33.5642 3.2319
L33.6247 3.3528
" />
<path d="M33.6247 3.3528
L33.6247 3.4738
" />
<path d="M33.6247 3.4738
L33.5642 3.6552
" />
<path d="M33.5642 3.6552
L32.8385 4.3809
" />
<path d="M32.8385 4.3809
L33.6247 4.3809
" />
<path d="M34.7132 3.5343
L34.7132 4.3809
" />
<path d="M34.4108 3.0505
L34.1085 3.9576
" />
<path d="M34.1085 3.9576
L34.8946 3.9576
" />
<path d="M35.1970 3.1109
L35.6203 4.3809
" />
<path d="M35.6203 4.3809
L36.0437 3.1109
" />
</g><path style="fill:none; 
stroke:#000000; stroke-width:0.3810; stroke-opacity:1; 
stroke-linecap:round; stroke-linejoin:round;fill:none"
d="M 34.6710,12.5730
36.1950,11.0490
35.6870,11.0490
36.1950,11.0490
36.1950,11.5570
" /> 
<path style="fill:none; 
stroke:#000000; stroke-width:0.3810; stroke-opacity:1; 
stroke-linecap:round; stroke-linejoin:round;fill:none"
d="M 34.6710,11.3030
36.1950,9.7790
35.6870,9.7790
" /> 
<path style="fill:none; 
stroke:#000000; stroke-width:0.3810; stroke-opacity:1; 
stroke-linecap:round; stroke-linejoin:round;fill:none"
d="M 36.1950,9.7790
36.1950,10.2870
" /> 
<path style="fill:none; 
stroke:#000000; stroke-width:0.3810; stroke-opacity:1; 
stroke-linecap:round; stroke-linejoin:round;fill:none"
d="M 34.2900,12.7000
31.7500,12.7000
" /> 
<path style="fill:none; 
stroke:#000000; stroke-width:0.3810; stroke-opacity:1; 
stroke-linecap:round; stroke-linejoin:round;fill:none"
d="M 34.2900,10.1600
33.0200,12.7000
31.7500,10.1600
Z" /> 
</g>
<g style="fill:none; 
stroke:#000000; stroke-width:0.3810; stroke-opacity:1; 
stroke-linecap:round; stroke-linejoin:round;">
<path d="M33.0200 12.7000
L33.0200 15.2400
" />
<path d="M33.0200 10.1600
L33.0200 7.6200
" />
<path style="fill:none; 
stroke:#000000; stroke-width:0.3810; stroke-opacity:1; 
stroke-linecap:round; stroke-linejoin:round;fill:none"
d="M 20.3200,26.6700
20.3200,27.9400
21.5900,27.9400
20.3200,29.2100
19.0500,27.9400
20.3200,27.9400
" /> 
</g>
<g style="fill:none; 
stroke:#000000; stroke-width:0.3175; stroke-opacity:1; 
stroke-linecap:round; stroke-linejoin:round;">
<text x="20.3200" y="31.1150"
textLength="4.5691" font-size="1.6933" lengthAdjust="spacingAndGlyphs"
text-anchor="middle" opacity="0" stroke-opacity="0">GND</text>
<g class="stroked-text"><desc>GND</desc>
<path d="M19.3524 29.8414
L19.2314 29.7809
" />
<path d="M19.2314 29.7809
L19.0500 29.7809
" />
<path d="M19.0500 29.7809
L18.8686 29.8414
" />
<path d="M18.8686 29.8414
L18.7476 29.9624
" />
<path d="M18.7476 29.9624
L18.6871 30.0833
" />
<path d="M18.6871 30.0833
L18.6267 30.3252
" />
<path d="M18.6267 30.3252
L18.6267 30.5066
" />
<path d="M18.6267 30.5066
L18.6871 30.7485
" />
<path d="M18.6871 30.7485
L18.7476 30.8695
" />
<path d="M18.7476 30.8695
L18.8686 30.9905
" />
<path d="M18.8686 30.9905
L19.0500 31.0509
" />
<path d="M19.0500 31.0509
L19.1709 31.0509
" />
<path d="M19.1709 31.0509
L19.3524 30.9905
" />
<path d="M19.3524 30.9905
L19.4128 30.9300
" />
<path d="M19.4128 30.9300
L19.4128 30.5066
" />
<path d="M19.4128 30.5066
L19.1709 30.5066
" />
<path d="M19.9571 31.0509
L19.9571 29.7809
" />
<path d="M19.9571 29.7809
L20.6828 31.0509
" />
<path d="M20.6828 31.0509
L20.6828 29.7809
" />
<path d="M21.2876 31.0509
L21.2876 29.7809
" />
<path d="M21.2876 29.7809
L21.5900 29.7809
" />
<path d="M21.5900 29.7809
L21.7714 29.8414
" />
<path d="M21.7714 29.8414
L21.8924 29.9624
" />
<path d="M21.8924 29.9624
L21.9529 30.0833
" />
<path d="M21.9529 30.0833
L22.0133 30.3252
" />
<path d="M22.0133 30.3252
L22.0133 30.5066
" />
<path d="M22.0133 30.5066
L21.9529 30.7485
" />
<path d="M21.9529 30.7485
L21.8924 30.8695
" />
<path d="M21.8924 30.8695
L21.7714 30.9905
" />
<path d="M21.7714 30.9905
L21.5900 31.0509
" />
<path d="M21.5900 31.0509
L21.2876 31.0509
" />
</g><path style="fill:none; 
stroke:#000000; stroke-width:0.2540; stroke-opacity:1; 
stroke-linecap:round; stroke-linejoin:round;fill:none"
d="M 18.0340,18.4150
18.0340,22.2250
" /> 
<path style="fill:none; 
stroke:#000000; stroke-width:0.3810; stroke-opacity:1; 
stroke-linecap:round; stroke-linejoin:round;fill:none"
d="M 18.0340,20.3200
15.2400,20.3200
" /> 
<path style="fill:none; 
stroke:#000000; stroke-width:0.2540; stroke-opacity:1; 
stroke-linecap:round; stroke-linejoin:round;fill:none"
d="M 18.5420,18.0340
18.5420,19.0500
" /> 
<path style="fill:none; 
stroke:#000000; stroke-width:0.2540; stroke-opacity:1; 
stroke-linecap:round; stroke-linejoin:round;fill:none"
d="M 18.5420,19.8120
18.5420,20.8280
" /> 
<path style="fill:none; 
stroke:#000000; stroke-width:0.2540; stroke-opacity:1; 
stroke-linecap:round; stroke-linejoin:round;fill:none"
d="M 18.5420,21.5900
18.5420,22.6060
" /> 
<path style="fill:none; 
stroke:#000000; stroke-width:0.2500; stroke-opacity:1; 
stroke-linecap:round; stroke-linejoin:round;fill:none"
d="M 18.5420,22.0980
21.0820,22.0980
21.0820,18.5420
18.5420,18.5420
" /> 
<path style="fill:#000000; fill-opacity:1.0000; 
stroke:#000000; stroke-width:0.3810; stroke-opacity:1; 
stroke-linecap:round; stroke-linejoin:round;fill-rule:evenodd;"
d="M 18.7960,20.3200
19.8120,19.9390
19.8120,20.7010
Z" /> 
</g>
<g style="fill:none; 
stroke:#000000; stroke-width:0.2540; stroke-opacity:1; 
stroke-linecap:round; stroke-linejoin:round;">
<circle cx="19.4310" cy="20.3200" r="2.7940" /> 
<path style="fill:none; 
stroke:#000000; stroke-width:0.3810; stroke-opacity:1; 
stroke-linecap:round; stroke-linejoin:round;fill:none"
d="M 20.3200,17.7800
20.3200,18.5420
" /> 
</g>
<g style="fill:#000000; fill-opacity:1.0000; 
stroke:#000000; stroke-width:0.3810; stroke-opacity:1; 
stroke-linecap:round; stroke-linejoin:round;">
<circle cx="20.3200" cy="18.5420" r="0.2540" /> 
<circle cx="20.3200" cy="22.0980" r="0.2540" /> 
<path style="fill:none; 
stroke:#000000; stroke-width:0.3810; stroke-opacity:1; 
stroke-linecap:round; stroke-linejoin:round;fill:none"
d="M 20.3200,22.8600
20.3200,20.3200
18.5420,20.3200
" /> 
<path style="fill:none; 
stroke:#000000; stroke-width:0.3810; stroke-opacity:1; 
stroke-linecap:round; stroke-linejoin:round;fill:none"
d="M 20.3200,24.1300
20.3200,22.8600
" /> 
<path style="fill:none; 
stroke:#000000; stroke-width:0.2500; stroke-opacity:1; 
stroke-linecap:round; stroke-linejoin:round;fill:none"
d="M 20.3200,24.1300
15.2400,24.1300
15.2400,20.3200
" /> 
<path style="fill:none; 
stroke:#000000; stroke-width:0.1524; stroke-opacity:1; 
stroke-linecap:round; stroke-linejoin:round;fill:none"
d="M 20.5740,19.8120
21.5900,19.8120
" /> 
<path style="fill:none; 
stroke:#000000; stroke-width:0.1524; stroke-opacity:1; 
stroke-linecap:round; stroke-linejoin:round;fill:none"
d="M 16.0020,24.6380
16.1290,24.5110
16.1290,23.7490
16.2560,23.6220
" /> 
<path style="fill:#000000; fill-opacity:1.0000; 
stroke:#000000; stroke-width:0.2000; stroke-opacity:1; 
stroke-linecap:round; stroke-linejoin:round;fill-rule:evenodd;"
d="M 16.1290,24.1300
16.7640,24.5110
16.7640,23.7490
Z" /> 
<path style="fill:#000000; fill-opacity:1.0000; 
stroke:#000000; stroke-width:0.2000; stroke-opacity:1; 
stroke-linecap:round; stroke-linejoin:round;fill-rule:evenodd;"
d="M 18.1610,24.1300
17.5260,23.7490
17.5260,24.5110
Z" /> 
<path style="fill:none; 
stroke:#000000; stroke-width:0.1524; stroke-opacity:1; 
stroke-linecap:round; stroke-linejoin:round;fill:none"
d="M 18.2880,23.6220
18.1610,23.7490
18.1610,24.5110
18.0340,24.6380
" /> 
<path style="fill:#000000; fill-opacity:1.0000; 
stroke:#000000; stroke-width:0.2000; stroke-opacity:1; 
stroke-linecap:round; stroke-linejoin:round;fill-rule:evenodd;"
d="M 21.0820,19.9390
20.7010,20.5740
21.4630,20.5740
Z" /> 
</g>
<g style="fill:none; 
stroke:#000000; stroke-width:0.3810; stroke-opacity:1; 
stroke-linecap:round; stroke-linejoin:round;">
<path d="M15.2400 20.3200
L12.7000 20.3200
" />
<path d="M20.3200 17.7800
L20.3200 15.2400
" />
<path d="M20.3200 24.1300
L20.3200 26.6700
" />
<path d="M30.4800 15.2400
L31.7500 15.2400
" />
<path d="M31.7500 15.2400
L33.0200 15.2400
" />
<path d="M20.3200 15.2400
L27.9400 15.2400
" />
</g>
<g style="fill:none; 
stroke:#000000; stroke-width:0.3175; stroke-opacity:1; 
stroke-linecap:round; stroke-linejoin:round;">
<text x="23.1140" y="14.6090"
textLength="6.8672" font-size="1.6933" lengthAdjust="spacingAndGlyphs"
text-anchor="middle" opacity="0" stroke-opacity="0">WARNx</text>
<g class="stroked-text"><desc>WARNx</desc>
<path d="M20.2111 13.2749
L20.5135 14.5449
" />
<path d="M20.5135 14.5449
L20.7554 13.6378
" />
<path d="M20.7554 13.6378
L20.9973 14.5449
" />
<path d="M20.9973 14.5449
L21.2997 13.2749
" />
<path d="M21.7230 14.1821
L22.3277 14.1821
" />
<path d="M21.6020 14.5449
L22.0253 13.2749
" />
<path d="M22.0253 13.2749
L22.4487 14.5449
" />
<path d="M23.5977 14.5449
L23.1744 13.9402
" />
<path d="M22.8720 14.5449
L22.8720 13.2749
" />
<path d="M22.8720 13.2749
L23.3558 13.2749
" />
<path d="M23.3558 13.2749
L23.4768 13.3354
" />
<path d="M23.4768 13.3354
L23.5373 13.3959
" />
<path d="M23.5373 13.3959
L23.5977 13.5168
" />
<path d="M23.5977 13.5168
L23.5977 13.6983
" />
<path d="M23.5977 13.6983
L23.5373 13.8192
" />
<path d="M23.5373 13.8192
L23.4768 13.8797
" />
<path d="M23.4768 13.8797
L23.3558 13.9402
" />
<path d="M23.3558 13.9402
L22.8720 13.9402
" />
<path d="M24.1420 14.5449
L24.1420 13.2749
" />
<path d="M24.1420 13.2749
L24.8677 14.5449
" />
<path d="M24.8677 14.5449
L24.8677 13.2749
" />
<path d="M25.3516 14.5449
L26.0168 13.6983
" />
<path d="M25.3516 13.6983
L26.0168 14.5449
" />
</g></g>
<g style="fill:none; 
stroke:#000000; stroke-width:0.3175; stroke-opacity:1; 
stroke-linecap:round; stroke-linejoin:round;">
<text x="5.8420" y="31.3667"
textLength="8.5603" font-size="1.6933" lengthAdjust="spacingAndGlyphs"
text-anchor="start" opacity="0" stroke-opacity="0">Onboard</text>
<g class="stroked-text"><desc>Onboard</desc>
<path d="M6.5950 30.0326
L6.8369 30.0326
" />
<path d="M6.8369 30.0326
L6.9579 30.0931
" />
<path d="M6.9579 30.0931
L7.0788 30.2141
" />
<path d="M7.0788 30.2141
L7.1393 30.4560
" />
<path d="M7.1393 30.4560
L7.1393 30.8793
" />
<path d="M7.1393 30.8793
L7.0788 31.1212
" />
<path d="M7.0788 31.1212
L6.9579 31.2422
" />
<path d="M6.9579 31.2422
L6.8369 31.3026
" />
<path d="M6.8369 31.3026
L6.5950 31.3026
" />
<path d="M6.5950 31.3026
L6.4741 31.2422
" />
<path d="M6.4741 31.2422
L6.3531 31.1212
" />
<path d="M6.3531 31.1212
L6.2927 30.8793
" />
<path d="M6.2927 30.8793
L6.2927 30.4560
" />
<path d="M6.2927 30.4560
L6.3531 30.2141
" />
<path d="M6.3531 30.2141
L6.4741 30.0931
" />
<path d="M6.4741 30.0931
L6.5950 30.0326
" />
<path d="M7.6836 30.4560
L7.6836 31.3026
" />
<path d="M7.6836 30.5769
L7.7441 30.5164
" />
<path d="M7.7441 30.5164
L7.8651 30.4560
" />
<path d="M7.8651 30.4560
L8.0465 30.4560
" />
<path d="M8.0465 30.4560
L8.1674 30.5164
" />
<path d="M8.1674 30.5164
L8.2279 30.6374
" />
<path d="M8.2279 30.6374
L8.2279 31.3026
" />
<path d="M8.8326 31.3026
L8.8326 30.0326
" />
<path d="M8.8326 30.5164
L8.9536 30.4560
" />
<path d="M8.9536 30.4560
L9.1955 30.4560
" />
<path d="M9.1955 30.4560
L9.3164 30.5164
" />
<path d="M9.3164 30.5164
L9.3769 30.5769
" />
<path d="M9.3769 30.5769
L9.4374 30.6979
" />
<path d="M9.4374 30.6979
L9.4374 31.0607
" />
<path d="M9.4374 31.0607
L9.3769 31.1817
" />
<path d="M9.3769 31.1817
L9.3164 31.2422
" />
<path d="M9.3164 31.2422
L9.1955 31.3026
" />
<path d="M9.1955 31.3026
L8.9536 31.3026
" />
<path d="M8.9536 31.3026
L8.8326 31.2422
" />
<path d="M10.1631 31.3026
L10.0421 31.2422
" />
<path d="M10.0421 31.2422
L9.9816 31.1817
" />
<path d="M9.9816 31.1817
L9.9212 31.0607
" />
<path d="M9.9212 31.0607
L9.9212 30.6979
" />
<path d="M9.9212 30.6979
L9.9816 30.5769
" />
<path d="M9.9816 30.5769
L10.0421 30.5164
" />
<path d="M10.0421 30.5164
L10.1631 30.4560
" />
<path d="M10.1631 30.4560
L10.3445 30.4560
" />
<path d="M10.3445 30.4560
L10.4654 30.5164
" />
<path d="M10.4654 30.5164
L10.5259 30.5769
" />
<path d="M10.5259 30.5769
L10.5864 30.6979
" />
<path d="M10.5864 30.6979
L10.5864 31.0607
" />
<path d="M10.5864 31.0607
L10.5259 31.1817
" />
<path d="M10.5259 31.1817
L10.4654 31.2422
" />
<path d="M10.4654 31.2422
L10.3445 31.3026
" />
<path d="M10.3445 31.3026
L10.1631 31.3026
" />
<path d="M11.6749 31.3026
L11.6749 30.6374
" />
<path d="M11.6749 30.6374
L11.6144 30.5164
" />
<path d="M11.6144 30.5164
L11.4935 30.4560
" />
<path d="M11.4935 30.4560
L11.2516 30.4560
" />
<path d="M11.2516 30.4560
L11.1306 30.5164
" />
<path d="M11.6749 31.2422
L11.5540 31.3026
" />
<path d="M11.5540 31.3026
L11.2516 31.3026
" />
<path d="M11.2516 31.3026
L11.1306 31.2422
" />
<path d="M11.1306 31.2422
L11.0702 31.1212
" />
<path d="M11.0702 31.1212
L11.0702 31.0002
" />
<path d="M11.0702 31.0002
L11.1306 30.8793
" />
<path d="M11.1306 30.8793
L11.2516 30.8188
" />
<path d="M11.2516 30.8188
L11.5540 30.8188
" />
<path d="M11.5540 30.8188
L11.6749 30.7583
" />
<path d="M12.2796 31.3026
L12.2796 30.4560
" />
<path d="M12.2796 30.6979
L12.3401 30.5769
" />
<path d="M12.3401 30.5769
L12.4006 30.5164
" />
<path d="M12.4006 30.5164
L12.5215 30.4560
" />
<path d="M12.5215 30.4560
L12.6425 30.4560
" />
<path d="M13.6101 31.3026
L13.6101 30.0326
" />
<path d="M13.6101 31.2422
L13.4892 31.3026
" />
<path d="M13.4892 31.3026
L13.2473 31.3026
" />
<path d="M13.2473 31.3026
L13.1263 31.2422
" />
<path d="M13.1263 31.2422
L13.0658 31.1817
" />
<path d="M13.0658 31.1817
L13.0054 31.0607
" />
<path d="M13.0054 31.0607
L13.0054 30.6979
" />
<path d="M13.0054 30.6979
L13.0658 30.5769
" />
<path d="M13.0658 30.5769
L13.1263 30.5164
" />
<path d="M13.1263 30.5164
L13.2473 30.4560
" />
<path d="M13.2473 30.4560
L13.4892 30.4560
" />
<path d="M13.4892 30.4560
L13.6101 30.5164
" />
</g><text x="5.8420" y="33.4113"
textLength="12.6727" font-size="1.6933" lengthAdjust="spacingAndGlyphs"
text-anchor="start" opacity="0" stroke-opacity="0">AutomatePro</text>
<g class="stroked-text"><desc>AutomatePro</desc>
<path d="M6.2927 32.9844
L6.8974 32.9844
" />
<path d="M6.1717 33.3472
L6.5950 32.0772
" />
<path d="M6.5950 32.0772
L7.0184 33.3472
" />
<path d="M7.9860 32.5006
L7.9860 33.3472
" />
<path d="M7.4417 32.5006
L7.4417 33.1658
" />
<path d="M7.4417 33.1658
L7.5022 33.2868
" />
<path d="M7.5022 33.2868
L7.6232 33.3472
" />
<path d="M7.6232 33.3472
L7.8046 33.3472
" />
<path d="M7.8046 33.3472
L7.9255 33.2868
" />
<path d="M7.9255 33.2868
L7.9860 33.2263
" />
<path d="M8.4093 32.5006
L8.8931 32.5006
" />
<path d="M8.5907 32.0772
L8.5907 33.1658
" />
<path d="M8.5907 33.1658
L8.6512 33.2868
" />
<path d="M8.6512 33.2868
L8.7722 33.3472
" />
<path d="M8.7722 33.3472
L8.8931 33.3472
" />
<path d="M9.4979 33.3472
L9.3769 33.2868
" />
<path d="M9.3769 33.2868
L9.3164 33.2263
" />
<path d="M9.3164 33.2263
L9.2560 33.1053
" />
<path d="M9.2560 33.1053
L9.2560 32.7425
" />
<path d="M9.2560 32.7425
L9.3164 32.6215
" />
<path d="M9.3164 32.6215
L9.3769 32.5610
" />
<path d="M9.3769 32.5610
L9.4979 32.5006
" />
<path d="M9.4979 32.5006
L9.6793 32.5006
" />
<path d="M9.6793 32.5006
L9.8002 32.5610
" />
<path d="M9.8002 32.5610
L9.8607 32.6215
" />
<path d="M9.8607 32.6215
L9.9212 32.7425
" />
<path d="M9.9212 32.7425
L9.9212 33.1053
" />
<path d="M9.9212 33.1053
L9.8607 33.2263
" />
<path d="M9.8607 33.2263
L9.8002 33.2868
" />
<path d="M9.8002 33.2868
L9.6793 33.3472
" />
<path d="M9.6793 33.3472
L9.4979 33.3472
" />
<path d="M10.4654 33.3472
L10.4654 32.5006
" />
<path d="M10.4654 32.6215
L10.5259 32.5610
" />
<path d="M10.5259 32.5610
L10.6469 32.5006
" />
<path d="M10.6469 32.5006
L10.8283 32.5006
" />
<path d="M10.8283 32.5006
L10.9492 32.5610
" />
<path d="M10.9492 32.5610
L11.0097 32.6820
" />
<path d="M11.0097 32.6820
L11.0097 33.3472
" />
<path d="M11.0097 32.6820
L11.0702 32.5610
" />
<path d="M11.0702 32.5610
L11.1911 32.5006
" />
<path d="M11.1911 32.5006
L11.3726 32.5006
" />
<path d="M11.3726 32.5006
L11.4935 32.5610
" />
<path d="M11.4935 32.5610
L11.5540 32.6820
" />
<path d="M11.5540 32.6820
L11.5540 33.3472
" />
<path d="M12.7030 33.3472
L12.7030 32.6820
" />
<path d="M12.7030 32.6820
L12.6425 32.5610
" />
<path d="M12.6425 32.5610
L12.5216 32.5006
" />
<path d="M12.5216 32.5006
L12.2797 32.5006
" />
<path d="M12.2797 32.5006
L12.1587 32.5610
" />
<path d="M12.7030 33.2868
L12.5821 33.3472
" />
<path d="M12.5821 33.3472
L12.2797 33.3472
" />
<path d="M12.2797 33.3472
L12.1587 33.2868
" />
<path d="M12.1587 33.2868
L12.0983 33.1658
" />
<path d="M12.0983 33.1658
L12.0983 33.0448
" />
<path d="M12.0983 33.0448
L12.1587 32.9239
" />
<path d="M12.1587 32.9239
L12.2797 32.8634
" />
<path d="M12.2797 32.8634
L12.5821 32.8634
" />
<path d="M12.5821 32.8634
L12.7030 32.8029
" />
<path d="M13.1263 32.5006
L13.6101 32.5006
" />
<path d="M13.3077 32.0772
L13.3077 33.1658
" />
<path d="M13.3077 33.1658
L13.3682 33.2868
" />
<path d="M13.3682 33.2868
L13.4892 33.3472
" />
<path d="M13.4892 33.3472
L13.6101 33.3472
" />
<path d="M14.5172 33.2868
L14.3963 33.3472
" />
<path d="M14.3963 33.3472
L14.1544 33.3472
" />
<path d="M14.1544 33.3472
L14.0334 33.2868
" />
<path d="M14.0334 33.2868
L13.9730 33.1658
" />
<path d="M13.9730 33.1658
L13.9730 32.6820
" />
<path d="M13.9730 32.6820
L14.0334 32.5610
" />
<path d="M14.0334 32.5610
L14.1544 32.5006
" />
<path d="M14.1544 32.5006
L14.3963 32.5006
" />
<path d="M14.3963 32.5006
L14.5172 32.5610
" />
<path d="M14.5172 32.5610
L14.5777 32.6820
" />
<path d="M14.5777 32.6820
L14.5777 32.8029
" />
<path d="M14.5777 32.8029
L13.9730 32.9239
" />
<path d="M15.1220 33.3472
L15.1220 32.0772
" />
<path d="M15.1220 32.0772
L15.6058 32.0772
" />
<path d="M15.6058 32.0772
L15.7268 32.1377
" />
<path d="M15.7268 32.1377
L15.7873 32.1982
" />
<path d="M15.7873 32.1982
L15.8477 32.3191
" />
<path d="M15.8477 32.3191
L15.8477 32.5006
" />
<path d="M15.8477 32.5006
L15.7873 32.6215
" />
<path d="M15.7873 32.6215
L15.7268 32.6820
" />
<path d="M15.7268 32.6820
L15.6058 32.7425
" />
<path d="M15.6058 32.7425
L15.1220 32.7425
" />
<path d="M16.3920 33.3472
L16.3920 32.5006
" />
<path d="M16.3920 32.7425
L16.4525 32.6215
" />
<path d="M16.4525 32.6215
L16.5130 32.5610
" />
<path d="M16.5130 32.5610
L16.6339 32.5006
" />
<path d="M16.6339 32.5006
L16.7549 32.5006
" />
<path d="M17.3597 33.3472
L17.2387 33.2868
" />
<path d="M17.2387 33.2868
L17.1782 33.2263
" />
<path d="M17.1782 33.2263
L17.1178 33.1053
" />
<path d="M17.1178 33.1053
L17.1178 32.7425
" />
<path d="M17.1178 32.7425
L17.1782 32.6215
" />
<path d="M17.1782 32.6215
L17.2387 32.5610
" />
<path d="M17.2387 32.5610
L17.3597 32.5006
" />
<path d="M17.3597 32.5006
L17.5411 32.5006
" />
<path d="M17.5411 32.5006
L17.6620 32.5610
" />
<path d="M17.6620 32.5610
L17.7225 32.6215
" />
<path d="M17.7225 32.6215
L17.7830 32.7425
" />
<path d="M17.7830 32.7425
L17.7830 33.1053
" />
<path d="M17.7830 33.1053
L17.7225 33.2263
" />
<path d="M17.7225 33.2263
L17.6620 33.2868
" />
<path d="M17.6620 33.2868
L17.5411 33.3472
" />
<path d="M17.5411 33.3472
L17.3597 33.3472
" />
</g></g>
<g style="fill:none; 
stroke:#000000; stroke-width:0.3810; stroke-opacity:1; 
stroke-linecap:round; stroke-linejoin:round;">
<rect x="27.940000" y="13.970000" width="2.540000" height="2.540000" rx="0.000000" />
</g>
<g style="fill:none; 
stroke:#FFFFFF; stroke-width:0.3810; stroke-opacity:1; 
stroke-linecap:round; stroke-linejoin:round;">
<rect x="5.080000" y="7.620000" width="24.130000" height="26.670000" rx="0.000000" />
</g>
<g style="fill:none; 
stroke:#000000; stroke-width:0.3175; stroke-opacity:1; 
stroke-linecap:round; stroke-linejoin:round;">
<text x="33.0199" y="4.4450"
textLength="6.9881" font-size="1.6933" lengthAdjust="spacingAndGlyphs"
text-anchor="middle" opacity="0" stroke-opacity="0">0-24V</text>
<g class="stroked-text"><desc>0-24V</desc>
<path d="M30.4194 3.1109
L30.5404 3.1109
" />
<path d="M30.5404 3.1109
L30.6613 3.1714
" />
<path d="M30.6613 3.1714
L30.7218 3.2319
" />
<path d="M30.7218 3.2319
L30.7823 3.3528
" />
<path d="M30.7823 3.3528
L30.8428 3.5947
" />
<path d="M30.8428 3.5947
L30.8428 3.8971
" />
<path d="M30.8428 3.8971
L30.7823 4.1390
" />
<path d="M30.7823 4.1390
L30.7218 4.2600
" />
<path d="M30.7218 4.2600
L30.6613 4.3205
" />
<path d="M30.6613 4.3205
L30.5404 4.3809
" />
<path d="M30.5404 4.3809
L30.4194 4.3809
" />
<path d="M30.4194 4.3809
L30.2985 4.3205
" />
<path d="M30.2985 4.3205
L30.2380 4.2600
" />
<path d="M30.2380 4.2600
L30.1775 4.1390
" />
<path d="M30.1775 4.1390
L30.1171 3.8971
" />
<path d="M30.1171 3.8971
L30.1171 3.5947
" />
<path d="M30.1171 3.5947
L30.1775 3.3528
" />
<path d="M30.1775 3.3528
L30.2380 3.2319
" />
<path d="M30.2380 3.2319
L30.2985 3.1714
" />
<path d="M30.2985 3.1714
L30.4194 3.1109
" />
<path d="M31.3870 3.8971
L32.3547 3.8971
" />
<path d="M32.8990 3.2319
L32.9594 3.1714
" />
<path d="M32.9594 3.1714
L33.0804 3.1109
" />
<path d="M33.0804 3.1109
L33.3828 3.1109
" />
<path d="M33.3828 3.1109
L33.5037 3.1714
" />
<path d="M33.5037 3.1714
L33.5642 3.2319
" />
<path d="M33.5642 3.2319
L33.6247 3.3528
" />
<path d="M33.6247 3.3528
L33.6247 3.4738
" />
<path d="M33.6247 3.4738
L33.5642 3.6552
" />
<path d="M33.5642 3.6552
L32.8385 4.3809
" />
<path d="M32.8385 4.3809
L33.6247 4.3809
" />
<path d="M34.7132 3.5343
L34.7132 4.3809
" />
<path d="M34.4108 3.0505
L34.1085 3.9576
" />
<path d="M34.1085 3.9576
L34.8946 3.9576
" />
<path d="M35.1970 3.1109
L35.6203 4.3809
" />
<path d="M35.6203 4.3809
L36.0437 3.1109
" />
</g></g>
<g style="fill:none; 
stroke:#000000; stroke-width:0.3810; stroke-opacity:1; 
stroke-linecap:round; stroke-linejoin:round;">
<path d="M33.0200 12.7000
L33.0200 15.2400
" />
<path d="M33.0200 10.1600
L33.0200 7.6200
" />
</g>
<g style="fill:none; 
stroke:#000000; stroke-width:0.3175; stroke-opacity:1; 
stroke-linecap:round; stroke-linejoin:round;">
<text x="20.3200" y="31.1150"
textLength="4.5691" font-size="1.6933" lengthAdjust="spacingAndGlyphs"
text-anchor="middle" opacity="0" stroke-opacity="0">GND</text>
<g class="stroked-text"><desc>GND</desc>
<path d="M19.3524 29.8414
L19.2314 29.7809
" />
<path d="M19.2314 29.7809
L19.0500 29.7809
" />
<path d="M19.0500 29.7809
L18.8686 29.8414
" />
<path d="M18.8686 29.8414
L18.7476 29.9624
" />
<path d="M18.7476 29.9624
L18.6871 30.0833
" />
<path d="M18.6871 30.0833
L18.6267 30.3252
" />
<path d="M18.6267 30.3252
L18.6267 30.5066
" />
<path d="M18.6267 30.5066
L18.6871 30.7485
" />
<path d="M18.6871 30.7485
L18.7476 30.8695
" />
<path d="M18.7476 30.8695
L18.8686 30.9905
" />
<path d="M18.8686 30.9905
L19.0500 31.0509
" />
<path d="M19.0500 31.0509
L19.1709 31.0509
" />
<path d="M19.1709 31.0509
L19.3524 30.9905
" />
<path d="M19.3524 30.9905
L19.4128 30.9300
" />
<path d="M19.4128 30.9300
L19.4128 30.5066
" />
<path d="M19.4128 30.5066
L19.1709 30.5066
" />
<path d="M19.9571 31.0509
L19.9571 29.7809
" />
<path d="M19.9571 29.7809
L20.6828 31.0509
" />
<path d="M20.6828 31.0509
L20.6828 29.7809
" />
<path d="M21.2876 31.0509
L21.2876 29.7809
" />
<path d="M21.2876 29.7809
L21.5900 29.7809
" />
<path d="M21.5900 29.7809
L21.7714 29.8414
" />
<path d="M21.7714 29.8414
L21.8924 29.9624
" />
<path d="M21.8924 29.9624
L21.9529 30.0833
" />
<path d="M21.9529 30.0833
L22.0133 30.3252
" />
<path d="M22.0133 30.3252
L22.0133 30.5066
" />
<path d="M22.0133 30.5066
L21.9529 30.7485
" />
<path d="M21.9529 30.7485
L21.8924 30.8695
" />
<path d="M21.8924 30.8695
L21.7714 30.9905
" />
<path d="M21.7714 30.9905
L21.5900 31.0509
" />
<path d="M21.5900 31.0509
L21.2876 31.0509
" />
</g></g>
<g style="fill:none; 
stroke:#000000; stroke-width:0.3810; stroke-opacity:1; 
stroke-linecap:round; stroke-linejoin:round;">
<path d="M15.2400 20.3200
L12.7000 20.3200
" />
<path d="M20.3200 17.7800
L20.3200 15.2400
" />
<path d="M20.3200 24.1300
L20.3200 26.6700
" />
</g> 
</svg>
