<?xml version="1.0" standalone="no"?>
 <!DOCTYPE svg PUBLIC "-//W3C//DTD SVG 1.1//EN" 
 "http://www.w3.org/Graphics/SVG/1.1/DTD/svg11.dtd"> 
<svg
  xmlns:svg="http://www.w3.org/2000/svg"
  xmlns="http://www.w3.org/2000/svg"
  xmlns:xlink="http://www.w3.org/1999/xlink"
  version="1.1"
  width="39.9796mm" height="29.9974mm" viewBox="0.0000 0.0000 39.9796 29.9974">
<title>SVG Image created as Graphical Drawings-DIN_x.svg date 2025/02/06 13:37:17 </title>
  <desc>Image generated by Eeschema-SVG </desc>
<g style="fill:#000000; fill-opacity:1.0000;stroke:#000000; stroke-opacity:1.0000;
stroke-linecap:round; stroke-linejoin:round;"
 transform="translate(0 0) scale(1 1)">
</g>
<g style="fill:#848484; fill-opacity:0.3500; stroke:none;">
<rect x="1.270000" y="1.270000" width="31.750000" height="26.670000" rx="0.000000" />
</g>
<g style="fill:#FFFFFF; fill-opacity:1.0000; stroke:none;">
<rect x="31.750000" y="8.890000" width="2.540000" height="2.540000" rx="0.000000" />
<path style="fill:none; 
stroke:#000000; stroke-width:0.3810; stroke-opacity:1; 
stroke-linecap:round; stroke-linejoin:round;fill:none"
d="M 19.0500,19.0500
19.0500,20.3200
20.3200,20.3200
19.0500,21.5900
17.7800,20.3200
19.0500,20.3200
" /> 
</g>
<g style="fill:none; 
stroke:#000000; stroke-width:0.3175; stroke-opacity:1; 
stroke-linecap:round; stroke-linejoin:round;">
<text x="19.0500" y="23.4950"
textLength="4.5691" font-size="1.6933" lengthAdjust="spacingAndGlyphs"
text-anchor="middle" opacity="0" stroke-opacity="0">GND</text>
<g class="stroked-text"><desc>GND</desc>
<path d="M18.0824 22.2214
L17.9614 22.1609
" />
<path d="M17.9614 22.1609
L17.7800 22.1609
" />
<path d="M17.7800 22.1609
L17.5986 22.2214
" />
<path d="M17.5986 22.2214
L17.4776 22.3424
" />
<path d="M17.4776 22.3424
L17.4171 22.4633
" />
<path d="M17.4171 22.4633
L17.3567 22.7052
" />
<path d="M17.3567 22.7052
L17.3567 22.8866
" />
<path d="M17.3567 22.8866
L17.4171 23.1285
" />
<path d="M17.4171 23.1285
L17.4776 23.2495
" />
<path d="M17.4776 23.2495
L17.5986 23.3705
" />
<path d="M17.5986 23.3705
L17.7800 23.4309
" />
<path d="M17.7800 23.4309
L17.9009 23.4309
" />
<path d="M17.9009 23.4309
L18.0824 23.3705
" />
<path d="M18.0824 23.3705
L18.1428 23.3100
" />
<path d="M18.1428 23.3100
L18.1428 22.8866
" />
<path d="M18.1428 22.8866
L17.9009 22.8866
" />
<path d="M18.6871 23.4309
L18.6871 22.1609
" />
<path d="M18.6871 22.1609
L19.4128 23.4309
" />
<path d="M19.4128 23.4309
L19.4128 22.1609
" />
<path d="M20.0176 23.4309
L20.0176 22.1609
" />
<path d="M20.0176 22.1609
L20.3200 22.1609
" />
<path d="M20.3200 22.1609
L20.5014 22.2214
" />
<path d="M20.5014 22.2214
L20.6224 22.3424
" />
<path d="M20.6224 22.3424
L20.6829 22.4633
" />
<path d="M20.6829 22.4633
L20.7433 22.7052
" />
<path d="M20.7433 22.7052
L20.7433 22.8866
" />
<path d="M20.7433 22.8866
L20.6829 23.1285
" />
<path d="M20.6829 23.1285
L20.6224 23.2495
" />
<path d="M20.6224 23.2495
L20.5014 23.3705
" />
<path d="M20.5014 23.3705
L20.3200 23.4309
" />
<path d="M20.3200 23.4309
L20.0176 23.4309
" />
</g></g>
<g style="fill:#C0C0C0; fill-opacity:1.0000; stroke:none;">
<rect x="6.350000" y="8.890000" width="10.160000" height="7.620000" rx="0.000000" />
</g>
<g style="fill:none; 
stroke:#000000; stroke-width:0.2540; stroke-opacity:1; 
stroke-linecap:round; stroke-linejoin:round;">
<rect x="6.350000" y="8.890000" width="10.160000" height="7.620000" rx="0.000000" />
<path style="fill:none; 
stroke:#000000; stroke-width:0.3810; stroke-opacity:1; 
stroke-linecap:round; stroke-linejoin:round;fill:none"
d="M 16.5100,10.1600
13.9700,10.1600
13.9700,13.4620
" /> 
<path style="fill:none; 
stroke:#000000; stroke-width:0.2540; stroke-opacity:1; 
stroke-linecap:round; stroke-linejoin:round;fill:none"
d="M 14.6050,13.3350
13.3350,13.3350
" /> 
<path style="fill:none; 
stroke:#000000; stroke-width:0.3810; stroke-opacity:1; 
stroke-linecap:round; stroke-linejoin:round;fill:none"
d="M 13.9700,13.3350
13.9700,15.2400
16.5100,15.2400
" /> 
<path style="fill:none; 
stroke:#000000; stroke-width:0.2540; stroke-opacity:1; 
stroke-linecap:round; stroke-linejoin:round;fill:none"
d="M 13.9700,13.3350
14.6050,12.0650
13.3350,12.0650
Z" /> 
<path style="fill:none; 
stroke:#000000; stroke-width:0.3810; stroke-opacity:1; 
stroke-linecap:round; stroke-linejoin:round;fill:none"
d="M 11.9380,12.1920
10.6680,12.1920
11.0490,12.3190
11.0490,12.0650
10.6680,12.1920
" /> 
<path style="fill:none; 
stroke:#000000; stroke-width:0.3810; stroke-opacity:1; 
stroke-linecap:round; stroke-linejoin:round;fill:none"
d="M 11.9380,13.2080
10.6680,13.2080
11.0490,13.3350
11.0490,13.0810
10.6680,13.2080
" /> 
<path style="fill:none; 
stroke:#000000; stroke-width:0.5080; stroke-opacity:1; 
stroke-linecap:round; stroke-linejoin:round;fill:none"
d="M 8.8900,10.7950
8.8900,14.6050
8.8900,14.6050
" /> 
<path style="fill:none; 
stroke:#000000; stroke-width:0.3810; stroke-opacity:1; 
stroke-linecap:round; stroke-linejoin:round;fill:none"
d="M 8.8900,12.0650
6.9850,10.1600
" /> 
<path style="fill:#000000; fill-opacity:1.0000; 
stroke:#000000; stroke-width:0.3810; stroke-opacity:1; 
stroke-linecap:round; stroke-linejoin:round;fill-rule:evenodd;"
d="M 8.3820,14.3510
7.8740,13.8430
7.3660,14.8590
8.3820,14.3510
Z" /> 
<path style="fill:none; 
stroke:#000000; stroke-width:0.3810; stroke-opacity:1; 
stroke-linecap:round; stroke-linejoin:round;fill:none"
d="M 6.9850,10.1600
6.3500,10.1600
" /> 
<path style="fill:#000000; fill-opacity:1.0000; 
stroke:#000000; stroke-width:0.3810; stroke-opacity:1; 
stroke-linecap:round; stroke-linejoin:round;fill-rule:evenodd;"
d="M 6.9850,15.2400
8.8900,13.3350
" /> 
<path style="fill:none; 
stroke:#000000; stroke-width:0.3810; stroke-opacity:1; 
stroke-linecap:round; stroke-linejoin:round;fill:none"
d="M 6.9850,15.2400
6.3500,15.2400
" /> 
</g>
<g style="fill:none; 
stroke:#000000; stroke-width:0.3810; stroke-opacity:1; 
stroke-linecap:round; stroke-linejoin:round;">
<path d="M16.5100 10.1600
L19.0500 10.1600
" />
<path d="M16.5100 15.2400
L19.0500 15.2400
" />
<path d="M6.3500 10.1600
L3.8100 10.1600
" />
<path d="M6.3500 15.2400
L3.8100 15.2400
" />
<path style="fill:none; 
stroke:#000000; stroke-width:0.3810; stroke-opacity:1; 
stroke-linecap:round; stroke-linejoin:round;fill:none"
d="M 20.5740,10.1600
19.0500,10.1600
" /> 
<path style="fill:none; 
stroke:#000000; stroke-width:0.3810; stroke-opacity:1; 
stroke-linecap:round; stroke-linejoin:round;fill:none"
d="M 20.5740,10.1600
20.9550,9.1440
21.3360,10.1600
21.7170,11.1760
22.0980,10.1600
" /> 
<path style="fill:none; 
stroke:#000000; stroke-width:0.3810; stroke-opacity:1; 
stroke-linecap:round; stroke-linejoin:round;fill:none"
d="M 22.0980,10.1600
22.4790,9.1440
22.8600,10.1600
23.2410,11.1760
23.6220,10.1600
" /> 
<path style="fill:none; 
stroke:#000000; stroke-width:0.3810; stroke-opacity:1; 
stroke-linecap:round; stroke-linejoin:round;fill:none"
d="M 23.6220,10.1600
24.0030,9.1440
24.3840,10.1600
24.7650,11.1760
25.1460,10.1600
" /> 
<path style="fill:none; 
stroke:#000000; stroke-width:0.3810; stroke-opacity:1; 
stroke-linecap:round; stroke-linejoin:round;fill:none"
d="M 25.1460,10.1600
25.4000,10.1600
" /> 
<path style="fill:none; 
stroke:#000000; stroke-width:0.3810; stroke-opacity:1; 
stroke-linecap:round; stroke-linejoin:round;fill:none"
d="M 26.6700,10.1600
25.1460,10.1600
" /> 
</g>
<g style="fill:none; 
stroke:#000000; stroke-width:0.3175; stroke-opacity:1; 
stroke-linecap:round; stroke-linejoin:round;">
<text x="22.8600" y="8.0009"
textLength="4.3876" font-size="1.6933" lengthAdjust="spacingAndGlyphs"
text-anchor="middle" opacity="0" stroke-opacity="0">2k立</text>
<g class="stroked-text"><desc>2k立</desc>
<path d="M21.2574 6.7878
L21.3178 6.7273
" />
<path d="M21.3178 6.7273
L21.4388 6.6668
" />
<path d="M21.4388 6.6668
L21.7412 6.6668
" />
<path d="M21.7412 6.6668
L21.8621 6.7273
" />
<path d="M21.8621 6.7273
L21.9226 6.7878
" />
<path d="M21.9226 6.7878
L21.9831 6.9087
" />
<path d="M21.9831 6.9087
L21.9831 7.0297
" />
<path d="M21.9831 7.0297
L21.9226 7.2111
" />
<path d="M21.9226 7.2111
L21.1969 7.9368
" />
<path d="M21.1969 7.9368
L21.9831 7.9368
" />
<path d="M22.5273 7.9368
L22.5273 6.6668
" />
<path d="M22.6483 7.4530
L23.0111 7.9368
" />
<path d="M23.0111 7.0902
L22.5273 7.5740
" />
<path d="M23.4950 7.9368
L23.7973 7.9368
" />
<path d="M23.7973 7.9368
L23.7973 7.6949
" />
<path d="M23.7973 7.6949
L23.6764 7.6344
" />
<path d="M23.6764 7.6344
L23.5554 7.5135
" />
<path d="M23.5554 7.5135
L23.4950 7.3321
" />
<path d="M23.4950 7.3321
L23.4950 7.0297
" />
<path d="M23.4950 7.0297
L23.5554 6.8483
" />
<path d="M23.5554 6.8483
L23.6764 6.7273
" />
<path d="M23.6764 6.7273
L23.8578 6.6668
" />
<path d="M23.8578 6.6668
L24.0997 6.6668
" />
<path d="M24.0997 6.6668
L24.2811 6.7273
" />
<path d="M24.2811 6.7273
L24.4021 6.8483
" />
<path d="M24.4021 6.8483
L24.4626 7.0297
" />
<path d="M24.4626 7.0297
L24.4626 7.3321
" />
<path d="M24.4626 7.3321
L24.4021 7.5135
" />
<path d="M24.4021 7.5135
L24.2811 7.6344
" />
<path d="M24.2811 7.6344
L24.1602 7.6949
" />
<path d="M24.1602 7.6949
L24.1602 7.9368
" />
<path d="M24.1602 7.9368
L24.4626 7.9368
" />
</g></g>
<g style="fill:none; 
stroke:#000000; stroke-width:0.3810; stroke-opacity:1; 
stroke-linecap:round; stroke-linejoin:round;">
<path d="M26.6700 10.1600
L31.7500 10.1600
" />
<path d="M34.2900 10.1600
L36.8300 10.1600
" />
<path d="M19.0500 15.2400
L19.0500 19.0500
" />
</g>
<g style="fill:none; 
stroke:#000000; stroke-width:0.3175; stroke-opacity:1; 
stroke-linecap:round; stroke-linejoin:round;">
<text x="1.5240" y="25.0167"
textLength="8.5603" font-size="1.6933" lengthAdjust="spacingAndGlyphs"
text-anchor="start" opacity="0" stroke-opacity="0">Onboard</text>
<g class="stroked-text"><desc>Onboard</desc>
<path d="M2.2770 23.6826
L2.5189 23.6826
" />
<path d="M2.5189 23.6826
L2.6399 23.7431
" />
<path d="M2.6399 23.7431
L2.7608 23.8641
" />
<path d="M2.7608 23.8641
L2.8213 24.1060
" />
<path d="M2.8213 24.1060
L2.8213 24.5293
" />
<path d="M2.8213 24.5293
L2.7608 24.7712
" />
<path d="M2.7608 24.7712
L2.6399 24.8922
" />
<path d="M2.6399 24.8922
L2.5189 24.9526
" />
<path d="M2.5189 24.9526
L2.2770 24.9526
" />
<path d="M2.2770 24.9526
L2.1561 24.8922
" />
<path d="M2.1561 24.8922
L2.0351 24.7712
" />
<path d="M2.0351 24.7712
L1.9747 24.5293
" />
<path d="M1.9747 24.5293
L1.9747 24.1060
" />
<path d="M1.9747 24.1060
L2.0351 23.8641
" />
<path d="M2.0351 23.8641
L2.1561 23.7431
" />
<path d="M2.1561 23.7431
L2.2770 23.6826
" />
<path d="M3.3656 24.1060
L3.3656 24.9526
" />
<path d="M3.3656 24.2269
L3.4261 24.1664
" />
<path d="M3.4261 24.1664
L3.5471 24.1060
" />
<path d="M3.5471 24.1060
L3.7285 24.1060
" />
<path d="M3.7285 24.1060
L3.8494 24.1664
" />
<path d="M3.8494 24.1664
L3.9099 24.2874
" />
<path d="M3.9099 24.2874
L3.9099 24.9526
" />
<path d="M4.5146 24.9526
L4.5146 23.6826
" />
<path d="M4.5146 24.1664
L4.6356 24.1060
" />
<path d="M4.6356 24.1060
L4.8775 24.1060
" />
<path d="M4.8775 24.1060
L4.9984 24.1664
" />
<path d="M4.9984 24.1664
L5.0589 24.2269
" />
<path d="M5.0589 24.2269
L5.1194 24.3479
" />
<path d="M5.1194 24.3479
L5.1194 24.7107
" />
<path d="M5.1194 24.7107
L5.0589 24.8317
" />
<path d="M5.0589 24.8317
L4.9984 24.8922
" />
<path d="M4.9984 24.8922
L4.8775 24.9526
" />
<path d="M4.8775 24.9526
L4.6356 24.9526
" />
<path d="M4.6356 24.9526
L4.5146 24.8922
" />
<path d="M5.8451 24.9526
L5.7241 24.8922
" />
<path d="M5.7241 24.8922
L5.6636 24.8317
" />
<path d="M5.6636 24.8317
L5.6032 24.7107
" />
<path d="M5.6032 24.7107
L5.6032 24.3479
" />
<path d="M5.6032 24.3479
L5.6636 24.2269
" />
<path d="M5.6636 24.2269
L5.7241 24.1664
" />
<path d="M5.7241 24.1664
L5.8451 24.1060
" />
<path d="M5.8451 24.1060
L6.0265 24.1060
" />
<path d="M6.0265 24.1060
L6.1474 24.1664
" />
<path d="M6.1474 24.1664
L6.2079 24.2269
" />
<path d="M6.2079 24.2269
L6.2684 24.3479
" />
<path d="M6.2684 24.3479
L6.2684 24.7107
" />
<path d="M6.2684 24.7107
L6.2079 24.8317
" />
<path d="M6.2079 24.8317
L6.1474 24.8922
" />
<path d="M6.1474 24.8922
L6.0265 24.9526
" />
<path d="M6.0265 24.9526
L5.8451 24.9526
" />
<path d="M7.3569 24.9526
L7.3569 24.2874
" />
<path d="M7.3569 24.2874
L7.2964 24.1664
" />
<path d="M7.2964 24.1664
L7.1755 24.1060
" />
<path d="M7.1755 24.1060
L6.9336 24.1060
" />
<path d="M6.9336 24.1060
L6.8126 24.1664
" />
<path d="M7.3569 24.8922
L7.2360 24.9526
" />
<path d="M7.2360 24.9526
L6.9336 24.9526
" />
<path d="M6.9336 24.9526
L6.8126 24.8922
" />
<path d="M6.8126 24.8922
L6.7522 24.7712
" />
<path d="M6.7522 24.7712
L6.7522 24.6502
" />
<path d="M6.7522 24.6502
L6.8126 24.5293
" />
<path d="M6.8126 24.5293
L6.9336 24.4688
" />
<path d="M6.9336 24.4688
L7.2360 24.4688
" />
<path d="M7.2360 24.4688
L7.3569 24.4083
" />
<path d="M7.9616 24.9526
L7.9616 24.1060
" />
<path d="M7.9616 24.3479
L8.0221 24.2269
" />
<path d="M8.0221 24.2269
L8.0826 24.1664
" />
<path d="M8.0826 24.1664
L8.2035 24.1060
" />
<path d="M8.2035 24.1060
L8.3245 24.1060
" />
<path d="M9.2921 24.9526
L9.2921 23.6826
" />
<path d="M9.2921 24.8922
L9.1712 24.9526
" />
<path d="M9.1712 24.9526
L8.9293 24.9526
" />
<path d="M8.9293 24.9526
L8.8083 24.8922
" />
<path d="M8.8083 24.8922
L8.7478 24.8317
" />
<path d="M8.7478 24.8317
L8.6874 24.7107
" />
<path d="M8.6874 24.7107
L8.6874 24.3479
" />
<path d="M8.6874 24.3479
L8.7478 24.2269
" />
<path d="M8.7478 24.2269
L8.8083 24.1664
" />
<path d="M8.8083 24.1664
L8.9293 24.1060
" />
<path d="M8.9293 24.1060
L9.1712 24.1060
" />
<path d="M9.1712 24.1060
L9.2921 24.1664
" />
</g><text x="1.5240" y="27.0613"
textLength="12.6727" font-size="1.6933" lengthAdjust="spacingAndGlyphs"
text-anchor="start" opacity="0" stroke-opacity="0">AutomatePro</text>
<g class="stroked-text"><desc>AutomatePro</desc>
<path d="M1.9747 26.6344
L2.5794 26.6344
" />
<path d="M1.8537 26.9972
L2.2770 25.7272
" />
<path d="M2.2770 25.7272
L2.7004 26.9972
" />
<path d="M3.6680 26.1506
L3.6680 26.9972
" />
<path d="M3.1237 26.1506
L3.1237 26.8158
" />
<path d="M3.1237 26.8158
L3.1842 26.9368
" />
<path d="M3.1842 26.9368
L3.3052 26.9972
" />
<path d="M3.3052 26.9972
L3.4866 26.9972
" />
<path d="M3.4866 26.9972
L3.6075 26.9368
" />
<path d="M3.6075 26.9368
L3.6680 26.8763
" />
<path d="M4.0913 26.1506
L4.5751 26.1506
" />
<path d="M4.2727 25.7272
L4.2727 26.8158
" />
<path d="M4.2727 26.8158
L4.3332 26.9368
" />
<path d="M4.3332 26.9368
L4.4542 26.9972
" />
<path d="M4.4542 26.9972
L4.5751 26.9972
" />
<path d="M5.1799 26.9972
L5.0589 26.9368
" />
<path d="M5.0589 26.9368
L4.9984 26.8763
" />
<path d="M4.9984 26.8763
L4.9380 26.7553
" />
<path d="M4.9380 26.7553
L4.9380 26.3925
" />
<path d="M4.9380 26.3925
L4.9984 26.2715
" />
<path d="M4.9984 26.2715
L5.0589 26.2110
" />
<path d="M5.0589 26.2110
L5.1799 26.1506
" />
<path d="M5.1799 26.1506
L5.3613 26.1506
" />
<path d="M5.3613 26.1506
L5.4822 26.2110
" />
<path d="M5.4822 26.2110
L5.5427 26.2715
" />
<path d="M5.5427 26.2715
L5.6032 26.3925
" />
<path d="M5.6032 26.3925
L5.6032 26.7553
" />
<path d="M5.6032 26.7553
L5.5427 26.8763
" />
<path d="M5.5427 26.8763
L5.4822 26.9368
" />
<path d="M5.4822 26.9368
L5.3613 26.9972
" />
<path d="M5.3613 26.9972
L5.1799 26.9972
" />
<path d="M6.1474 26.9972
L6.1474 26.1506
" />
<path d="M6.1474 26.2715
L6.2079 26.2110
" />
<path d="M6.2079 26.2110
L6.3289 26.1506
" />
<path d="M6.3289 26.1506
L6.5103 26.1506
" />
<path d="M6.5103 26.1506
L6.6312 26.2110
" />
<path d="M6.6312 26.2110
L6.6917 26.3320
" />
<path d="M6.6917 26.3320
L6.6917 26.9972
" />
<path d="M6.6917 26.3320
L6.7522 26.2110
" />
<path d="M6.7522 26.2110
L6.8731 26.1506
" />
<path d="M6.8731 26.1506
L7.0546 26.1506
" />
<path d="M7.0546 26.1506
L7.1755 26.2110
" />
<path d="M7.1755 26.2110
L7.2360 26.3320
" />
<path d="M7.2360 26.3320
L7.2360 26.9972
" />
<path d="M8.3850 26.9972
L8.3850 26.3320
" />
<path d="M8.3850 26.3320
L8.3245 26.2110
" />
<path d="M8.3245 26.2110
L8.2036 26.1506
" />
<path d="M8.2036 26.1506
L7.9617 26.1506
" />
<path d="M7.9617 26.1506
L7.8407 26.2110
" />
<path d="M8.3850 26.9368
L8.2641 26.9972
" />
<path d="M8.2641 26.9972
L7.9617 26.9972
" />
<path d="M7.9617 26.9972
L7.8407 26.9368
" />
<path d="M7.8407 26.9368
L7.7803 26.8158
" />
<path d="M7.7803 26.8158
L7.7803 26.6948
" />
<path d="M7.7803 26.6948
L7.8407 26.5739
" />
<path d="M7.8407 26.5739
L7.9617 26.5134
" />
<path d="M7.9617 26.5134
L8.2641 26.5134
" />
<path d="M8.2641 26.5134
L8.3850 26.4529
" />
<path d="M8.8083 26.1506
L9.2921 26.1506
" />
<path d="M8.9897 25.7272
L8.9897 26.8158
" />
<path d="M8.9897 26.8158
L9.0502 26.9368
" />
<path d="M9.0502 26.9368
L9.1712 26.9972
" />
<path d="M9.1712 26.9972
L9.2921 26.9972
" />
<path d="M10.1992 26.9368
L10.0783 26.9972
" />
<path d="M10.0783 26.9972
L9.8364 26.9972
" />
<path d="M9.8364 26.9972
L9.7154 26.9368
" />
<path d="M9.7154 26.9368
L9.6550 26.8158
" />
<path d="M9.6550 26.8158
L9.6550 26.3320
" />
<path d="M9.6550 26.3320
L9.7154 26.2110
" />
<path d="M9.7154 26.2110
L9.8364 26.1506
" />
<path d="M9.8364 26.1506
L10.0783 26.1506
" />
<path d="M10.0783 26.1506
L10.1992 26.2110
" />
<path d="M10.1992 26.2110
L10.2597 26.3320
" />
<path d="M10.2597 26.3320
L10.2597 26.4529
" />
<path d="M10.2597 26.4529
L9.6550 26.5739
" />
<path d="M10.8040 26.9972
L10.8040 25.7272
" />
<path d="M10.8040 25.7272
L11.2878 25.7272
" />
<path d="M11.2878 25.7272
L11.4088 25.7877
" />
<path d="M11.4088 25.7877
L11.4693 25.8482
" />
<path d="M11.4693 25.8482
L11.5297 25.9691
" />
<path d="M11.5297 25.9691
L11.5297 26.1506
" />
<path d="M11.5297 26.1506
L11.4693 26.2715
" />
<path d="M11.4693 26.2715
L11.4088 26.3320
" />
<path d="M11.4088 26.3320
L11.2878 26.3925
" />
<path d="M11.2878 26.3925
L10.8040 26.3925
" />
<path d="M12.0740 26.9972
L12.0740 26.1506
" />
<path d="M12.0740 26.3925
L12.1345 26.2715
" />
<path d="M12.1345 26.2715
L12.1950 26.2110
" />
<path d="M12.1950 26.2110
L12.3159 26.1506
" />
<path d="M12.3159 26.1506
L12.4369 26.1506
" />
<path d="M13.0417 26.9972
L12.9207 26.9368
" />
<path d="M12.9207 26.9368
L12.8602 26.8763
" />
<path d="M12.8602 26.8763
L12.7998 26.7553
" />
<path d="M12.7998 26.7553
L12.7998 26.3925
" />
<path d="M12.7998 26.3925
L12.8602 26.2715
" />
<path d="M12.8602 26.2715
L12.9207 26.2110
" />
<path d="M12.9207 26.2110
L13.0417 26.1506
" />
<path d="M13.0417 26.1506
L13.2231 26.1506
" />
<path d="M13.2231 26.1506
L13.3440 26.2110
" />
<path d="M13.3440 26.2110
L13.4045 26.2715
" />
<path d="M13.4045 26.2715
L13.4650 26.3925
" />
<path d="M13.4650 26.3925
L13.4650 26.7553
" />
<path d="M13.4650 26.7553
L13.4045 26.8763
" />
<path d="M13.4045 26.8763
L13.3440 26.9368
" />
<path d="M13.3440 26.9368
L13.2231 26.9972
" />
<path d="M13.2231 26.9972
L13.0417 26.9972
" />
</g></g>
<g style="fill:none; 
stroke:#000000; stroke-width:0.3175; stroke-opacity:1; 
stroke-linecap:round; stroke-linejoin:round;">
<text x="27.6860" y="9.5290"
textLength="5.5972" font-size="1.6933" lengthAdjust="spacingAndGlyphs"
text-anchor="middle" opacity="0" stroke-opacity="0">DI_xx</text>
<g class="stroked-text"><desc>DI_xx</desc>
<path d="M25.5390 9.4649
L25.5390 8.1949
" />
<path d="M25.5390 8.1949
L25.8414 8.1949
" />
<path d="M25.8414 8.1949
L26.0228 8.2554
" />
<path d="M26.0228 8.2554
L26.1438 8.3764
" />
<path d="M26.1438 8.3764
L26.2043 8.4973
" />
<path d="M26.2043 8.4973
L26.2647 8.7392
" />
<path d="M26.2647 8.7392
L26.2647 8.9206
" />
<path d="M26.2647 8.9206
L26.2043 9.1625
" />
<path d="M26.2043 9.1625
L26.1438 9.2835
" />
<path d="M26.1438 9.2835
L26.0228 9.4045
" />
<path d="M26.0228 9.4045
L25.8414 9.4649
" />
<path d="M25.8414 9.4649
L25.5390 9.4649
" />
<path d="M26.8090 9.4649
L26.8090 8.1949
" />
<path d="M27.1115 9.5859
L28.0791 9.5859
" />
<path d="M28.2605 9.4649
L28.9257 8.6183
" />
<path d="M28.2605 8.6183
L28.9257 9.4649
" />
<path d="M29.2886 9.4649
L29.9538 8.6183
" />
<path d="M29.2886 8.6183
L29.9538 9.4649
" />
</g></g>
<g style="fill:none; 
stroke:#FFFFFF; stroke-width:0.3810; stroke-opacity:1; 
stroke-linecap:round; stroke-linejoin:round;">
<rect x="1.270000" y="1.270000" width="31.750000" height="26.670000" rx="0.000000" />
</g>
<g style="fill:none; 
stroke:#000000; stroke-width:0.3810; stroke-opacity:1; 
stroke-linecap:round; stroke-linejoin:round;">
<rect x="31.750000" y="8.890000" width="2.540000" height="2.540000" rx="0.000000" />
<path d="M16.5100 10.1600
L19.0500 10.1600
" />
<path d="M16.5100 15.2400
L19.0500 15.2400
" />
<path d="M6.3500 10.1600
L3.8100 10.1600
" />
<path d="M6.3500 15.2400
L3.8100 15.2400
" />
</g>
<g style="fill:none; 
stroke:#000000; stroke-width:0.3175; stroke-opacity:1; 
stroke-linecap:round; stroke-linejoin:round;">
<text x="22.8600" y="8.0009"
textLength="4.3876" font-size="1.6933" lengthAdjust="spacingAndGlyphs"
text-anchor="middle" opacity="0" stroke-opacity="0">2k立</text>
<g class="stroked-text"><desc>2k立</desc>
<path d="M21.2574 6.7878
L21.3178 6.7273
" />
<path d="M21.3178 6.7273
L21.4388 6.6668
" />
<path d="M21.4388 6.6668
L21.7412 6.6668
" />
<path d="M21.7412 6.6668
L21.8621 6.7273
" />
<path d="M21.8621 6.7273
L21.9226 6.7878
" />
<path d="M21.9226 6.7878
L21.9831 6.9087
" />
<path d="M21.9831 6.9087
L21.9831 7.0297
" />
<path d="M21.9831 7.0297
L21.9226 7.2111
" />
<path d="M21.9226 7.2111
L21.1969 7.9368
" />
<path d="M21.1969 7.9368
L21.9831 7.9368
" />
<path d="M22.5273 7.9368
L22.5273 6.6668
" />
<path d="M22.6483 7.4530
L23.0111 7.9368
" />
<path d="M23.0111 7.0902
L22.5273 7.5740
" />
<path d="M23.4950 7.9368
L23.7973 7.9368
" />
<path d="M23.7973 7.9368
L23.7973 7.6949
" />
<path d="M23.7973 7.6949
L23.6764 7.6344
" />
<path d="M23.6764 7.6344
L23.5554 7.5135
" />
<path d="M23.5554 7.5135
L23.4950 7.3321
" />
<path d="M23.4950 7.3321
L23.4950 7.0297
" />
<path d="M23.4950 7.0297
L23.5554 6.8483
" />
<path d="M23.5554 6.8483
L23.6764 6.7273
" />
<path d="M23.6764 6.7273
L23.8578 6.6668
" />
<path d="M23.8578 6.6668
L24.0997 6.6668
" />
<path d="M24.0997 6.6668
L24.2811 6.7273
" />
<path d="M24.2811 6.7273
L24.4021 6.8483
" />
<path d="M24.4021 6.8483
L24.4626 7.0297
" />
<path d="M24.4626 7.0297
L24.4626 7.3321
" />
<path d="M24.4626 7.3321
L24.4021 7.5135
" />
<path d="M24.4021 7.5135
L24.2811 7.6344
" />
<path d="M24.2811 7.6344
L24.1602 7.6949
" />
<path d="M24.1602 7.6949
L24.1602 7.9368
" />
<path d="M24.1602 7.9368
L24.4626 7.9368
" />
</g></g> 
</svg>
