<?xml version="1.0" standalone="no"?>
 <!DOCTYPE svg PUBLIC "-//W3C//DTD SVG 1.1//EN" 
 "http://www.w3.org/Graphics/SVG/1.1/DTD/svg11.dtd"> 
<svg
  xmlns:svg="http://www.w3.org/2000/svg"
  xmlns="http://www.w3.org/2000/svg"
  xmlns:xlink="http://www.w3.org/1999/xlink"
  version="1.1"
  width="39.9796mm" height="29.9974mm" viewBox="0.0000 0.0000 39.9796 29.9974">
<title>SVG Image created as Graphical Drawings-DO_H_x.svg date 2025/02/06 13:37:17 </title>
  <desc>Image generated by Eeschema-SVG </desc>
<g style="fill:#000000; fill-opacity:1.0000;stroke:#000000; stroke-opacity:1.0000;
stroke-linecap:round; stroke-linejoin:round;"
 transform="translate(0 0) scale(1 1)">
</g>
<g style="fill:#848484; fill-opacity:0.3500; stroke:none;">
<rect x="2.540000" y="1.270000" width="24.130000" height="26.670000" rx="0.000000" />
</g>
<g style="fill:#FFFFFF; fill-opacity:1.0000; stroke:none;">
<rect x="25.400000" y="21.590000" width="2.540000" height="2.540000" rx="0.000000" />
<path style="fill:none; 
stroke:#000000; stroke-width:0.3810; stroke-opacity:1; 
stroke-linecap:round; stroke-linejoin:round;fill:none"
d="M 16.5100,8.8900
16.5100,6.3500
" /> 
<path style="fill:none; 
stroke:#000000; stroke-width:0.3810; stroke-opacity:1; 
stroke-linecap:round; stroke-linejoin:round;fill:none"
d="M 17.7800,6.3500
15.2400,6.3500
" /> 
</g>
<g style="fill:none; 
stroke:#000000; stroke-width:0.3175; stroke-opacity:1; 
stroke-linecap:round; stroke-linejoin:round;">
<text x="16.5100" y="5.7150"
textLength="5.7786" font-size="1.6933" lengthAdjust="spacingAndGlyphs"
text-anchor="middle" opacity="0" stroke-opacity="0">+12V</text>
<g class="stroked-text"><desc>+12V</desc>
<path d="M14.2723 5.1671
L15.2400 5.1671
" />
<path d="M14.7561 5.6509
L14.7561 4.6833
" />
<path d="M16.5100 5.6509
L15.7843 5.6509
" />
<path d="M16.1471 5.6509
L16.1471 4.3809
" />
<path d="M16.1471 4.3809
L16.0262 4.5624
" />
<path d="M16.0262 4.5624
L15.9052 4.6833
" />
<path d="M15.9052 4.6833
L15.7843 4.7438
" />
<path d="M16.9938 4.5019
L17.0542 4.4414
" />
<path d="M17.0542 4.4414
L17.1752 4.3809
" />
<path d="M17.1752 4.3809
L17.4776 4.3809
" />
<path d="M17.4776 4.3809
L17.5985 4.4414
" />
<path d="M17.5985 4.4414
L17.6590 4.5019
" />
<path d="M17.6590 4.5019
L17.7195 4.6228
" />
<path d="M17.7195 4.6228
L17.7195 4.7438
" />
<path d="M17.7195 4.7438
L17.6590 4.9252
" />
<path d="M17.6590 4.9252
L16.9333 5.6509
" />
<path d="M16.9333 5.6509
L17.7195 5.6509
" />
<path d="M18.0823 4.3809
L18.5056 5.6509
" />
<path d="M18.5056 5.6509
L18.9290 4.3809
" />
</g><path style="fill:none; 
stroke:#000000; stroke-width:0.2540; stroke-opacity:1; 
stroke-linecap:round; stroke-linejoin:round;fill:none"
d="M 14.2240,12.0650
14.2240,15.8750
" /> 
<path style="fill:none; 
stroke:#000000; stroke-width:0.3810; stroke-opacity:1; 
stroke-linecap:round; stroke-linejoin:round;fill:none"
d="M 14.2240,13.9700
11.4300,13.9700
" /> 
<path style="fill:none; 
stroke:#000000; stroke-width:0.2540; stroke-opacity:1; 
stroke-linecap:round; stroke-linejoin:round;fill:none"
d="M 14.7320,11.6840
14.7320,12.7000
" /> 
<path style="fill:none; 
stroke:#000000; stroke-width:0.2540; stroke-opacity:1; 
stroke-linecap:round; stroke-linejoin:round;fill:none"
d="M 14.7320,13.4620
14.7320,14.4780
" /> 
<path style="fill:none; 
stroke:#000000; stroke-width:0.2540; stroke-opacity:1; 
stroke-linecap:round; stroke-linejoin:round;fill:none"
d="M 14.7320,15.2400
14.7320,16.2560
" /> 
<path style="fill:none; 
stroke:#000000; stroke-width:0.2500; stroke-opacity:1; 
stroke-linecap:round; stroke-linejoin:round;fill:none"
d="M 14.7320,15.7480
17.2720,15.7480
17.2720,12.1920
14.7320,12.1920
" /> 
<path style="fill:#000000; fill-opacity:1.0000; 
stroke:#000000; stroke-width:0.3810; stroke-opacity:1; 
stroke-linecap:round; stroke-linejoin:round;fill-rule:evenodd;"
d="M 14.9860,13.9700
16.0020,13.5890
16.0020,14.3510
Z" /> 
</g>
<g style="fill:none; 
stroke:#000000; stroke-width:0.2540; stroke-opacity:1; 
stroke-linecap:round; stroke-linejoin:round;">
<circle cx="15.6210" cy="13.9700" r="2.7940" /> 
<path style="fill:none; 
stroke:#000000; stroke-width:0.3810; stroke-opacity:1; 
stroke-linecap:round; stroke-linejoin:round;fill:none"
d="M 16.5100,11.4300
16.5100,12.1920
" /> 
</g>
<g style="fill:#000000; fill-opacity:1.0000; 
stroke:#000000; stroke-width:0.3810; stroke-opacity:1; 
stroke-linecap:round; stroke-linejoin:round;">
<circle cx="16.5100" cy="12.1920" r="0.2540" /> 
<circle cx="16.5100" cy="15.7480" r="0.2540" /> 
<path style="fill:none; 
stroke:#000000; stroke-width:0.3810; stroke-opacity:1; 
stroke-linecap:round; stroke-linejoin:round;fill:none"
d="M 16.5100,16.5100
16.5100,13.9700
14.7320,13.9700
" /> 
<path style="fill:none; 
stroke:#000000; stroke-width:0.3810; stroke-opacity:1; 
stroke-linecap:round; stroke-linejoin:round;fill:none"
d="M 16.5100,17.7800
16.5100,16.5100
" /> 
<path style="fill:none; 
stroke:#000000; stroke-width:0.2500; stroke-opacity:1; 
stroke-linecap:round; stroke-linejoin:round;fill:none"
d="M 16.5100,17.7800
11.4300,17.7800
11.4300,13.9700
" /> 
<path style="fill:none; 
stroke:#000000; stroke-width:0.1524; stroke-opacity:1; 
stroke-linecap:round; stroke-linejoin:round;fill:none"
d="M 16.7640,13.4620
17.7800,13.4620
" /> 
<path style="fill:none; 
stroke:#000000; stroke-width:0.1524; stroke-opacity:1; 
stroke-linecap:round; stroke-linejoin:round;fill:none"
d="M 12.1920,18.2880
12.3190,18.1610
12.3190,17.3990
12.4460,17.2720
" /> 
<path style="fill:#000000; fill-opacity:1.0000; 
stroke:#000000; stroke-width:0.2000; stroke-opacity:1; 
stroke-linecap:round; stroke-linejoin:round;fill-rule:evenodd;"
d="M 12.3190,17.7800
12.9540,18.1610
12.9540,17.3990
Z" /> 
<path style="fill:#000000; fill-opacity:1.0000; 
stroke:#000000; stroke-width:0.2000; stroke-opacity:1; 
stroke-linecap:round; stroke-linejoin:round;fill-rule:evenodd;"
d="M 14.3510,17.7800
13.7160,17.3990
13.7160,18.1610
Z" /> 
<path style="fill:none; 
stroke:#000000; stroke-width:0.1524; stroke-opacity:1; 
stroke-linecap:round; stroke-linejoin:round;fill:none"
d="M 14.4780,17.2720
14.3510,17.3990
14.3510,18.1610
14.2240,18.2880
" /> 
<path style="fill:#000000; fill-opacity:1.0000; 
stroke:#000000; stroke-width:0.2000; stroke-opacity:1; 
stroke-linecap:round; stroke-linejoin:round;fill-rule:evenodd;"
d="M 17.2720,13.5890
16.8910,14.2240
17.6530,14.2240
Z" /> 
</g>
<g style="fill:none; 
stroke:#000000; stroke-width:0.3810; stroke-opacity:1; 
stroke-linecap:round; stroke-linejoin:round;">
<path d="M11.4300 13.9700
L8.8900 13.9700
" />
<path d="M16.5100 11.4300
L16.5100 8.8900
" />
<path d="M16.5100 17.7800
L16.5100 20.3200
" />
<path style="fill:none; 
stroke:#000000; stroke-width:0.3810; stroke-opacity:1; 
stroke-linecap:round; stroke-linejoin:round;fill:none"
d="M 32.0040,25.4000
30.4800,25.4000
" /> 
<path style="fill:none; 
stroke:#000000; stroke-width:0.3810; stroke-opacity:1; 
stroke-linecap:round; stroke-linejoin:round;fill:none"
d="M 32.0040,25.4000
32.3850,24.3840
32.7660,25.4000
33.1470,26.4160
33.5280,25.4000
" /> 
<path style="fill:none; 
stroke:#000000; stroke-width:0.3810; stroke-opacity:1; 
stroke-linecap:round; stroke-linejoin:round;fill:none"
d="M 33.5280,25.4000
33.9090,24.3840
34.2900,25.4000
34.6710,26.4160
35.0520,25.4000
" /> 
<path style="fill:none; 
stroke:#000000; stroke-width:0.3810; stroke-opacity:1; 
stroke-linecap:round; stroke-linejoin:round;fill:none"
d="M 35.0520,25.4000
35.4330,24.3840
35.8140,25.4000
36.1950,26.4160
36.5760,25.4000
" /> 
<path style="fill:none; 
stroke:#000000; stroke-width:0.3810; stroke-opacity:1; 
stroke-linecap:round; stroke-linejoin:round;fill:none"
d="M 36.5760,25.4000
36.8300,25.4000
" /> 
<path style="fill:none; 
stroke:#000000; stroke-width:0.3810; stroke-opacity:1; 
stroke-linecap:round; stroke-linejoin:round;fill:none"
d="M 38.1000,25.4000
36.5760,25.4000
" /> 
<path style="fill:none; 
stroke:#000000; stroke-width:0.3810; stroke-opacity:1; 
stroke-linecap:round; stroke-linejoin:round;fill:none"
d="M 38.1000,20.3200
36.1950,20.3200
" /> 
<path style="fill:none; 
stroke:#000000; stroke-width:0.3810; stroke-opacity:1; 
stroke-linecap:round; stroke-linejoin:round;fill:none"
d="M 32.3850,20.3200
30.4800,20.3200
" /> 
<circle cx="34.2900" cy="20.3200" r="1.9050" /> 
<text x="34.2901" y="21.6740"
textLength="3.2173" font-size="2.9333" lengthAdjust="spacingAndGlyphs"
text-anchor="middle" opacity="0" stroke-opacity="0">M</text>
<g class="stroked-text"><desc>M</desc>
<path d="M33.5568 21.5718
L33.5568 19.3718
" />
<path d="M33.5568 19.3718
L34.2901 20.9432
" />
<path d="M34.2901 20.9432
L35.0234 19.3718
" />
<path d="M35.0234 19.3718
L35.0234 21.5718
" />
</g><path d="M27.9400 22.8600
L29.2100 22.8600
" />
<path d="M16.5100 22.8600
L25.4000 22.8600
" />
<path d="M16.5100 20.3200
L16.5100 22.8600
" />
</g>
<g style="fill:none; 
stroke:#000000; stroke-width:0.3175; stroke-opacity:1; 
stroke-linecap:round; stroke-linejoin:round;">
<text x="21.0820" y="22.2290"
textLength="7.5929" font-size="1.6933" lengthAdjust="spacingAndGlyphs"
text-anchor="middle" opacity="0" stroke-opacity="0">DO_H_x</text>
<g class="stroked-text"><desc>DO_H_x</desc>
<path d="M17.9372 22.1649
L17.9372 20.8949
" />
<path d="M17.9372 20.8949
L18.2396 20.8949
" />
<path d="M18.2396 20.8949
L18.4210 20.9554
" />
<path d="M18.4210 20.9554
L18.5420 21.0764
" />
<path d="M18.5420 21.0764
L18.6025 21.1973
" />
<path d="M18.6025 21.1973
L18.6629 21.4392
" />
<path d="M18.6629 21.4392
L18.6629 21.6206
" />
<path d="M18.6629 21.6206
L18.6025 21.8625
" />
<path d="M18.6025 21.8625
L18.5420 21.9835
" />
<path d="M18.5420 21.9835
L18.4210 22.1045
" />
<path d="M18.4210 22.1045
L18.2396 22.1649
" />
<path d="M18.2396 22.1649
L17.9372 22.1649
" />
<path d="M19.4491 20.8949
L19.6910 20.8949
" />
<path d="M19.6910 20.8949
L19.8120 20.9554
" />
<path d="M19.8120 20.9554
L19.9329 21.0764
" />
<path d="M19.9329 21.0764
L19.9934 21.3183
" />
<path d="M19.9934 21.3183
L19.9934 21.7416
" />
<path d="M19.9934 21.7416
L19.9329 21.9835
" />
<path d="M19.9329 21.9835
L19.8120 22.1045
" />
<path d="M19.8120 22.1045
L19.6910 22.1649
" />
<path d="M19.6910 22.1649
L19.4491 22.1649
" />
<path d="M19.4491 22.1649
L19.3282 22.1045
" />
<path d="M19.3282 22.1045
L19.2072 21.9835
" />
<path d="M19.2072 21.9835
L19.1468 21.7416
" />
<path d="M19.1468 21.7416
L19.1468 21.3183
" />
<path d="M19.1468 21.3183
L19.2072 21.0764
" />
<path d="M19.2072 21.0764
L19.3282 20.9554
" />
<path d="M19.3282 20.9554
L19.4491 20.8949
" />
<path d="M20.2354 22.2859
L21.2030 22.2859
" />
<path d="M21.5053 22.1649
L21.5053 20.8949
" />
<path d="M21.5053 21.4997
L22.2310 21.4997
" />
<path d="M22.2310 22.1649
L22.2310 20.8949
" />
<path d="M22.5335 22.2859
L23.5011 22.2859
" />
<path d="M23.6825 22.1649
L24.3477 21.3183
" />
<path d="M23.6825 21.3183
L24.3477 22.1649
" />
</g></g>
<g style="fill:none; 
stroke:#000000; stroke-width:0.3175; stroke-opacity:1; 
stroke-linecap:round; stroke-linejoin:round;">
<text x="3.0480" y="25.0167"
textLength="8.5603" font-size="1.6933" lengthAdjust="spacingAndGlyphs"
text-anchor="start" opacity="0" stroke-opacity="0">Onboard</text>
<g class="stroked-text"><desc>Onboard</desc>
<path d="M3.8010 23.6826
L4.0429 23.6826
" />
<path d="M4.0429 23.6826
L4.1639 23.7431
" />
<path d="M4.1639 23.7431
L4.2848 23.8641
" />
<path d="M4.2848 23.8641
L4.3453 24.1060
" />
<path d="M4.3453 24.1060
L4.3453 24.5293
" />
<path d="M4.3453 24.5293
L4.2848 24.7712
" />
<path d="M4.2848 24.7712
L4.1639 24.8922
" />
<path d="M4.1639 24.8922
L4.0429 24.9526
" />
<path d="M4.0429 24.9526
L3.8010 24.9526
" />
<path d="M3.8010 24.9526
L3.6801 24.8922
" />
<path d="M3.6801 24.8922
L3.5591 24.7712
" />
<path d="M3.5591 24.7712
L3.4987 24.5293
" />
<path d="M3.4987 24.5293
L3.4987 24.1060
" />
<path d="M3.4987 24.1060
L3.5591 23.8641
" />
<path d="M3.5591 23.8641
L3.6801 23.7431
" />
<path d="M3.6801 23.7431
L3.8010 23.6826
" />
<path d="M4.8896 24.1060
L4.8896 24.9526
" />
<path d="M4.8896 24.2269
L4.9501 24.1664
" />
<path d="M4.9501 24.1664
L5.0711 24.1060
" />
<path d="M5.0711 24.1060
L5.2525 24.1060
" />
<path d="M5.2525 24.1060
L5.3734 24.1664
" />
<path d="M5.3734 24.1664
L5.4339 24.2874
" />
<path d="M5.4339 24.2874
L5.4339 24.9526
" />
<path d="M6.0386 24.9526
L6.0386 23.6826
" />
<path d="M6.0386 24.1664
L6.1596 24.1060
" />
<path d="M6.1596 24.1060
L6.4015 24.1060
" />
<path d="M6.4015 24.1060
L6.5224 24.1664
" />
<path d="M6.5224 24.1664
L6.5829 24.2269
" />
<path d="M6.5829 24.2269
L6.6434 24.3479
" />
<path d="M6.6434 24.3479
L6.6434 24.7107
" />
<path d="M6.6434 24.7107
L6.5829 24.8317
" />
<path d="M6.5829 24.8317
L6.5224 24.8922
" />
<path d="M6.5224 24.8922
L6.4015 24.9526
" />
<path d="M6.4015 24.9526
L6.1596 24.9526
" />
<path d="M6.1596 24.9526
L6.0386 24.8922
" />
<path d="M7.3691 24.9526
L7.2481 24.8922
" />
<path d="M7.2481 24.8922
L7.1876 24.8317
" />
<path d="M7.1876 24.8317
L7.1272 24.7107
" />
<path d="M7.1272 24.7107
L7.1272 24.3479
" />
<path d="M7.1272 24.3479
L7.1876 24.2269
" />
<path d="M7.1876 24.2269
L7.2481 24.1664
" />
<path d="M7.2481 24.1664
L7.3691 24.1060
" />
<path d="M7.3691 24.1060
L7.5505 24.1060
" />
<path d="M7.5505 24.1060
L7.6714 24.1664
" />
<path d="M7.6714 24.1664
L7.7319 24.2269
" />
<path d="M7.7319 24.2269
L7.7924 24.3479
" />
<path d="M7.7924 24.3479
L7.7924 24.7107
" />
<path d="M7.7924 24.7107
L7.7319 24.8317
" />
<path d="M7.7319 24.8317
L7.6714 24.8922
" />
<path d="M7.6714 24.8922
L7.5505 24.9526
" />
<path d="M7.5505 24.9526
L7.3691 24.9526
" />
<path d="M8.8809 24.9526
L8.8809 24.2874
" />
<path d="M8.8809 24.2874
L8.8204 24.1664
" />
<path d="M8.8204 24.1664
L8.6995 24.1060
" />
<path d="M8.6995 24.1060
L8.4576 24.1060
" />
<path d="M8.4576 24.1060
L8.3366 24.1664
" />
<path d="M8.8809 24.8922
L8.7600 24.9526
" />
<path d="M8.7600 24.9526
L8.4576 24.9526
" />
<path d="M8.4576 24.9526
L8.3366 24.8922
" />
<path d="M8.3366 24.8922
L8.2762 24.7712
" />
<path d="M8.2762 24.7712
L8.2762 24.6502
" />
<path d="M8.2762 24.6502
L8.3366 24.5293
" />
<path d="M8.3366 24.5293
L8.4576 24.4688
" />
<path d="M8.4576 24.4688
L8.7600 24.4688
" />
<path d="M8.7600 24.4688
L8.8809 24.4083
" />
<path d="M9.4856 24.9526
L9.4856 24.1060
" />
<path d="M9.4856 24.3479
L9.5461 24.2269
" />
<path d="M9.5461 24.2269
L9.6066 24.1664
" />
<path d="M9.6066 24.1664
L9.7275 24.1060
" />
<path d="M9.7275 24.1060
L9.8485 24.1060
" />
<path d="M10.8161 24.9526
L10.8161 23.6826
" />
<path d="M10.8161 24.8922
L10.6952 24.9526
" />
<path d="M10.6952 24.9526
L10.4533 24.9526
" />
<path d="M10.4533 24.9526
L10.3323 24.8922
" />
<path d="M10.3323 24.8922
L10.2718 24.8317
" />
<path d="M10.2718 24.8317
L10.2114 24.7107
" />
<path d="M10.2114 24.7107
L10.2114 24.3479
" />
<path d="M10.2114 24.3479
L10.2718 24.2269
" />
<path d="M10.2718 24.2269
L10.3323 24.1664
" />
<path d="M10.3323 24.1664
L10.4533 24.1060
" />
<path d="M10.4533 24.1060
L10.6952 24.1060
" />
<path d="M10.6952 24.1060
L10.8161 24.1664
" />
</g><text x="3.0480" y="27.0613"
textLength="12.6727" font-size="1.6933" lengthAdjust="spacingAndGlyphs"
text-anchor="start" opacity="0" stroke-opacity="0">AutomatePro</text>
<g class="stroked-text"><desc>AutomatePro</desc>
<path d="M3.4987 26.6344
L4.1034 26.6344
" />
<path d="M3.3777 26.9972
L3.8010 25.7272
" />
<path d="M3.8010 25.7272
L4.2244 26.9972
" />
<path d="M5.1920 26.1506
L5.1920 26.9972
" />
<path d="M4.6477 26.1506
L4.6477 26.8158
" />
<path d="M4.6477 26.8158
L4.7082 26.9368
" />
<path d="M4.7082 26.9368
L4.8292 26.9972
" />
<path d="M4.8292 26.9972
L5.0106 26.9972
" />
<path d="M5.0106 26.9972
L5.1315 26.9368
" />
<path d="M5.1315 26.9368
L5.1920 26.8763
" />
<path d="M5.6153 26.1506
L6.0991 26.1506
" />
<path d="M5.7967 25.7272
L5.7967 26.8158
" />
<path d="M5.7967 26.8158
L5.8572 26.9368
" />
<path d="M5.8572 26.9368
L5.9782 26.9972
" />
<path d="M5.9782 26.9972
L6.0991 26.9972
" />
<path d="M6.7039 26.9972
L6.5829 26.9368
" />
<path d="M6.5829 26.9368
L6.5224 26.8763
" />
<path d="M6.5224 26.8763
L6.4620 26.7553
" />
<path d="M6.4620 26.7553
L6.4620 26.3925
" />
<path d="M6.4620 26.3925
L6.5224 26.2715
" />
<path d="M6.5224 26.2715
L6.5829 26.2110
" />
<path d="M6.5829 26.2110
L6.7039 26.1506
" />
<path d="M6.7039 26.1506
L6.8853 26.1506
" />
<path d="M6.8853 26.1506
L7.0062 26.2110
" />
<path d="M7.0062 26.2110
L7.0667 26.2715
" />
<path d="M7.0667 26.2715
L7.1272 26.3925
" />
<path d="M7.1272 26.3925
L7.1272 26.7553
" />
<path d="M7.1272 26.7553
L7.0667 26.8763
" />
<path d="M7.0667 26.8763
L7.0062 26.9368
" />
<path d="M7.0062 26.9368
L6.8853 26.9972
" />
<path d="M6.8853 26.9972
L6.7039 26.9972
" />
<path d="M7.6714 26.9972
L7.6714 26.1506
" />
<path d="M7.6714 26.2715
L7.7319 26.2110
" />
<path d="M7.7319 26.2110
L7.8529 26.1506
" />
<path d="M7.8529 26.1506
L8.0343 26.1506
" />
<path d="M8.0343 26.1506
L8.1552 26.2110
" />
<path d="M8.1552 26.2110
L8.2157 26.3320
" />
<path d="M8.2157 26.3320
L8.2157 26.9972
" />
<path d="M8.2157 26.3320
L8.2762 26.2110
" />
<path d="M8.2762 26.2110
L8.3971 26.1506
" />
<path d="M8.3971 26.1506
L8.5786 26.1506
" />
<path d="M8.5786 26.1506
L8.6995 26.2110
" />
<path d="M8.6995 26.2110
L8.7600 26.3320
" />
<path d="M8.7600 26.3320
L8.7600 26.9972
" />
<path d="M9.9090 26.9972
L9.9090 26.3320
" />
<path d="M9.9090 26.3320
L9.8485 26.2110
" />
<path d="M9.8485 26.2110
L9.7276 26.1506
" />
<path d="M9.7276 26.1506
L9.4857 26.1506
" />
<path d="M9.4857 26.1506
L9.3647 26.2110
" />
<path d="M9.9090 26.9368
L9.7881 26.9972
" />
<path d="M9.7881 26.9972
L9.4857 26.9972
" />
<path d="M9.4857 26.9972
L9.3647 26.9368
" />
<path d="M9.3647 26.9368
L9.3043 26.8158
" />
<path d="M9.3043 26.8158
L9.3043 26.6948
" />
<path d="M9.3043 26.6948
L9.3647 26.5739
" />
<path d="M9.3647 26.5739
L9.4857 26.5134
" />
<path d="M9.4857 26.5134
L9.7881 26.5134
" />
<path d="M9.7881 26.5134
L9.9090 26.4529
" />
<path d="M10.3323 26.1506
L10.8161 26.1506
" />
<path d="M10.5137 25.7272
L10.5137 26.8158
" />
<path d="M10.5137 26.8158
L10.5742 26.9368
" />
<path d="M10.5742 26.9368
L10.6952 26.9972
" />
<path d="M10.6952 26.9972
L10.8161 26.9972
" />
<path d="M11.7232 26.9368
L11.6023 26.9972
" />
<path d="M11.6023 26.9972
L11.3604 26.9972
" />
<path d="M11.3604 26.9972
L11.2394 26.9368
" />
<path d="M11.2394 26.9368
L11.1790 26.8158
" />
<path d="M11.1790 26.8158
L11.1790 26.3320
" />
<path d="M11.1790 26.3320
L11.2394 26.2110
" />
<path d="M11.2394 26.2110
L11.3604 26.1506
" />
<path d="M11.3604 26.1506
L11.6023 26.1506
" />
<path d="M11.6023 26.1506
L11.7232 26.2110
" />
<path d="M11.7232 26.2110
L11.7837 26.3320
" />
<path d="M11.7837 26.3320
L11.7837 26.4529
" />
<path d="M11.7837 26.4529
L11.1790 26.5739
" />
<path d="M12.3280 26.9972
L12.3280 25.7272
" />
<path d="M12.3280 25.7272
L12.8118 25.7272
" />
<path d="M12.8118 25.7272
L12.9328 25.7877
" />
<path d="M12.9328 25.7877
L12.9933 25.8482
" />
<path d="M12.9933 25.8482
L13.0537 25.9691
" />
<path d="M13.0537 25.9691
L13.0537 26.1506
" />
<path d="M13.0537 26.1506
L12.9933 26.2715
" />
<path d="M12.9933 26.2715
L12.9328 26.3320
" />
<path d="M12.9328 26.3320
L12.8118 26.3925
" />
<path d="M12.8118 26.3925
L12.3280 26.3925
" />
<path d="M13.5980 26.9972
L13.5980 26.1506
" />
<path d="M13.5980 26.3925
L13.6585 26.2715
" />
<path d="M13.6585 26.2715
L13.7190 26.2110
" />
<path d="M13.7190 26.2110
L13.8399 26.1506
" />
<path d="M13.8399 26.1506
L13.9609 26.1506
" />
<path d="M14.5657 26.9972
L14.4447 26.9368
" />
<path d="M14.4447 26.9368
L14.3842 26.8763
" />
<path d="M14.3842 26.8763
L14.3238 26.7553
" />
<path d="M14.3238 26.7553
L14.3238 26.3925
" />
<path d="M14.3238 26.3925
L14.3842 26.2715
" />
<path d="M14.3842 26.2715
L14.4447 26.2110
" />
<path d="M14.4447 26.2110
L14.5657 26.1506
" />
<path d="M14.5657 26.1506
L14.7471 26.1506
" />
<path d="M14.7471 26.1506
L14.8680 26.2110
" />
<path d="M14.8680 26.2110
L14.9285 26.2715
" />
<path d="M14.9285 26.2715
L14.9890 26.3925
" />
<path d="M14.9890 26.3925
L14.9890 26.7553
" />
<path d="M14.9890 26.7553
L14.9285 26.8763
" />
<path d="M14.9285 26.8763
L14.8680 26.9368
" />
<path d="M14.8680 26.9368
L14.7471 26.9972
" />
<path d="M14.7471 26.9972
L14.5657 26.9972
" />
</g></g>
<g style="fill:none; 
stroke:#FFFFFF; stroke-width:0.3810; stroke-opacity:1; 
stroke-linecap:round; stroke-linejoin:round;">
<rect x="2.540000" y="1.270000" width="24.130000" height="26.670000" rx="0.000000" />
</g>
<g style="fill:none; 
stroke:#000000; stroke-width:0.3810; stroke-opacity:1; 
stroke-linecap:round; stroke-linejoin:round;">
<rect x="25.400000" y="21.590000" width="2.540000" height="2.540000" rx="0.000000" />
</g>
<g style="fill:none; 
stroke:#000000; stroke-width:0.3175; stroke-opacity:1; 
stroke-linecap:round; stroke-linejoin:round;">
<text x="16.5100" y="5.7150"
textLength="5.7786" font-size="1.6933" lengthAdjust="spacingAndGlyphs"
text-anchor="middle" opacity="0" stroke-opacity="0">+12V</text>
<g class="stroked-text"><desc>+12V</desc>
<path d="M14.2723 5.1671
L15.2400 5.1671
" />
<path d="M14.7561 5.6509
L14.7561 4.6833
" />
<path d="M16.5100 5.6509
L15.7843 5.6509
" />
<path d="M16.1471 5.6509
L16.1471 4.3809
" />
<path d="M16.1471 4.3809
L16.0262 4.5624
" />
<path d="M16.0262 4.5624
L15.9052 4.6833
" />
<path d="M15.9052 4.6833
L15.7843 4.7438
" />
<path d="M16.9938 4.5019
L17.0542 4.4414
" />
<path d="M17.0542 4.4414
L17.1752 4.3809
" />
<path d="M17.1752 4.3809
L17.4776 4.3809
" />
<path d="M17.4776 4.3809
L17.5985 4.4414
" />
<path d="M17.5985 4.4414
L17.6590 4.5019
" />
<path d="M17.6590 4.5019
L17.7195 4.6228
" />
<path d="M17.7195 4.6228
L17.7195 4.7438
" />
<path d="M17.7195 4.7438
L17.6590 4.9252
" />
<path d="M17.6590 4.9252
L16.9333 5.6509
" />
<path d="M16.9333 5.6509
L17.7195 5.6509
" />
<path d="M18.0823 4.3809
L18.5056 5.6509
" />
<path d="M18.5056 5.6509
L18.9290 4.3809
" />
</g></g>
<g style="fill:none; 
stroke:#000000; stroke-width:0.3810; stroke-opacity:1; 
stroke-linecap:round; stroke-linejoin:round;">
<path d="M11.4300 13.9700
L8.8900 13.9700
" />
<path d="M16.5100 11.4300
L16.5100 8.8900
" />
<path d="M16.5100 17.7800
L16.5100 20.3200
" />
</g> 
</svg>
