<?xml version="1.0" standalone="no"?>
 <!DOCTYPE svg PUBLIC "-//W3C//DTD SVG 1.1//EN" 
 "http://www.w3.org/Graphics/SVG/1.1/DTD/svg11.dtd"> 
<svg
  xmlns:svg="http://www.w3.org/2000/svg"
  xmlns="http://www.w3.org/2000/svg"
  xmlns:xlink="http://www.w3.org/1999/xlink"
  version="1.1"
  width="39.9796mm" height="29.9974mm" viewBox="0.0000 0.0000 39.9796 29.9974">
<title>SVG Image created as Graphical Drawings-DO_L_x.svg date 2025/02/06 13:37:17 </title>
  <desc>Image generated by Eeschema-SVG </desc>
<g style="fill:#000000; fill-opacity:1.0000;stroke:#000000; stroke-opacity:1.0000;
stroke-linecap:round; stroke-linejoin:round;"
 transform="translate(0 0) scale(1 1)">
</g>
<g style="fill:#848484; fill-opacity:0.3500; stroke:none;">
<rect x="1.270000" y="1.270000" width="24.130000" height="26.670000" rx="0.000000" />
</g>
<g style="fill:#FFFFFF; fill-opacity:1.0000; stroke:none;">
<rect x="24.130000" y="7.620000" width="2.540000" height="2.540000" rx="0.000000" />
<path style="fill:none; 
stroke:#000000; stroke-width:0.3810; stroke-opacity:1; 
stroke-linecap:round; stroke-linejoin:round;fill:none"
d="M 17.7800,21.5900
17.7800,22.8600
19.0500,22.8600
17.7800,24.1300
16.5100,22.8600
17.7800,22.8600
" /> 
</g>
<g style="fill:none; 
stroke:#000000; stroke-width:0.3175; stroke-opacity:1; 
stroke-linecap:round; stroke-linejoin:round;">
<text x="17.7800" y="26.0350"
textLength="4.5691" font-size="1.6933" lengthAdjust="spacingAndGlyphs"
text-anchor="middle" opacity="0" stroke-opacity="0">GND</text>
<g class="stroked-text"><desc>GND</desc>
<path d="M16.8124 24.7614
L16.6914 24.7009
" />
<path d="M16.6914 24.7009
L16.5100 24.7009
" />
<path d="M16.5100 24.7009
L16.3286 24.7614
" />
<path d="M16.3286 24.7614
L16.2076 24.8824
" />
<path d="M16.2076 24.8824
L16.1471 25.0033
" />
<path d="M16.1471 25.0033
L16.0867 25.2452
" />
<path d="M16.0867 25.2452
L16.0867 25.4266
" />
<path d="M16.0867 25.4266
L16.1471 25.6685
" />
<path d="M16.1471 25.6685
L16.2076 25.7895
" />
<path d="M16.2076 25.7895
L16.3286 25.9105
" />
<path d="M16.3286 25.9105
L16.5100 25.9709
" />
<path d="M16.5100 25.9709
L16.6309 25.9709
" />
<path d="M16.6309 25.9709
L16.8124 25.9105
" />
<path d="M16.8124 25.9105
L16.8728 25.8500
" />
<path d="M16.8728 25.8500
L16.8728 25.4266
" />
<path d="M16.8728 25.4266
L16.6309 25.4266
" />
<path d="M17.4171 25.9709
L17.4171 24.7009
" />
<path d="M17.4171 24.7009
L18.1428 25.9709
" />
<path d="M18.1428 25.9709
L18.1428 24.7009
" />
<path d="M18.7476 25.9709
L18.7476 24.7009
" />
<path d="M18.7476 24.7009
L19.0500 24.7009
" />
<path d="M19.0500 24.7009
L19.2314 24.7614
" />
<path d="M19.2314 24.7614
L19.3524 24.8824
" />
<path d="M19.3524 24.8824
L19.4129 25.0033
" />
<path d="M19.4129 25.0033
L19.4733 25.2452
" />
<path d="M19.4733 25.2452
L19.4733 25.4266
" />
<path d="M19.4733 25.4266
L19.4129 25.6685
" />
<path d="M19.4129 25.6685
L19.3524 25.7895
" />
<path d="M19.3524 25.7895
L19.2314 25.9105
" />
<path d="M19.2314 25.9105
L19.0500 25.9709
" />
<path d="M19.0500 25.9709
L18.7476 25.9709
" />
</g><path style="fill:none; 
stroke:#000000; stroke-width:0.2540; stroke-opacity:1; 
stroke-linecap:round; stroke-linejoin:round;fill:none"
d="M 15.4940,12.0650
15.4940,15.8750
" /> 
<path style="fill:none; 
stroke:#000000; stroke-width:0.3810; stroke-opacity:1; 
stroke-linecap:round; stroke-linejoin:round;fill:none"
d="M 15.4940,13.9700
12.7000,13.9700
" /> 
<path style="fill:none; 
stroke:#000000; stroke-width:0.2540; stroke-opacity:1; 
stroke-linecap:round; stroke-linejoin:round;fill:none"
d="M 16.0020,11.6840
16.0020,12.7000
" /> 
<path style="fill:none; 
stroke:#000000; stroke-width:0.2540; stroke-opacity:1; 
stroke-linecap:round; stroke-linejoin:round;fill:none"
d="M 16.0020,13.4620
16.0020,14.4780
" /> 
<path style="fill:none; 
stroke:#000000; stroke-width:0.2540; stroke-opacity:1; 
stroke-linecap:round; stroke-linejoin:round;fill:none"
d="M 16.0020,15.2400
16.0020,16.2560
" /> 
<path style="fill:none; 
stroke:#000000; stroke-width:0.2500; stroke-opacity:1; 
stroke-linecap:round; stroke-linejoin:round;fill:none"
d="M 16.0020,15.7480
18.5420,15.7480
18.5420,12.1920
16.0020,12.1920
" /> 
<path style="fill:#000000; fill-opacity:1.0000; 
stroke:#000000; stroke-width:0.3810; stroke-opacity:1; 
stroke-linecap:round; stroke-linejoin:round;fill-rule:evenodd;"
d="M 16.2560,13.9700
17.2720,13.5890
17.2720,14.3510
Z" /> 
</g>
<g style="fill:none; 
stroke:#000000; stroke-width:0.2540; stroke-opacity:1; 
stroke-linecap:round; stroke-linejoin:round;">
<circle cx="16.8910" cy="13.9700" r="2.7940" /> 
<path style="fill:none; 
stroke:#000000; stroke-width:0.3810; stroke-opacity:1; 
stroke-linecap:round; stroke-linejoin:round;fill:none"
d="M 17.7800,11.4300
17.7800,12.1920
" /> 
</g>
<g style="fill:#000000; fill-opacity:1.0000; 
stroke:#000000; stroke-width:0.3810; stroke-opacity:1; 
stroke-linecap:round; stroke-linejoin:round;">
<circle cx="17.7800" cy="12.1920" r="0.2540" /> 
<circle cx="17.7800" cy="15.7480" r="0.2540" /> 
<path style="fill:none; 
stroke:#000000; stroke-width:0.3810; stroke-opacity:1; 
stroke-linecap:round; stroke-linejoin:round;fill:none"
d="M 17.7800,16.5100
17.7800,13.9700
16.0020,13.9700
" /> 
<path style="fill:none; 
stroke:#000000; stroke-width:0.2500; stroke-opacity:1; 
stroke-linecap:round; stroke-linejoin:round;fill:none"
d="M 17.7800,17.7800
12.7000,17.7800
12.7000,13.9700
" /> 
<path style="fill:none; 
stroke:#000000; stroke-width:0.3810; stroke-opacity:1; 
stroke-linecap:round; stroke-linejoin:round;fill:none"
d="M 17.7800,17.7800
17.7800,16.5100
" /> 
<path style="fill:none; 
stroke:#000000; stroke-width:0.1524; stroke-opacity:1; 
stroke-linecap:round; stroke-linejoin:round;fill:none"
d="M 18.0340,13.4620
19.0500,13.4620
" /> 
<path style="fill:none; 
stroke:#000000; stroke-width:0.1524; stroke-opacity:1; 
stroke-linecap:round; stroke-linejoin:round;fill:none"
d="M 13.4620,18.2880
13.5890,18.1610
13.5890,17.3990
13.7160,17.2720
" /> 
<path style="fill:#000000; fill-opacity:1.0000; 
stroke:#000000; stroke-width:0.2000; stroke-opacity:1; 
stroke-linecap:round; stroke-linejoin:round;fill-rule:evenodd;"
d="M 13.5890,17.7800
14.2240,18.1610
14.2240,17.3990
Z" /> 
<path style="fill:#000000; fill-opacity:1.0000; 
stroke:#000000; stroke-width:0.2000; stroke-opacity:1; 
stroke-linecap:round; stroke-linejoin:round;fill-rule:evenodd;"
d="M 15.6210,17.7800
14.9860,17.3990
14.9860,18.1610
Z" /> 
<path style="fill:none; 
stroke:#000000; stroke-width:0.1524; stroke-opacity:1; 
stroke-linecap:round; stroke-linejoin:round;fill:none"
d="M 15.7480,17.2720
15.6210,17.3990
15.6210,18.1610
15.4940,18.2880
" /> 
<path style="fill:#000000; fill-opacity:1.0000; 
stroke:#000000; stroke-width:0.2000; stroke-opacity:1; 
stroke-linecap:round; stroke-linejoin:round;fill-rule:evenodd;"
d="M 18.5420,13.5890
18.1610,14.2240
18.9230,14.2240
Z" /> 
</g>
<g style="fill:none; 
stroke:#000000; stroke-width:0.3810; stroke-opacity:1; 
stroke-linecap:round; stroke-linejoin:round;">
<path d="M12.7000 13.9700
L10.1600 13.9700
" />
<path d="M17.7800 11.4300
L17.7800 8.8900
" />
<path d="M17.7800 17.7800
L17.7800 20.3200
" />
<path style="fill:none; 
stroke:#000000; stroke-width:0.3810; stroke-opacity:1; 
stroke-linecap:round; stroke-linejoin:round;fill:none"
d="M 36.8300,6.3500
34.9250,6.3500
" /> 
<path style="fill:none; 
stroke:#000000; stroke-width:0.3810; stroke-opacity:1; 
stroke-linecap:round; stroke-linejoin:round;fill:none"
d="M 31.1150,6.3500
29.2100,6.3500
" /> 
<circle cx="33.0200" cy="6.3500" r="1.9050" /> 
<text x="33.0201" y="7.7040"
textLength="3.2173" font-size="2.9333" lengthAdjust="spacingAndGlyphs"
text-anchor="middle" opacity="0" stroke-opacity="0">M</text>
<g class="stroked-text"><desc>M</desc>
<path d="M32.2868 7.6018
L32.2868 5.4018
" />
<path d="M32.2868 5.4018
L33.0201 6.9732
" />
<path d="M33.0201 6.9732
L33.7534 5.4018
" />
<path d="M33.7534 5.4018
L33.7534 7.6018
" />
</g><path style="fill:none; 
stroke:#000000; stroke-width:0.3810; stroke-opacity:1; 
stroke-linecap:round; stroke-linejoin:round;fill:none"
d="M 30.7340,11.4300
29.2100,11.4300
" /> 
<path style="fill:none; 
stroke:#000000; stroke-width:0.3810; stroke-opacity:1; 
stroke-linecap:round; stroke-linejoin:round;fill:none"
d="M 30.7340,11.4300
31.1150,10.4140
31.4960,11.4300
31.8770,12.4460
32.2580,11.4300
" /> 
<path style="fill:none; 
stroke:#000000; stroke-width:0.3810; stroke-opacity:1; 
stroke-linecap:round; stroke-linejoin:round;fill:none"
d="M 32.2580,11.4300
32.6390,10.4140
33.0200,11.4300
33.4010,12.4460
33.7820,11.4300
" /> 
<path style="fill:none; 
stroke:#000000; stroke-width:0.3810; stroke-opacity:1; 
stroke-linecap:round; stroke-linejoin:round;fill:none"
d="M 33.7820,11.4300
34.1630,10.4140
34.5440,11.4300
34.9250,12.4460
35.3060,11.4300
" /> 
<path style="fill:none; 
stroke:#000000; stroke-width:0.3810; stroke-opacity:1; 
stroke-linecap:round; stroke-linejoin:round;fill:none"
d="M 35.3060,11.4300
35.5600,11.4300
" /> 
<path style="fill:none; 
stroke:#000000; stroke-width:0.3810; stroke-opacity:1; 
stroke-linecap:round; stroke-linejoin:round;fill:none"
d="M 36.8300,11.4300
35.3060,11.4300
" /> 
<path d="M17.7800 8.8900
L24.1300 8.8900
" />
<path d="M26.6700 8.8900
L27.9400 8.8900
" />
</g>
<g style="fill:none; 
stroke:#000000; stroke-width:0.1524; stroke-opacity:1; 
stroke-linecap:round; stroke-linejoin:round;">
<path d="M17.7800 21.5900
L17.7800 20.3200
" />
</g>
<g style="fill:none; 
stroke:#000000; stroke-width:0.3810; stroke-opacity:1; 
stroke-linecap:round; stroke-linejoin:round;">
<path d="M17.7800 20.3200
L17.7800 21.5900
" />
</g>
<g style="fill:none; 
stroke:#000000; stroke-width:0.3175; stroke-opacity:1; 
stroke-linecap:round; stroke-linejoin:round;">
<text x="2.0320" y="25.0167"
textLength="8.5603" font-size="1.6933" lengthAdjust="spacingAndGlyphs"
text-anchor="start" opacity="0" stroke-opacity="0">Onboard</text>
<g class="stroked-text"><desc>Onboard</desc>
<path d="M2.7850 23.6826
L3.0269 23.6826
" />
<path d="M3.0269 23.6826
L3.1479 23.7431
" />
<path d="M3.1479 23.7431
L3.2688 23.8641
" />
<path d="M3.2688 23.8641
L3.3293 24.1060
" />
<path d="M3.3293 24.1060
L3.3293 24.5293
" />
<path d="M3.3293 24.5293
L3.2688 24.7712
" />
<path d="M3.2688 24.7712
L3.1479 24.8922
" />
<path d="M3.1479 24.8922
L3.0269 24.9526
" />
<path d="M3.0269 24.9526
L2.7850 24.9526
" />
<path d="M2.7850 24.9526
L2.6641 24.8922
" />
<path d="M2.6641 24.8922
L2.5431 24.7712
" />
<path d="M2.5431 24.7712
L2.4827 24.5293
" />
<path d="M2.4827 24.5293
L2.4827 24.1060
" />
<path d="M2.4827 24.1060
L2.5431 23.8641
" />
<path d="M2.5431 23.8641
L2.6641 23.7431
" />
<path d="M2.6641 23.7431
L2.7850 23.6826
" />
<path d="M3.8736 24.1060
L3.8736 24.9526
" />
<path d="M3.8736 24.2269
L3.9341 24.1664
" />
<path d="M3.9341 24.1664
L4.0551 24.1060
" />
<path d="M4.0551 24.1060
L4.2365 24.1060
" />
<path d="M4.2365 24.1060
L4.3574 24.1664
" />
<path d="M4.3574 24.1664
L4.4179 24.2874
" />
<path d="M4.4179 24.2874
L4.4179 24.9526
" />
<path d="M5.0226 24.9526
L5.0226 23.6826
" />
<path d="M5.0226 24.1664
L5.1436 24.1060
" />
<path d="M5.1436 24.1060
L5.3855 24.1060
" />
<path d="M5.3855 24.1060
L5.5064 24.1664
" />
<path d="M5.5064 24.1664
L5.5669 24.2269
" />
<path d="M5.5669 24.2269
L5.6274 24.3479
" />
<path d="M5.6274 24.3479
L5.6274 24.7107
" />
<path d="M5.6274 24.7107
L5.5669 24.8317
" />
<path d="M5.5669 24.8317
L5.5064 24.8922
" />
<path d="M5.5064 24.8922
L5.3855 24.9526
" />
<path d="M5.3855 24.9526
L5.1436 24.9526
" />
<path d="M5.1436 24.9526
L5.0226 24.8922
" />
<path d="M6.3531 24.9526
L6.2321 24.8922
" />
<path d="M6.2321 24.8922
L6.1716 24.8317
" />
<path d="M6.1716 24.8317
L6.1112 24.7107
" />
<path d="M6.1112 24.7107
L6.1112 24.3479
" />
<path d="M6.1112 24.3479
L6.1716 24.2269
" />
<path d="M6.1716 24.2269
L6.2321 24.1664
" />
<path d="M6.2321 24.1664
L6.3531 24.1060
" />
<path d="M6.3531 24.1060
L6.5345 24.1060
" />
<path d="M6.5345 24.1060
L6.6554 24.1664
" />
<path d="M6.6554 24.1664
L6.7159 24.2269
" />
<path d="M6.7159 24.2269
L6.7764 24.3479
" />
<path d="M6.7764 24.3479
L6.7764 24.7107
" />
<path d="M6.7764 24.7107
L6.7159 24.8317
" />
<path d="M6.7159 24.8317
L6.6554 24.8922
" />
<path d="M6.6554 24.8922
L6.5345 24.9526
" />
<path d="M6.5345 24.9526
L6.3531 24.9526
" />
<path d="M7.8649 24.9526
L7.8649 24.2874
" />
<path d="M7.8649 24.2874
L7.8044 24.1664
" />
<path d="M7.8044 24.1664
L7.6835 24.1060
" />
<path d="M7.6835 24.1060
L7.4416 24.1060
" />
<path d="M7.4416 24.1060
L7.3206 24.1664
" />
<path d="M7.8649 24.8922
L7.7440 24.9526
" />
<path d="M7.7440 24.9526
L7.4416 24.9526
" />
<path d="M7.4416 24.9526
L7.3206 24.8922
" />
<path d="M7.3206 24.8922
L7.2602 24.7712
" />
<path d="M7.2602 24.7712
L7.2602 24.6502
" />
<path d="M7.2602 24.6502
L7.3206 24.5293
" />
<path d="M7.3206 24.5293
L7.4416 24.4688
" />
<path d="M7.4416 24.4688
L7.7440 24.4688
" />
<path d="M7.7440 24.4688
L7.8649 24.4083
" />
<path d="M8.4696 24.9526
L8.4696 24.1060
" />
<path d="M8.4696 24.3479
L8.5301 24.2269
" />
<path d="M8.5301 24.2269
L8.5906 24.1664
" />
<path d="M8.5906 24.1664
L8.7115 24.1060
" />
<path d="M8.7115 24.1060
L8.8325 24.1060
" />
<path d="M9.8001 24.9526
L9.8001 23.6826
" />
<path d="M9.8001 24.8922
L9.6792 24.9526
" />
<path d="M9.6792 24.9526
L9.4373 24.9526
" />
<path d="M9.4373 24.9526
L9.3163 24.8922
" />
<path d="M9.3163 24.8922
L9.2558 24.8317
" />
<path d="M9.2558 24.8317
L9.1954 24.7107
" />
<path d="M9.1954 24.7107
L9.1954 24.3479
" />
<path d="M9.1954 24.3479
L9.2558 24.2269
" />
<path d="M9.2558 24.2269
L9.3163 24.1664
" />
<path d="M9.3163 24.1664
L9.4373 24.1060
" />
<path d="M9.4373 24.1060
L9.6792 24.1060
" />
<path d="M9.6792 24.1060
L9.8001 24.1664
" />
</g><text x="2.0320" y="27.0613"
textLength="12.6727" font-size="1.6933" lengthAdjust="spacingAndGlyphs"
text-anchor="start" opacity="0" stroke-opacity="0">AutomatePro</text>
<g class="stroked-text"><desc>AutomatePro</desc>
<path d="M2.4827 26.6344
L3.0874 26.6344
" />
<path d="M2.3617 26.9972
L2.7850 25.7272
" />
<path d="M2.7850 25.7272
L3.2084 26.9972
" />
<path d="M4.1760 26.1506
L4.1760 26.9972
" />
<path d="M3.6317 26.1506
L3.6317 26.8158
" />
<path d="M3.6317 26.8158
L3.6922 26.9368
" />
<path d="M3.6922 26.9368
L3.8132 26.9972
" />
<path d="M3.8132 26.9972
L3.9946 26.9972
" />
<path d="M3.9946 26.9972
L4.1155 26.9368
" />
<path d="M4.1155 26.9368
L4.1760 26.8763
" />
<path d="M4.5993 26.1506
L5.0831 26.1506
" />
<path d="M4.7807 25.7272
L4.7807 26.8158
" />
<path d="M4.7807 26.8158
L4.8412 26.9368
" />
<path d="M4.8412 26.9368
L4.9622 26.9972
" />
<path d="M4.9622 26.9972
L5.0831 26.9972
" />
<path d="M5.6879 26.9972
L5.5669 26.9368
" />
<path d="M5.5669 26.9368
L5.5064 26.8763
" />
<path d="M5.5064 26.8763
L5.4460 26.7553
" />
<path d="M5.4460 26.7553
L5.4460 26.3925
" />
<path d="M5.4460 26.3925
L5.5064 26.2715
" />
<path d="M5.5064 26.2715
L5.5669 26.2110
" />
<path d="M5.5669 26.2110
L5.6879 26.1506
" />
<path d="M5.6879 26.1506
L5.8693 26.1506
" />
<path d="M5.8693 26.1506
L5.9902 26.2110
" />
<path d="M5.9902 26.2110
L6.0507 26.2715
" />
<path d="M6.0507 26.2715
L6.1112 26.3925
" />
<path d="M6.1112 26.3925
L6.1112 26.7553
" />
<path d="M6.1112 26.7553
L6.0507 26.8763
" />
<path d="M6.0507 26.8763
L5.9902 26.9368
" />
<path d="M5.9902 26.9368
L5.8693 26.9972
" />
<path d="M5.8693 26.9972
L5.6879 26.9972
" />
<path d="M6.6554 26.9972
L6.6554 26.1506
" />
<path d="M6.6554 26.2715
L6.7159 26.2110
" />
<path d="M6.7159 26.2110
L6.8369 26.1506
" />
<path d="M6.8369 26.1506
L7.0183 26.1506
" />
<path d="M7.0183 26.1506
L7.1392 26.2110
" />
<path d="M7.1392 26.2110
L7.1997 26.3320
" />
<path d="M7.1997 26.3320
L7.1997 26.9972
" />
<path d="M7.1997 26.3320
L7.2602 26.2110
" />
<path d="M7.2602 26.2110
L7.3811 26.1506
" />
<path d="M7.3811 26.1506
L7.5626 26.1506
" />
<path d="M7.5626 26.1506
L7.6835 26.2110
" />
<path d="M7.6835 26.2110
L7.7440 26.3320
" />
<path d="M7.7440 26.3320
L7.7440 26.9972
" />
<path d="M8.8930 26.9972
L8.8930 26.3320
" />
<path d="M8.8930 26.3320
L8.8325 26.2110
" />
<path d="M8.8325 26.2110
L8.7116 26.1506
" />
<path d="M8.7116 26.1506
L8.4697 26.1506
" />
<path d="M8.4697 26.1506
L8.3487 26.2110
" />
<path d="M8.8930 26.9368
L8.7721 26.9972
" />
<path d="M8.7721 26.9972
L8.4697 26.9972
" />
<path d="M8.4697 26.9972
L8.3487 26.9368
" />
<path d="M8.3487 26.9368
L8.2883 26.8158
" />
<path d="M8.2883 26.8158
L8.2883 26.6948
" />
<path d="M8.2883 26.6948
L8.3487 26.5739
" />
<path d="M8.3487 26.5739
L8.4697 26.5134
" />
<path d="M8.4697 26.5134
L8.7721 26.5134
" />
<path d="M8.7721 26.5134
L8.8930 26.4529
" />
<path d="M9.3163 26.1506
L9.8001 26.1506
" />
<path d="M9.4977 25.7272
L9.4977 26.8158
" />
<path d="M9.4977 26.8158
L9.5582 26.9368
" />
<path d="M9.5582 26.9368
L9.6792 26.9972
" />
<path d="M9.6792 26.9972
L9.8001 26.9972
" />
<path d="M10.7072 26.9368
L10.5863 26.9972
" />
<path d="M10.5863 26.9972
L10.3444 26.9972
" />
<path d="M10.3444 26.9972
L10.2234 26.9368
" />
<path d="M10.2234 26.9368
L10.1630 26.8158
" />
<path d="M10.1630 26.8158
L10.1630 26.3320
" />
<path d="M10.1630 26.3320
L10.2234 26.2110
" />
<path d="M10.2234 26.2110
L10.3444 26.1506
" />
<path d="M10.3444 26.1506
L10.5863 26.1506
" />
<path d="M10.5863 26.1506
L10.7072 26.2110
" />
<path d="M10.7072 26.2110
L10.7677 26.3320
" />
<path d="M10.7677 26.3320
L10.7677 26.4529
" />
<path d="M10.7677 26.4529
L10.1630 26.5739
" />
<path d="M11.3120 26.9972
L11.3120 25.7272
" />
<path d="M11.3120 25.7272
L11.7958 25.7272
" />
<path d="M11.7958 25.7272
L11.9168 25.7877
" />
<path d="M11.9168 25.7877
L11.9773 25.8482
" />
<path d="M11.9773 25.8482
L12.0377 25.9691
" />
<path d="M12.0377 25.9691
L12.0377 26.1506
" />
<path d="M12.0377 26.1506
L11.9773 26.2715
" />
<path d="M11.9773 26.2715
L11.9168 26.3320
" />
<path d="M11.9168 26.3320
L11.7958 26.3925
" />
<path d="M11.7958 26.3925
L11.3120 26.3925
" />
<path d="M12.5820 26.9972
L12.5820 26.1506
" />
<path d="M12.5820 26.3925
L12.6425 26.2715
" />
<path d="M12.6425 26.2715
L12.7030 26.2110
" />
<path d="M12.7030 26.2110
L12.8239 26.1506
" />
<path d="M12.8239 26.1506
L12.9449 26.1506
" />
<path d="M13.5497 26.9972
L13.4287 26.9368
" />
<path d="M13.4287 26.9368
L13.3682 26.8763
" />
<path d="M13.3682 26.8763
L13.3078 26.7553
" />
<path d="M13.3078 26.7553
L13.3078 26.3925
" />
<path d="M13.3078 26.3925
L13.3682 26.2715
" />
<path d="M13.3682 26.2715
L13.4287 26.2110
" />
<path d="M13.4287 26.2110
L13.5497 26.1506
" />
<path d="M13.5497 26.1506
L13.7311 26.1506
" />
<path d="M13.7311 26.1506
L13.8520 26.2110
" />
<path d="M13.8520 26.2110
L13.9125 26.2715
" />
<path d="M13.9125 26.2715
L13.9730 26.3925
" />
<path d="M13.9730 26.3925
L13.9730 26.7553
" />
<path d="M13.9730 26.7553
L13.9125 26.8763
" />
<path d="M13.9125 26.8763
L13.8520 26.9368
" />
<path d="M13.8520 26.9368
L13.7311 26.9972
" />
<path d="M13.7311 26.9972
L13.5497 26.9972
" />
</g></g>
<g style="fill:none; 
stroke:#000000; stroke-width:0.3175; stroke-opacity:1; 
stroke-linecap:round; stroke-linejoin:round;">
<text x="19.3040" y="8.0050"
textLength="7.2905" font-size="1.6933" lengthAdjust="spacingAndGlyphs"
text-anchor="middle" opacity="0" stroke-opacity="0">DO_L_x</text>
<g class="stroked-text"><desc>DO_L_x</desc>
<path d="M16.3104 7.9409
L16.3104 6.6709
" />
<path d="M16.3104 6.6709
L16.6128 6.6709
" />
<path d="M16.6128 6.6709
L16.7942 6.7314
" />
<path d="M16.7942 6.7314
L16.9152 6.8524
" />
<path d="M16.9152 6.8524
L16.9757 6.9733
" />
<path d="M16.9757 6.9733
L17.0361 7.2152
" />
<path d="M17.0361 7.2152
L17.0361 7.3966
" />
<path d="M17.0361 7.3966
L16.9757 7.6385
" />
<path d="M16.9757 7.6385
L16.9152 7.7595
" />
<path d="M16.9152 7.7595
L16.7942 7.8805
" />
<path d="M16.7942 7.8805
L16.6128 7.9409
" />
<path d="M16.6128 7.9409
L16.3104 7.9409
" />
<path d="M17.8223 6.6709
L18.0642 6.6709
" />
<path d="M18.0642 6.6709
L18.1852 6.7314
" />
<path d="M18.1852 6.7314
L18.3061 6.8524
" />
<path d="M18.3061 6.8524
L18.3666 7.0943
" />
<path d="M18.3666 7.0943
L18.3666 7.5176
" />
<path d="M18.3666 7.5176
L18.3061 7.7595
" />
<path d="M18.3061 7.7595
L18.1852 7.8805
" />
<path d="M18.1852 7.8805
L18.0642 7.9409
" />
<path d="M18.0642 7.9409
L17.8223 7.9409
" />
<path d="M17.8223 7.9409
L17.7014 7.8805
" />
<path d="M17.7014 7.8805
L17.5804 7.7595
" />
<path d="M17.5804 7.7595
L17.5200 7.5176
" />
<path d="M17.5200 7.5176
L17.5200 7.0943
" />
<path d="M17.5200 7.0943
L17.5804 6.8524
" />
<path d="M17.5804 6.8524
L17.7014 6.7314
" />
<path d="M17.7014 6.7314
L17.8223 6.6709
" />
<path d="M18.6086 8.0619
L19.5762 8.0619
" />
<path d="M20.4833 7.9409
L19.8785 7.9409
" />
<path d="M19.8785 7.9409
L19.8785 6.6709
" />
<path d="M20.6043 8.0619
L21.5719 8.0619
" />
<path d="M21.7533 7.9409
L22.4185 7.0943
" />
<path d="M21.7533 7.0943
L22.4185 7.9409
" />
</g></g>
<g style="fill:none; 
stroke:#FFFFFF; stroke-width:0.3810; stroke-opacity:1; 
stroke-linecap:round; stroke-linejoin:round;">
<rect x="1.270000" y="1.270000" width="24.130000" height="26.670000" rx="0.000000" />
</g>
<g style="fill:none; 
stroke:#000000; stroke-width:0.3810; stroke-opacity:1; 
stroke-linecap:round; stroke-linejoin:round;">
<rect x="24.130000" y="7.620000" width="2.540000" height="2.540000" rx="0.000000" />
</g> 
</svg>
