<?xml version="1.0" standalone="no"?>
 <!DOCTYPE svg PUBLIC "-//W3C//DTD SVG 1.1//EN" 
 "http://www.w3.org/Graphics/SVG/1.1/DTD/svg11.dtd"> 
<svg
  xmlns:svg="http://www.w3.org/2000/svg"
  xmlns="http://www.w3.org/2000/svg"
  xmlns:xlink="http://www.w3.org/1999/xlink"
  version="1.1"
  width="49.9872mm" height="79.9846mm" viewBox="0.0000 0.0000 49.9872 79.9846">
<title>SVG Image created as Graphical Drawings-Fullbridge.svg date 2025/02/06 13:37:17 </title>
  <desc>Image generated by Eeschema-SVG </desc>
<g style="fill:#000000; fill-opacity:1.0000;stroke:#000000; stroke-opacity:1.0000;
stroke-linecap:round; stroke-linejoin:round;"
 transform="translate(0 0) scale(1 1)">
</g>
<g style="fill:#848484; fill-opacity:0.3500; stroke:none;">
<rect x="8.890000" y="1.270000" width="25.400000" height="77.470000" rx="0.000000" />
</g>
<g style="fill:#FFFFFF; fill-opacity:1.0000; stroke:none;">
<rect x="33.020000" y="19.050000" width="2.540000" height="2.540000" rx="0.000000" />
</g>
<g style="fill:#FFFFFF; fill-opacity:1.0000; stroke:none;">
<rect x="33.020000" y="57.150000" width="2.540000" height="2.540000" rx="0.000000" />
<path style="fill:none; 
stroke:#000000; stroke-width:0.3810; stroke-opacity:1; 
stroke-linecap:round; stroke-linejoin:round;fill:none"
d="M 26.6700,72.3900
26.6700,73.6600
27.9400,73.6600
26.6700,74.9300
25.4000,73.6600
26.6700,73.6600
" /> 
</g>
<g style="fill:none; 
stroke:#000000; stroke-width:0.3175; stroke-opacity:1; 
stroke-linecap:round; stroke-linejoin:round;">
<text x="26.6700" y="76.8350"
textLength="4.5691" font-size="1.6933" lengthAdjust="spacingAndGlyphs"
text-anchor="middle" opacity="0" stroke-opacity="0">GND</text>
<g class="stroked-text"><desc>GND</desc>
<path d="M25.7024 75.5614
L25.5814 75.5009
" />
<path d="M25.5814 75.5009
L25.4000 75.5009
" />
<path d="M25.4000 75.5009
L25.2186 75.5614
" />
<path d="M25.2186 75.5614
L25.0976 75.6824
" />
<path d="M25.0976 75.6824
L25.0371 75.8033
" />
<path d="M25.0371 75.8033
L24.9767 76.0452
" />
<path d="M24.9767 76.0452
L24.9767 76.2266
" />
<path d="M24.9767 76.2266
L25.0371 76.4685
" />
<path d="M25.0371 76.4685
L25.0976 76.5895
" />
<path d="M25.0976 76.5895
L25.2186 76.7105
" />
<path d="M25.2186 76.7105
L25.4000 76.7709
" />
<path d="M25.4000 76.7709
L25.5209 76.7709
" />
<path d="M25.5209 76.7709
L25.7024 76.7105
" />
<path d="M25.7024 76.7105
L25.7628 76.6500
" />
<path d="M25.7628 76.6500
L25.7628 76.2266
" />
<path d="M25.7628 76.2266
L25.5209 76.2266
" />
<path d="M26.3071 76.7709
L26.3071 75.5009
" />
<path d="M26.3071 75.5009
L27.0328 76.7709
" />
<path d="M27.0328 76.7709
L27.0328 75.5009
" />
<path d="M27.6376 76.7709
L27.6376 75.5009
" />
<path d="M27.6376 75.5009
L27.9400 75.5009
" />
<path d="M27.9400 75.5009
L28.1214 75.5614
" />
<path d="M28.1214 75.5614
L28.2424 75.6824
" />
<path d="M28.2424 75.6824
L28.3029 75.8033
" />
<path d="M28.3029 75.8033
L28.3633 76.0452
" />
<path d="M28.3633 76.0452
L28.3633 76.2266
" />
<path d="M28.3633 76.2266
L28.3029 76.4685
" />
<path d="M28.3029 76.4685
L28.2424 76.5895
" />
<path d="M28.2424 76.5895
L28.1214 76.7105
" />
<path d="M28.1214 76.7105
L27.9400 76.7709
" />
<path d="M27.9400 76.7709
L27.6376 76.7709
" />
</g><path style="fill:none; 
stroke:#000000; stroke-width:0.2540; stroke-opacity:1; 
stroke-linecap:round; stroke-linejoin:round;fill:none"
d="M 24.3840,64.1350
24.3840,67.9450
" /> 
<path style="fill:none; 
stroke:#000000; stroke-width:0.3810; stroke-opacity:1; 
stroke-linecap:round; stroke-linejoin:round;fill:none"
d="M 24.3840,66.0400
21.5900,66.0400
" /> 
<path style="fill:none; 
stroke:#000000; stroke-width:0.2540; stroke-opacity:1; 
stroke-linecap:round; stroke-linejoin:round;fill:none"
d="M 24.8920,63.7540
24.8920,64.7700
" /> 
<path style="fill:none; 
stroke:#000000; stroke-width:0.2540; stroke-opacity:1; 
stroke-linecap:round; stroke-linejoin:round;fill:none"
d="M 24.8920,65.5320
24.8920,66.5480
" /> 
<path style="fill:none; 
stroke:#000000; stroke-width:0.2540; stroke-opacity:1; 
stroke-linecap:round; stroke-linejoin:round;fill:none"
d="M 24.8920,67.3100
24.8920,68.3260
" /> 
<path style="fill:none; 
stroke:#000000; stroke-width:0.2500; stroke-opacity:1; 
stroke-linecap:round; stroke-linejoin:round;fill:none"
d="M 24.8920,67.8180
27.4320,67.8180
27.4320,64.2620
24.8920,64.2620
" /> 
<path style="fill:#000000; fill-opacity:1.0000; 
stroke:#000000; stroke-width:0.3810; stroke-opacity:1; 
stroke-linecap:round; stroke-linejoin:round;fill-rule:evenodd;"
d="M 25.1460,66.0400
26.1620,65.6590
26.1620,66.4210
Z" /> 
</g>
<g style="fill:none; 
stroke:#000000; stroke-width:0.2540; stroke-opacity:1; 
stroke-linecap:round; stroke-linejoin:round;">
<circle cx="25.7810" cy="66.0400" r="2.7940" /> 
<path style="fill:none; 
stroke:#000000; stroke-width:0.3810; stroke-opacity:1; 
stroke-linecap:round; stroke-linejoin:round;fill:none"
d="M 26.6700,63.5000
26.6700,64.2620
" /> 
</g>
<g style="fill:#000000; fill-opacity:1.0000; 
stroke:#000000; stroke-width:0.3810; stroke-opacity:1; 
stroke-linecap:round; stroke-linejoin:round;">
<circle cx="26.6700" cy="64.2620" r="0.2540" /> 
<circle cx="26.6700" cy="67.8180" r="0.2540" /> 
<path style="fill:none; 
stroke:#000000; stroke-width:0.3810; stroke-opacity:1; 
stroke-linecap:round; stroke-linejoin:round;fill:none"
d="M 26.6700,68.5800
26.6700,66.0400
24.8920,66.0400
" /> 
<path style="fill:none; 
stroke:#000000; stroke-width:0.2500; stroke-opacity:1; 
stroke-linecap:round; stroke-linejoin:round;fill:none"
d="M 26.6700,69.8500
21.5900,69.8500
21.5900,66.0400
" /> 
<path style="fill:none; 
stroke:#000000; stroke-width:0.3810; stroke-opacity:1; 
stroke-linecap:round; stroke-linejoin:round;fill:none"
d="M 26.6700,69.8500
26.6700,68.5800
" /> 
<path style="fill:none; 
stroke:#000000; stroke-width:0.1524; stroke-opacity:1; 
stroke-linecap:round; stroke-linejoin:round;fill:none"
d="M 26.9240,65.5320
27.9400,65.5320
" /> 
<path style="fill:none; 
stroke:#000000; stroke-width:0.1524; stroke-opacity:1; 
stroke-linecap:round; stroke-linejoin:round;fill:none"
d="M 22.3520,70.3580
22.4790,70.2310
22.4790,69.4690
22.6060,69.3420
" /> 
<path style="fill:#000000; fill-opacity:1.0000; 
stroke:#000000; stroke-width:0.2000; stroke-opacity:1; 
stroke-linecap:round; stroke-linejoin:round;fill-rule:evenodd;"
d="M 22.4790,69.8500
23.1140,70.2310
23.1140,69.4690
Z" /> 
<path style="fill:#000000; fill-opacity:1.0000; 
stroke:#000000; stroke-width:0.2000; stroke-opacity:1; 
stroke-linecap:round; stroke-linejoin:round;fill-rule:evenodd;"
d="M 24.5110,69.8500
23.8760,69.4690
23.8760,70.2310
Z" /> 
<path style="fill:none; 
stroke:#000000; stroke-width:0.1524; stroke-opacity:1; 
stroke-linecap:round; stroke-linejoin:round;fill:none"
d="M 24.6380,69.3420
24.5110,69.4690
24.5110,70.2310
24.3840,70.3580
" /> 
<path style="fill:#000000; fill-opacity:1.0000; 
stroke:#000000; stroke-width:0.2000; stroke-opacity:1; 
stroke-linecap:round; stroke-linejoin:round;fill-rule:evenodd;"
d="M 27.4320,65.6590
27.0510,66.2940
27.8130,66.2940
Z" /> 
</g>
<g style="fill:none; 
stroke:#000000; stroke-width:0.3810; stroke-opacity:1; 
stroke-linecap:round; stroke-linejoin:round;">
<path d="M21.5900 66.0400
L19.0500 66.0400
" />
<path d="M26.6700 63.5000
L26.6700 60.9600
" />
<path d="M26.6700 69.8500
L26.6700 72.3900
" />
<path style="fill:none; 
stroke:#000000; stroke-width:0.3810; stroke-opacity:1; 
stroke-linecap:round; stroke-linejoin:round;fill:none"
d="M 26.6700,45.7200
26.6700,43.1800
" /> 
<path style="fill:none; 
stroke:#000000; stroke-width:0.3810; stroke-opacity:1; 
stroke-linecap:round; stroke-linejoin:round;fill:none"
d="M 27.9400,43.1800
25.4000,43.1800
" /> 
</g>
<g style="fill:none; 
stroke:#000000; stroke-width:0.3175; stroke-opacity:1; 
stroke-linecap:round; stroke-linejoin:round;">
<text x="26.6700" y="42.5450"
textLength="10.3143" font-size="1.6933" lengthAdjust="spacingAndGlyphs"
text-anchor="middle" opacity="0" stroke-opacity="0">ACTU PWR</text>
<g class="stroked-text"><desc>ACTU PWR</desc>
<path d="M22.1041 42.1181
L22.7088 42.1181
" />
<path d="M21.9831 42.4809
L22.4064 41.2109
" />
<path d="M22.4064 41.2109
L22.8298 42.4809
" />
<path d="M23.9788 42.3600
L23.9184 42.4205
" />
<path d="M23.9184 42.4205
L23.7369 42.4809
" />
<path d="M23.7369 42.4809
L23.6160 42.4809
" />
<path d="M23.6160 42.4809
L23.4346 42.4205
" />
<path d="M23.4346 42.4205
L23.3136 42.2995
" />
<path d="M23.3136 42.2995
L23.2531 42.1785
" />
<path d="M23.2531 42.1785
L23.1927 41.9366
" />
<path d="M23.1927 41.9366
L23.1927 41.7552
" />
<path d="M23.1927 41.7552
L23.2531 41.5133
" />
<path d="M23.2531 41.5133
L23.3136 41.3924
" />
<path d="M23.3136 41.3924
L23.4346 41.2714
" />
<path d="M23.4346 41.2714
L23.6160 41.2109
" />
<path d="M23.6160 41.2109
L23.7369 41.2109
" />
<path d="M23.7369 41.2109
L23.9184 41.2714
" />
<path d="M23.9184 41.2714
L23.9788 41.3319
" />
<path d="M24.3417 41.2109
L25.0674 41.2109
" />
<path d="M24.7046 42.4809
L24.7046 41.2109
" />
<path d="M25.4907 41.2109
L25.4907 42.2390
" />
<path d="M25.4907 42.2390
L25.5512 42.3600
" />
<path d="M25.5512 42.3600
L25.6117 42.4205
" />
<path d="M25.6117 42.4205
L25.7326 42.4809
" />
<path d="M25.7326 42.4809
L25.9745 42.4809
" />
<path d="M25.9745 42.4809
L26.0955 42.4205
" />
<path d="M26.0955 42.4205
L26.1560 42.3600
" />
<path d="M26.1560 42.3600
L26.2164 42.2390
" />
<path d="M26.2164 42.2390
L26.2164 41.2109
" />
<path d="M27.7888 42.4809
L27.7888 41.2109
" />
<path d="M27.7888 41.2109
L28.2726 41.2109
" />
<path d="M28.2726 41.2109
L28.3936 41.2714
" />
<path d="M28.3936 41.2714
L28.4541 41.3319
" />
<path d="M28.4541 41.3319
L28.5145 41.4528
" />
<path d="M28.5145 41.4528
L28.5145 41.6343
" />
<path d="M28.5145 41.6343
L28.4541 41.7552
" />
<path d="M28.4541 41.7552
L28.3936 41.8157
" />
<path d="M28.3936 41.8157
L28.2726 41.8762
" />
<path d="M28.2726 41.8762
L27.7888 41.8762
" />
<path d="M28.9379 41.2109
L29.2403 42.4809
" />
<path d="M29.2403 42.4809
L29.4822 41.5738
" />
<path d="M29.4822 41.5738
L29.7241 42.4809
" />
<path d="M29.7241 42.4809
L30.0265 41.2109
" />
<path d="M31.2359 42.4809
L30.8126 41.8762
" />
<path d="M30.5102 42.4809
L30.5102 41.2109
" />
<path d="M30.5102 41.2109
L30.9940 41.2109
" />
<path d="M30.9940 41.2109
L31.1150 41.2714
" />
<path d="M31.1150 41.2714
L31.1755 41.3319
" />
<path d="M31.1755 41.3319
L31.2359 41.4528
" />
<path d="M31.2359 41.4528
L31.2359 41.6343
" />
<path d="M31.2359 41.6343
L31.1755 41.7552
" />
<path d="M31.1755 41.7552
L31.1150 41.8157
" />
<path d="M31.1150 41.8157
L30.9940 41.8762
" />
<path d="M30.9940 41.8762
L30.5102 41.8762
" />
</g><path style="fill:none; 
stroke:#000000; stroke-width:0.3810; stroke-opacity:1; 
stroke-linecap:round; stroke-linejoin:round;fill:none"
d="M 26.6700,34.2900
26.6700,35.5600
27.9400,35.5600
26.6700,36.8300
25.4000,35.5600
26.6700,35.5600
" /> 
</g>
<g style="fill:none; 
stroke:#000000; stroke-width:0.3175; stroke-opacity:1; 
stroke-linecap:round; stroke-linejoin:round;">
<text x="26.6700" y="38.7350"
textLength="4.5691" font-size="1.6933" lengthAdjust="spacingAndGlyphs"
text-anchor="middle" opacity="0" stroke-opacity="0">GND</text>
<g class="stroked-text"><desc>GND</desc>
<path d="M25.7024 37.4614
L25.5814 37.4009
" />
<path d="M25.5814 37.4009
L25.4000 37.4009
" />
<path d="M25.4000 37.4009
L25.2186 37.4614
" />
<path d="M25.2186 37.4614
L25.0976 37.5824
" />
<path d="M25.0976 37.5824
L25.0371 37.7033
" />
<path d="M25.0371 37.7033
L24.9767 37.9452
" />
<path d="M24.9767 37.9452
L24.9767 38.1266
" />
<path d="M24.9767 38.1266
L25.0371 38.3685
" />
<path d="M25.0371 38.3685
L25.0976 38.4895
" />
<path d="M25.0976 38.4895
L25.2186 38.6105
" />
<path d="M25.2186 38.6105
L25.4000 38.6709
" />
<path d="M25.4000 38.6709
L25.5209 38.6709
" />
<path d="M25.5209 38.6709
L25.7024 38.6105
" />
<path d="M25.7024 38.6105
L25.7628 38.5500
" />
<path d="M25.7628 38.5500
L25.7628 38.1266
" />
<path d="M25.7628 38.1266
L25.5209 38.1266
" />
<path d="M26.3071 38.6709
L26.3071 37.4009
" />
<path d="M26.3071 37.4009
L27.0328 38.6709
" />
<path d="M27.0328 38.6709
L27.0328 37.4009
" />
<path d="M27.6376 38.6709
L27.6376 37.4009
" />
<path d="M27.6376 37.4009
L27.9400 37.4009
" />
<path d="M27.9400 37.4009
L28.1214 37.4614
" />
<path d="M28.1214 37.4614
L28.2424 37.5824
" />
<path d="M28.2424 37.5824
L28.3029 37.7033
" />
<path d="M28.3029 37.7033
L28.3633 37.9452
" />
<path d="M28.3633 37.9452
L28.3633 38.1266
" />
<path d="M28.3633 38.1266
L28.3029 38.3685
" />
<path d="M28.3029 38.3685
L28.2424 38.4895
" />
<path d="M28.2424 38.4895
L28.1214 38.6105
" />
<path d="M28.1214 38.6105
L27.9400 38.6709
" />
<path d="M27.9400 38.6709
L27.6376 38.6709
" />
</g><path style="fill:none; 
stroke:#000000; stroke-width:0.2540; stroke-opacity:1; 
stroke-linecap:round; stroke-linejoin:round;fill:none"
d="M 24.3840,26.0350
24.3840,29.8450
" /> 
<path style="fill:none; 
stroke:#000000; stroke-width:0.3810; stroke-opacity:1; 
stroke-linecap:round; stroke-linejoin:round;fill:none"
d="M 24.3840,27.9400
21.5900,27.9400
" /> 
<path style="fill:none; 
stroke:#000000; stroke-width:0.2540; stroke-opacity:1; 
stroke-linecap:round; stroke-linejoin:round;fill:none"
d="M 24.8920,25.6540
24.8920,26.6700
" /> 
<path style="fill:none; 
stroke:#000000; stroke-width:0.2540; stroke-opacity:1; 
stroke-linecap:round; stroke-linejoin:round;fill:none"
d="M 24.8920,27.4320
24.8920,28.4480
" /> 
<path style="fill:none; 
stroke:#000000; stroke-width:0.2540; stroke-opacity:1; 
stroke-linecap:round; stroke-linejoin:round;fill:none"
d="M 24.8920,29.2100
24.8920,30.2260
" /> 
<path style="fill:none; 
stroke:#000000; stroke-width:0.2500; stroke-opacity:1; 
stroke-linecap:round; stroke-linejoin:round;fill:none"
d="M 24.8920,29.7180
27.4320,29.7180
27.4320,26.1620
24.8920,26.1620
" /> 
<path style="fill:#000000; fill-opacity:1.0000; 
stroke:#000000; stroke-width:0.3810; stroke-opacity:1; 
stroke-linecap:round; stroke-linejoin:round;fill-rule:evenodd;"
d="M 25.1460,27.9400
26.1620,27.5590
26.1620,28.3210
Z" /> 
</g>
<g style="fill:none; 
stroke:#000000; stroke-width:0.2540; stroke-opacity:1; 
stroke-linecap:round; stroke-linejoin:round;">
<circle cx="25.7810" cy="27.9400" r="2.7940" /> 
<path style="fill:none; 
stroke:#000000; stroke-width:0.3810; stroke-opacity:1; 
stroke-linecap:round; stroke-linejoin:round;fill:none"
d="M 26.6700,25.4000
26.6700,26.1620
" /> 
</g>
<g style="fill:#000000; fill-opacity:1.0000; 
stroke:#000000; stroke-width:0.3810; stroke-opacity:1; 
stroke-linecap:round; stroke-linejoin:round;">
<circle cx="26.6700" cy="26.1620" r="0.2540" /> 
<circle cx="26.6700" cy="29.7180" r="0.2540" /> 
<path style="fill:none; 
stroke:#000000; stroke-width:0.3810; stroke-opacity:1; 
stroke-linecap:round; stroke-linejoin:round;fill:none"
d="M 26.6700,30.4800
26.6700,27.9400
24.8920,27.9400
" /> 
<path style="fill:none; 
stroke:#000000; stroke-width:0.2500; stroke-opacity:1; 
stroke-linecap:round; stroke-linejoin:round;fill:none"
d="M 26.6700,31.7500
21.5900,31.7500
21.5900,27.9400
" /> 
<path style="fill:none; 
stroke:#000000; stroke-width:0.3810; stroke-opacity:1; 
stroke-linecap:round; stroke-linejoin:round;fill:none"
d="M 26.6700,31.7500
26.6700,30.4800
" /> 
<path style="fill:none; 
stroke:#000000; stroke-width:0.1524; stroke-opacity:1; 
stroke-linecap:round; stroke-linejoin:round;fill:none"
d="M 26.9240,27.4320
27.9400,27.4320
" /> 
<path style="fill:none; 
stroke:#000000; stroke-width:0.1524; stroke-opacity:1; 
stroke-linecap:round; stroke-linejoin:round;fill:none"
d="M 22.3520,32.2580
22.4790,32.1310
22.4790,31.3690
22.6060,31.2420
" /> 
<path style="fill:#000000; fill-opacity:1.0000; 
stroke:#000000; stroke-width:0.2000; stroke-opacity:1; 
stroke-linecap:round; stroke-linejoin:round;fill-rule:evenodd;"
d="M 22.4790,31.7500
23.1140,32.1310
23.1140,31.3690
Z" /> 
<path style="fill:#000000; fill-opacity:1.0000; 
stroke:#000000; stroke-width:0.2000; stroke-opacity:1; 
stroke-linecap:round; stroke-linejoin:round;fill-rule:evenodd;"
d="M 24.5110,31.7500
23.8760,31.3690
23.8760,32.1310
Z" /> 
<path style="fill:none; 
stroke:#000000; stroke-width:0.1524; stroke-opacity:1; 
stroke-linecap:round; stroke-linejoin:round;fill:none"
d="M 24.6380,31.2420
24.5110,31.3690
24.5110,32.1310
24.3840,32.2580
" /> 
<path style="fill:#000000; fill-opacity:1.0000; 
stroke:#000000; stroke-width:0.2000; stroke-opacity:1; 
stroke-linecap:round; stroke-linejoin:round;fill-rule:evenodd;"
d="M 27.4320,27.5590
27.0510,28.1940
27.8130,28.1940
Z" /> 
</g>
<g style="fill:none; 
stroke:#000000; stroke-width:0.3810; stroke-opacity:1; 
stroke-linecap:round; stroke-linejoin:round;">
<path d="M21.5900 27.9400
L19.0500 27.9400
" />
<path d="M26.6700 25.4000
L26.6700 22.8600
" />
<path d="M26.6700 31.7500
L26.6700 34.2900
" />
<path style="fill:none; 
stroke:#000000; stroke-width:0.2540; stroke-opacity:1; 
stroke-linecap:round; stroke-linejoin:round;fill:none"
d="M 24.3840,48.8950
24.3840,52.7050
" /> 
<path style="fill:none; 
stroke:#000000; stroke-width:0.3810; stroke-opacity:1; 
stroke-linecap:round; stroke-linejoin:round;fill:none"
d="M 24.3840,50.8000
21.5900,50.8000
" /> 
<path style="fill:none; 
stroke:#000000; stroke-width:0.2540; stroke-opacity:1; 
stroke-linecap:round; stroke-linejoin:round;fill:none"
d="M 24.8920,48.5140
24.8920,49.5300
" /> 
<path style="fill:none; 
stroke:#000000; stroke-width:0.2540; stroke-opacity:1; 
stroke-linecap:round; stroke-linejoin:round;fill:none"
d="M 24.8920,50.2920
24.8920,51.3080
" /> 
<path style="fill:none; 
stroke:#000000; stroke-width:0.2540; stroke-opacity:1; 
stroke-linecap:round; stroke-linejoin:round;fill:none"
d="M 24.8920,52.0700
24.8920,53.0860
" /> 
<path style="fill:none; 
stroke:#000000; stroke-width:0.2500; stroke-opacity:1; 
stroke-linecap:round; stroke-linejoin:round;fill:none"
d="M 24.8920,52.5780
27.4320,52.5780
27.4320,49.0220
24.8920,49.0220
" /> 
<path style="fill:#000000; fill-opacity:1.0000; 
stroke:#000000; stroke-width:0.3810; stroke-opacity:1; 
stroke-linecap:round; stroke-linejoin:round;fill-rule:evenodd;"
d="M 25.1460,50.8000
26.1620,50.4190
26.1620,51.1810
Z" /> 
</g>
<g style="fill:none; 
stroke:#000000; stroke-width:0.2540; stroke-opacity:1; 
stroke-linecap:round; stroke-linejoin:round;">
<circle cx="25.7810" cy="50.8000" r="2.7940" /> 
<path style="fill:none; 
stroke:#000000; stroke-width:0.3810; stroke-opacity:1; 
stroke-linecap:round; stroke-linejoin:round;fill:none"
d="M 26.6700,48.2600
26.6700,49.0220
" /> 
</g>
<g style="fill:#000000; fill-opacity:1.0000; 
stroke:#000000; stroke-width:0.3810; stroke-opacity:1; 
stroke-linecap:round; stroke-linejoin:round;">
<circle cx="26.6700" cy="49.0220" r="0.2540" /> 
<circle cx="26.6700" cy="52.5780" r="0.2540" /> 
<path style="fill:none; 
stroke:#000000; stroke-width:0.3810; stroke-opacity:1; 
stroke-linecap:round; stroke-linejoin:round;fill:none"
d="M 26.6700,53.3400
26.6700,50.8000
24.8920,50.8000
" /> 
<path style="fill:none; 
stroke:#000000; stroke-width:0.2500; stroke-opacity:1; 
stroke-linecap:round; stroke-linejoin:round;fill:none"
d="M 26.6700,54.6100
21.5900,54.6100
21.5900,50.8000
" /> 
<path style="fill:none; 
stroke:#000000; stroke-width:0.3810; stroke-opacity:1; 
stroke-linecap:round; stroke-linejoin:round;fill:none"
d="M 26.6700,54.6100
26.6700,53.3400
" /> 
<path style="fill:none; 
stroke:#000000; stroke-width:0.1524; stroke-opacity:1; 
stroke-linecap:round; stroke-linejoin:round;fill:none"
d="M 26.9240,50.2920
27.9400,50.2920
" /> 
<path style="fill:none; 
stroke:#000000; stroke-width:0.1524; stroke-opacity:1; 
stroke-linecap:round; stroke-linejoin:round;fill:none"
d="M 22.3520,55.1180
22.4790,54.9910
22.4790,54.2290
22.6060,54.1020
" /> 
<path style="fill:#000000; fill-opacity:1.0000; 
stroke:#000000; stroke-width:0.2000; stroke-opacity:1; 
stroke-linecap:round; stroke-linejoin:round;fill-rule:evenodd;"
d="M 22.4790,54.6100
23.1140,54.9910
23.1140,54.2290
Z" /> 
<path style="fill:#000000; fill-opacity:1.0000; 
stroke:#000000; stroke-width:0.2000; stroke-opacity:1; 
stroke-linecap:round; stroke-linejoin:round;fill-rule:evenodd;"
d="M 24.5110,54.6100
23.8760,54.2290
23.8760,54.9910
Z" /> 
<path style="fill:none; 
stroke:#000000; stroke-width:0.1524; stroke-opacity:1; 
stroke-linecap:round; stroke-linejoin:round;fill:none"
d="M 24.6380,54.1020
24.5110,54.2290
24.5110,54.9910
24.3840,55.1180
" /> 
<path style="fill:#000000; fill-opacity:1.0000; 
stroke:#000000; stroke-width:0.2000; stroke-opacity:1; 
stroke-linecap:round; stroke-linejoin:round;fill-rule:evenodd;"
d="M 27.4320,50.4190
27.0510,51.0540
27.8130,51.0540
Z" /> 
</g>
<g style="fill:none; 
stroke:#000000; stroke-width:0.3810; stroke-opacity:1; 
stroke-linecap:round; stroke-linejoin:round;">
<path d="M21.5900 50.8000
L19.0500 50.8000
" />
<path d="M26.6700 48.2600
L26.6700 45.7200
" />
<path d="M26.6700 54.6100
L26.6700 57.1500
" />
<path style="fill:none; 
stroke:#000000; stroke-width:0.3810; stroke-opacity:1; 
stroke-linecap:round; stroke-linejoin:round;fill:none"
d="M 41.9100,35.5600
41.9100,37.4650
" /> 
<path style="fill:none; 
stroke:#000000; stroke-width:0.3810; stroke-opacity:1; 
stroke-linecap:round; stroke-linejoin:round;fill:none"
d="M 41.9100,41.2750
41.9100,43.1800
" /> 
<circle cx="41.9100" cy="39.3700" r="1.9050" /> 
<text x="41.9100" y="40.4700"
textLength="3.2173" font-size="2.9333" lengthAdjust="spacingAndGlyphs"
text-anchor="middle" opacity="0" stroke-opacity="0">M</text>
<g class="stroked-text"><desc>M</desc>
<path d="M41.1767 40.3678
L41.1767 38.1678
" />
<path d="M41.1767 38.1678
L41.9100 39.7392
" />
<path d="M41.9100 39.7392
L42.6433 38.1678
" />
<path d="M42.6433 38.1678
L42.6433 40.3678
" />
</g><path style="fill:none; 
stroke:#000000; stroke-width:0.3810; stroke-opacity:1; 
stroke-linecap:round; stroke-linejoin:round;fill:none"
d="M 26.6700,7.6200
26.6700,5.0800
" /> 
<path style="fill:none; 
stroke:#000000; stroke-width:0.3810; stroke-opacity:1; 
stroke-linecap:round; stroke-linejoin:round;fill:none"
d="M 27.9400,5.0800
25.4000,5.0800
" /> 
</g>
<g style="fill:none; 
stroke:#000000; stroke-width:0.3175; stroke-opacity:1; 
stroke-linecap:round; stroke-linejoin:round;">
<text x="26.6700" y="4.4450"
textLength="10.3143" font-size="1.6933" lengthAdjust="spacingAndGlyphs"
text-anchor="middle" opacity="0" stroke-opacity="0">ACTU PWR</text>
<g class="stroked-text"><desc>ACTU PWR</desc>
<path d="M22.1041 4.0181
L22.7088 4.0181
" />
<path d="M21.9831 4.3809
L22.4064 3.1109
" />
<path d="M22.4064 3.1109
L22.8298 4.3809
" />
<path d="M23.9788 4.2600
L23.9184 4.3205
" />
<path d="M23.9184 4.3205
L23.7369 4.3809
" />
<path d="M23.7369 4.3809
L23.6160 4.3809
" />
<path d="M23.6160 4.3809
L23.4346 4.3205
" />
<path d="M23.4346 4.3205
L23.3136 4.1995
" />
<path d="M23.3136 4.1995
L23.2531 4.0785
" />
<path d="M23.2531 4.0785
L23.1927 3.8366
" />
<path d="M23.1927 3.8366
L23.1927 3.6552
" />
<path d="M23.1927 3.6552
L23.2531 3.4133
" />
<path d="M23.2531 3.4133
L23.3136 3.2924
" />
<path d="M23.3136 3.2924
L23.4346 3.1714
" />
<path d="M23.4346 3.1714
L23.6160 3.1109
" />
<path d="M23.6160 3.1109
L23.7369 3.1109
" />
<path d="M23.7369 3.1109
L23.9184 3.1714
" />
<path d="M23.9184 3.1714
L23.9788 3.2319
" />
<path d="M24.3417 3.1109
L25.0674 3.1109
" />
<path d="M24.7046 4.3809
L24.7046 3.1109
" />
<path d="M25.4907 3.1109
L25.4907 4.1390
" />
<path d="M25.4907 4.1390
L25.5512 4.2600
" />
<path d="M25.5512 4.2600
L25.6117 4.3205
" />
<path d="M25.6117 4.3205
L25.7326 4.3809
" />
<path d="M25.7326 4.3809
L25.9745 4.3809
" />
<path d="M25.9745 4.3809
L26.0955 4.3205
" />
<path d="M26.0955 4.3205
L26.1560 4.2600
" />
<path d="M26.1560 4.2600
L26.2164 4.1390
" />
<path d="M26.2164 4.1390
L26.2164 3.1109
" />
<path d="M27.7888 4.3809
L27.7888 3.1109
" />
<path d="M27.7888 3.1109
L28.2726 3.1109
" />
<path d="M28.2726 3.1109
L28.3936 3.1714
" />
<path d="M28.3936 3.1714
L28.4541 3.2319
" />
<path d="M28.4541 3.2319
L28.5145 3.3528
" />
<path d="M28.5145 3.3528
L28.5145 3.5343
" />
<path d="M28.5145 3.5343
L28.4541 3.6552
" />
<path d="M28.4541 3.6552
L28.3936 3.7157
" />
<path d="M28.3936 3.7157
L28.2726 3.7762
" />
<path d="M28.2726 3.7762
L27.7888 3.7762
" />
<path d="M28.9379 3.1109
L29.2403 4.3809
" />
<path d="M29.2403 4.3809
L29.4822 3.4738
" />
<path d="M29.4822 3.4738
L29.7241 4.3809
" />
<path d="M29.7241 4.3809
L30.0265 3.1109
" />
<path d="M31.2359 4.3809
L30.8126 3.7762
" />
<path d="M30.5102 4.3809
L30.5102 3.1109
" />
<path d="M30.5102 3.1109
L30.9940 3.1109
" />
<path d="M30.9940 3.1109
L31.1150 3.1714
" />
<path d="M31.1150 3.1714
L31.1755 3.2319
" />
<path d="M31.1755 3.2319
L31.2359 3.3528
" />
<path d="M31.2359 3.3528
L31.2359 3.5343
" />
<path d="M31.2359 3.5343
L31.1755 3.6552
" />
<path d="M31.1755 3.6552
L31.1150 3.7157
" />
<path d="M31.1150 3.7157
L30.9940 3.7762
" />
<path d="M30.9940 3.7762
L30.5102 3.7762
" />
</g><path style="fill:none; 
stroke:#000000; stroke-width:0.2540; stroke-opacity:1; 
stroke-linecap:round; stroke-linejoin:round;fill:none"
d="M 24.3840,10.7950
24.3840,14.6050
" /> 
<path style="fill:none; 
stroke:#000000; stroke-width:0.3810; stroke-opacity:1; 
stroke-linecap:round; stroke-linejoin:round;fill:none"
d="M 24.3840,12.7000
21.5900,12.7000
" /> 
<path style="fill:none; 
stroke:#000000; stroke-width:0.2540; stroke-opacity:1; 
stroke-linecap:round; stroke-linejoin:round;fill:none"
d="M 24.8920,10.4140
24.8920,11.4300
" /> 
<path style="fill:none; 
stroke:#000000; stroke-width:0.2540; stroke-opacity:1; 
stroke-linecap:round; stroke-linejoin:round;fill:none"
d="M 24.8920,12.1920
24.8920,13.2080
" /> 
<path style="fill:none; 
stroke:#000000; stroke-width:0.2540; stroke-opacity:1; 
stroke-linecap:round; stroke-linejoin:round;fill:none"
d="M 24.8920,13.9700
24.8920,14.9860
" /> 
<path style="fill:none; 
stroke:#000000; stroke-width:0.2500; stroke-opacity:1; 
stroke-linecap:round; stroke-linejoin:round;fill:none"
d="M 24.8920,14.4780
27.4320,14.4780
27.4320,10.9220
24.8920,10.9220
" /> 
<path style="fill:#000000; fill-opacity:1.0000; 
stroke:#000000; stroke-width:0.3810; stroke-opacity:1; 
stroke-linecap:round; stroke-linejoin:round;fill-rule:evenodd;"
d="M 25.1460,12.7000
26.1620,12.3190
26.1620,13.0810
Z" /> 
</g>
<g style="fill:none; 
stroke:#000000; stroke-width:0.2540; stroke-opacity:1; 
stroke-linecap:round; stroke-linejoin:round;">
<circle cx="25.7810" cy="12.7000" r="2.7940" /> 
<path style="fill:none; 
stroke:#000000; stroke-width:0.3810; stroke-opacity:1; 
stroke-linecap:round; stroke-linejoin:round;fill:none"
d="M 26.6700,10.1600
26.6700,10.9220
" /> 
</g>
<g style="fill:#000000; fill-opacity:1.0000; 
stroke:#000000; stroke-width:0.3810; stroke-opacity:1; 
stroke-linecap:round; stroke-linejoin:round;">
<circle cx="26.6700" cy="10.9220" r="0.2540" /> 
<circle cx="26.6700" cy="14.4780" r="0.2540" /> 
<path style="fill:none; 
stroke:#000000; stroke-width:0.3810; stroke-opacity:1; 
stroke-linecap:round; stroke-linejoin:round;fill:none"
d="M 26.6700,15.2400
26.6700,12.7000
24.8920,12.7000
" /> 
<path style="fill:none; 
stroke:#000000; stroke-width:0.2500; stroke-opacity:1; 
stroke-linecap:round; stroke-linejoin:round;fill:none"
d="M 26.6700,16.5100
21.5900,16.5100
21.5900,12.7000
" /> 
<path style="fill:none; 
stroke:#000000; stroke-width:0.3810; stroke-opacity:1; 
stroke-linecap:round; stroke-linejoin:round;fill:none"
d="M 26.6700,16.5100
26.6700,15.2400
" /> 
<path style="fill:none; 
stroke:#000000; stroke-width:0.1524; stroke-opacity:1; 
stroke-linecap:round; stroke-linejoin:round;fill:none"
d="M 26.9240,12.1920
27.9400,12.1920
" /> 
<path style="fill:none; 
stroke:#000000; stroke-width:0.1524; stroke-opacity:1; 
stroke-linecap:round; stroke-linejoin:round;fill:none"
d="M 22.3520,17.0180
22.4790,16.8910
22.4790,16.1290
22.6060,16.0020
" /> 
<path style="fill:#000000; fill-opacity:1.0000; 
stroke:#000000; stroke-width:0.2000; stroke-opacity:1; 
stroke-linecap:round; stroke-linejoin:round;fill-rule:evenodd;"
d="M 22.4790,16.5100
23.1140,16.8910
23.1140,16.1290
Z" /> 
<path style="fill:#000000; fill-opacity:1.0000; 
stroke:#000000; stroke-width:0.2000; stroke-opacity:1; 
stroke-linecap:round; stroke-linejoin:round;fill-rule:evenodd;"
d="M 24.5110,16.5100
23.8760,16.1290
23.8760,16.8910
Z" /> 
<path style="fill:none; 
stroke:#000000; stroke-width:0.1524; stroke-opacity:1; 
stroke-linecap:round; stroke-linejoin:round;fill:none"
d="M 24.6380,16.0020
24.5110,16.1290
24.5110,16.8910
24.3840,17.0180
" /> 
<path style="fill:#000000; fill-opacity:1.0000; 
stroke:#000000; stroke-width:0.2000; stroke-opacity:1; 
stroke-linecap:round; stroke-linejoin:round;fill-rule:evenodd;"
d="M 27.4320,12.3190
27.0510,12.9540
27.8130,12.9540
Z" /> 
</g>
<g style="fill:none; 
stroke:#000000; stroke-width:0.3810; stroke-opacity:1; 
stroke-linecap:round; stroke-linejoin:round;">
<path d="M21.5900 12.7000
L19.0500 12.7000
" />
<path d="M26.6700 10.1600
L26.6700 7.6200
" />
<path d="M26.6700 16.5100
L26.6700 19.0500
" />
</g>
<g style="fill:none; 
stroke:#000000; stroke-width:0.3810; stroke-opacity:1; 
stroke-linecap:round; stroke-linejoin:round;stroke-dasharray:4.191000,1.524000,0.076200,1.524000,0.076200,1.524000;">
<path d="M41.9100 20.3200
L41.9100 35.5600
" />
</g>
<g style="fill:none; 
stroke:#000000; stroke-width:0.3810; stroke-opacity:1; 
stroke-linecap:round; stroke-linejoin:round;stroke-dasharray:4.191000,1.524000,0.076200,1.524000,0.076200,1.524000;">
<path d="M36.8300 20.3200
L41.9100 20.3200
" />
</g>
<g style="fill:none; 
stroke:#000000; stroke-width:0.3810; stroke-opacity:1; 
stroke-linecap:round; stroke-linejoin:round;">
<path d="M35.5600 20.3200
L36.8300 20.3200
" />
<path d="M26.6700 20.3200
L33.0200 20.3200
" />
</g>
<g style="fill:none; 
stroke:#000000; stroke-width:0.3810; stroke-opacity:1; 
stroke-linecap:round; stroke-linejoin:round;stroke-dasharray:4.191000,1.524000,0.076200,1.524000,0.076200,1.524000;">
<path d="M36.8300 58.4200
L41.9100 58.4200
" />
</g>
<g style="fill:none; 
stroke:#000000; stroke-width:0.3810; stroke-opacity:1; 
stroke-linecap:round; stroke-linejoin:round;">
<path d="M26.6700 58.4200
L33.0200 58.4200
" />
<path d="M26.6700 57.1500
L26.6700 58.4200
" />
<path d="M35.5600 58.4200
L36.8300 58.4200
" />
</g>
<g style="fill:none; 
stroke:#000000; stroke-width:0.3810; stroke-opacity:1; 
stroke-linecap:round; stroke-linejoin:round;stroke-dasharray:4.191000,1.524000,0.076200,1.524000,0.076200,1.524000;">
<path d="M41.9100 43.1800
L41.9100 58.4200
" />
</g>
<g style="fill:none; 
stroke:#000000; stroke-width:0.3810; stroke-opacity:1; 
stroke-linecap:round; stroke-linejoin:round;">
<path d="M26.6700 19.0500
L26.6700 20.3200
" />
<path d="M26.6700 58.4200
L26.6700 60.9600
" />
<path d="M26.6700 20.3200
L26.6700 22.8600
" />
</g>
<g style="fill:none; 
stroke:#000000; stroke-width:0.3175; stroke-opacity:1; 
stroke-linecap:round; stroke-linejoin:round;">
<text x="30.4800" y="63.1230"
textLength="7.2300" font-size="1.6933" lengthAdjust="spacingAndGlyphs"
text-anchor="middle" opacity="0" stroke-opacity="0">DD_L_x</text>
<g class="stroked-text"><desc>DD_L_x</desc>
<path d="M27.5166 63.0589
L27.5166 61.7889
" />
<path d="M27.5166 61.7889
L27.8190 61.7889
" />
<path d="M27.8190 61.7889
L28.0004 61.8494
" />
<path d="M28.0004 61.8494
L28.1214 61.9704
" />
<path d="M28.1214 61.9704
L28.1819 62.0913
" />
<path d="M28.1819 62.0913
L28.2423 62.3332
" />
<path d="M28.2423 62.3332
L28.2423 62.5146
" />
<path d="M28.2423 62.5146
L28.1819 62.7565
" />
<path d="M28.1819 62.7565
L28.1214 62.8775
" />
<path d="M28.1214 62.8775
L28.0004 62.9985
" />
<path d="M28.0004 62.9985
L27.8190 63.0589
" />
<path d="M27.8190 63.0589
L27.5166 63.0589
" />
<path d="M28.7866 63.0589
L28.7866 61.7889
" />
<path d="M28.7866 61.7889
L29.0890 61.7889
" />
<path d="M29.0890 61.7889
L29.2704 61.8494
" />
<path d="M29.2704 61.8494
L29.3914 61.9704
" />
<path d="M29.3914 61.9704
L29.4519 62.0913
" />
<path d="M29.4519 62.0913
L29.5123 62.3332
" />
<path d="M29.5123 62.3332
L29.5123 62.5146
" />
<path d="M29.5123 62.5146
L29.4519 62.7565
" />
<path d="M29.4519 62.7565
L29.3914 62.8775
" />
<path d="M29.3914 62.8775
L29.2704 62.9985
" />
<path d="M29.2704 62.9985
L29.0890 63.0589
" />
<path d="M29.0890 63.0589
L28.7866 63.0589
" />
<path d="M29.7543 63.1799
L30.7219 63.1799
" />
<path d="M31.6290 63.0589
L31.0242 63.0589
" />
<path d="M31.0242 63.0589
L31.0242 61.7889
" />
<path d="M31.7500 63.1799
L32.7176 63.1799
" />
<path d="M32.8990 63.0589
L33.5642 62.2123
" />
<path d="M32.8990 62.2123
L33.5642 63.0589
" />
</g></g>
<g style="fill:none; 
stroke:#000000; stroke-width:0.3175; stroke-opacity:1; 
stroke-linecap:round; stroke-linejoin:round;">
<text x="9.1440" y="75.5627"
textLength="8.5603" font-size="1.6933" lengthAdjust="spacingAndGlyphs"
text-anchor="start" opacity="0" stroke-opacity="0">Onboard</text>
<g class="stroked-text"><desc>Onboard</desc>
<path d="M9.8970 74.2286
L10.1389 74.2286
" />
<path d="M10.1389 74.2286
L10.2599 74.2891
" />
<path d="M10.2599 74.2891
L10.3808 74.4101
" />
<path d="M10.3808 74.4101
L10.4413 74.6520
" />
<path d="M10.4413 74.6520
L10.4413 75.0753
" />
<path d="M10.4413 75.0753
L10.3808 75.3172
" />
<path d="M10.3808 75.3172
L10.2599 75.4382
" />
<path d="M10.2599 75.4382
L10.1389 75.4986
" />
<path d="M10.1389 75.4986
L9.8970 75.4986
" />
<path d="M9.8970 75.4986
L9.7761 75.4382
" />
<path d="M9.7761 75.4382
L9.6551 75.3172
" />
<path d="M9.6551 75.3172
L9.5947 75.0753
" />
<path d="M9.5947 75.0753
L9.5947 74.6520
" />
<path d="M9.5947 74.6520
L9.6551 74.4101
" />
<path d="M9.6551 74.4101
L9.7761 74.2891
" />
<path d="M9.7761 74.2891
L9.8970 74.2286
" />
<path d="M10.9856 74.6520
L10.9856 75.4986
" />
<path d="M10.9856 74.7729
L11.0461 74.7124
" />
<path d="M11.0461 74.7124
L11.1671 74.6520
" />
<path d="M11.1671 74.6520
L11.3485 74.6520
" />
<path d="M11.3485 74.6520
L11.4694 74.7124
" />
<path d="M11.4694 74.7124
L11.5299 74.8334
" />
<path d="M11.5299 74.8334
L11.5299 75.4986
" />
<path d="M12.1346 75.4986
L12.1346 74.2286
" />
<path d="M12.1346 74.7124
L12.2556 74.6520
" />
<path d="M12.2556 74.6520
L12.4975 74.6520
" />
<path d="M12.4975 74.6520
L12.6184 74.7124
" />
<path d="M12.6184 74.7124
L12.6789 74.7729
" />
<path d="M12.6789 74.7729
L12.7394 74.8939
" />
<path d="M12.7394 74.8939
L12.7394 75.2567
" />
<path d="M12.7394 75.2567
L12.6789 75.3777
" />
<path d="M12.6789 75.3777
L12.6184 75.4382
" />
<path d="M12.6184 75.4382
L12.4975 75.4986
" />
<path d="M12.4975 75.4986
L12.2556 75.4986
" />
<path d="M12.2556 75.4986
L12.1346 75.4382
" />
<path d="M13.4651 75.4986
L13.3441 75.4382
" />
<path d="M13.3441 75.4382
L13.2836 75.3777
" />
<path d="M13.2836 75.3777
L13.2232 75.2567
" />
<path d="M13.2232 75.2567
L13.2232 74.8939
" />
<path d="M13.2232 74.8939
L13.2836 74.7729
" />
<path d="M13.2836 74.7729
L13.3441 74.7124
" />
<path d="M13.3441 74.7124
L13.4651 74.6520
" />
<path d="M13.4651 74.6520
L13.6465 74.6520
" />
<path d="M13.6465 74.6520
L13.7674 74.7124
" />
<path d="M13.7674 74.7124
L13.8279 74.7729
" />
<path d="M13.8279 74.7729
L13.8884 74.8939
" />
<path d="M13.8884 74.8939
L13.8884 75.2567
" />
<path d="M13.8884 75.2567
L13.8279 75.3777
" />
<path d="M13.8279 75.3777
L13.7674 75.4382
" />
<path d="M13.7674 75.4382
L13.6465 75.4986
" />
<path d="M13.6465 75.4986
L13.4651 75.4986
" />
<path d="M14.9769 75.4986
L14.9769 74.8334
" />
<path d="M14.9769 74.8334
L14.9164 74.7124
" />
<path d="M14.9164 74.7124
L14.7955 74.6520
" />
<path d="M14.7955 74.6520
L14.5536 74.6520
" />
<path d="M14.5536 74.6520
L14.4326 74.7124
" />
<path d="M14.9769 75.4382
L14.8560 75.4986
" />
<path d="M14.8560 75.4986
L14.5536 75.4986
" />
<path d="M14.5536 75.4986
L14.4326 75.4382
" />
<path d="M14.4326 75.4382
L14.3722 75.3172
" />
<path d="M14.3722 75.3172
L14.3722 75.1962
" />
<path d="M14.3722 75.1962
L14.4326 75.0753
" />
<path d="M14.4326 75.0753
L14.5536 75.0148
" />
<path d="M14.5536 75.0148
L14.8560 75.0148
" />
<path d="M14.8560 75.0148
L14.9769 74.9543
" />
<path d="M15.5816 75.4986
L15.5816 74.6520
" />
<path d="M15.5816 74.8939
L15.6421 74.7729
" />
<path d="M15.6421 74.7729
L15.7026 74.7124
" />
<path d="M15.7026 74.7124
L15.8235 74.6520
" />
<path d="M15.8235 74.6520
L15.9445 74.6520
" />
<path d="M16.9121 75.4986
L16.9121 74.2286
" />
<path d="M16.9121 75.4382
L16.7912 75.4986
" />
<path d="M16.7912 75.4986
L16.5493 75.4986
" />
<path d="M16.5493 75.4986
L16.4283 75.4382
" />
<path d="M16.4283 75.4382
L16.3678 75.3777
" />
<path d="M16.3678 75.3777
L16.3074 75.2567
" />
<path d="M16.3074 75.2567
L16.3074 74.8939
" />
<path d="M16.3074 74.8939
L16.3678 74.7729
" />
<path d="M16.3678 74.7729
L16.4283 74.7124
" />
<path d="M16.4283 74.7124
L16.5493 74.6520
" />
<path d="M16.5493 74.6520
L16.7912 74.6520
" />
<path d="M16.7912 74.6520
L16.9121 74.7124
" />
</g><text x="9.1440" y="77.6073"
textLength="12.6727" font-size="1.6933" lengthAdjust="spacingAndGlyphs"
text-anchor="start" opacity="0" stroke-opacity="0">AutomatePro</text>
<g class="stroked-text"><desc>AutomatePro</desc>
<path d="M9.5947 77.1804
L10.1994 77.1804
" />
<path d="M9.4737 77.5432
L9.8970 76.2732
" />
<path d="M9.8970 76.2732
L10.3204 77.5432
" />
<path d="M11.2880 76.6966
L11.2880 77.5432
" />
<path d="M10.7437 76.6966
L10.7437 77.3618
" />
<path d="M10.7437 77.3618
L10.8042 77.4828
" />
<path d="M10.8042 77.4828
L10.9252 77.5432
" />
<path d="M10.9252 77.5432
L11.1066 77.5432
" />
<path d="M11.1066 77.5432
L11.2275 77.4828
" />
<path d="M11.2275 77.4828
L11.2880 77.4223
" />
<path d="M11.7113 76.6966
L12.1951 76.6966
" />
<path d="M11.8927 76.2732
L11.8927 77.3618
" />
<path d="M11.8927 77.3618
L11.9532 77.4828
" />
<path d="M11.9532 77.4828
L12.0742 77.5432
" />
<path d="M12.0742 77.5432
L12.1951 77.5432
" />
<path d="M12.7999 77.5432
L12.6789 77.4828
" />
<path d="M12.6789 77.4828
L12.6184 77.4223
" />
<path d="M12.6184 77.4223
L12.5580 77.3013
" />
<path d="M12.5580 77.3013
L12.5580 76.9385
" />
<path d="M12.5580 76.9385
L12.6184 76.8175
" />
<path d="M12.6184 76.8175
L12.6789 76.7570
" />
<path d="M12.6789 76.7570
L12.7999 76.6966
" />
<path d="M12.7999 76.6966
L12.9813 76.6966
" />
<path d="M12.9813 76.6966
L13.1022 76.7570
" />
<path d="M13.1022 76.7570
L13.1627 76.8175
" />
<path d="M13.1627 76.8175
L13.2232 76.9385
" />
<path d="M13.2232 76.9385
L13.2232 77.3013
" />
<path d="M13.2232 77.3013
L13.1627 77.4223
" />
<path d="M13.1627 77.4223
L13.1022 77.4828
" />
<path d="M13.1022 77.4828
L12.9813 77.5432
" />
<path d="M12.9813 77.5432
L12.7999 77.5432
" />
<path d="M13.7674 77.5432
L13.7674 76.6966
" />
<path d="M13.7674 76.8175
L13.8279 76.7570
" />
<path d="M13.8279 76.7570
L13.9489 76.6966
" />
<path d="M13.9489 76.6966
L14.1303 76.6966
" />
<path d="M14.1303 76.6966
L14.2512 76.7570
" />
<path d="M14.2512 76.7570
L14.3117 76.8780
" />
<path d="M14.3117 76.8780
L14.3117 77.5432
" />
<path d="M14.3117 76.8780
L14.3722 76.7570
" />
<path d="M14.3722 76.7570
L14.4931 76.6966
" />
<path d="M14.4931 76.6966
L14.6746 76.6966
" />
<path d="M14.6746 76.6966
L14.7955 76.7570
" />
<path d="M14.7955 76.7570
L14.8560 76.8780
" />
<path d="M14.8560 76.8780
L14.8560 77.5432
" />
<path d="M16.0050 77.5432
L16.0050 76.8780
" />
<path d="M16.0050 76.8780
L15.9445 76.7570
" />
<path d="M15.9445 76.7570
L15.8236 76.6966
" />
<path d="M15.8236 76.6966
L15.5817 76.6966
" />
<path d="M15.5817 76.6966
L15.4607 76.7570
" />
<path d="M16.0050 77.4828
L15.8841 77.5432
" />
<path d="M15.8841 77.5432
L15.5817 77.5432
" />
<path d="M15.5817 77.5432
L15.4607 77.4828
" />
<path d="M15.4607 77.4828
L15.4003 77.3618
" />
<path d="M15.4003 77.3618
L15.4003 77.2408
" />
<path d="M15.4003 77.2408
L15.4607 77.1199
" />
<path d="M15.4607 77.1199
L15.5817 77.0594
" />
<path d="M15.5817 77.0594
L15.8841 77.0594
" />
<path d="M15.8841 77.0594
L16.0050 76.9989
" />
<path d="M16.4283 76.6966
L16.9121 76.6966
" />
<path d="M16.6097 76.2732
L16.6097 77.3618
" />
<path d="M16.6097 77.3618
L16.6702 77.4828
" />
<path d="M16.6702 77.4828
L16.7912 77.5432
" />
<path d="M16.7912 77.5432
L16.9121 77.5432
" />
<path d="M17.8192 77.4828
L17.6983 77.5432
" />
<path d="M17.6983 77.5432
L17.4564 77.5432
" />
<path d="M17.4564 77.5432
L17.3354 77.4828
" />
<path d="M17.3354 77.4828
L17.2750 77.3618
" />
<path d="M17.2750 77.3618
L17.2750 76.8780
" />
<path d="M17.2750 76.8780
L17.3354 76.7570
" />
<path d="M17.3354 76.7570
L17.4564 76.6966
" />
<path d="M17.4564 76.6966
L17.6983 76.6966
" />
<path d="M17.6983 76.6966
L17.8192 76.7570
" />
<path d="M17.8192 76.7570
L17.8797 76.8780
" />
<path d="M17.8797 76.8780
L17.8797 76.9989
" />
<path d="M17.8797 76.9989
L17.2750 77.1199
" />
<path d="M18.4240 77.5432
L18.4240 76.2732
" />
<path d="M18.4240 76.2732
L18.9078 76.2732
" />
<path d="M18.9078 76.2732
L19.0288 76.3337
" />
<path d="M19.0288 76.3337
L19.0893 76.3942
" />
<path d="M19.0893 76.3942
L19.1497 76.5151
" />
<path d="M19.1497 76.5151
L19.1497 76.6966
" />
<path d="M19.1497 76.6966
L19.0893 76.8175
" />
<path d="M19.0893 76.8175
L19.0288 76.8780
" />
<path d="M19.0288 76.8780
L18.9078 76.9385
" />
<path d="M18.9078 76.9385
L18.4240 76.9385
" />
<path d="M19.6940 77.5432
L19.6940 76.6966
" />
<path d="M19.6940 76.9385
L19.7545 76.8175
" />
<path d="M19.7545 76.8175
L19.8150 76.7570
" />
<path d="M19.8150 76.7570
L19.9359 76.6966
" />
<path d="M19.9359 76.6966
L20.0569 76.6966
" />
<path d="M20.6617 77.5432
L20.5407 77.4828
" />
<path d="M20.5407 77.4828
L20.4802 77.4223
" />
<path d="M20.4802 77.4223
L20.4198 77.3013
" />
<path d="M20.4198 77.3013
L20.4198 76.9385
" />
<path d="M20.4198 76.9385
L20.4802 76.8175
" />
<path d="M20.4802 76.8175
L20.5407 76.7570
" />
<path d="M20.5407 76.7570
L20.6617 76.6966
" />
<path d="M20.6617 76.6966
L20.8431 76.6966
" />
<path d="M20.8431 76.6966
L20.9640 76.7570
" />
<path d="M20.9640 76.7570
L21.0245 76.8175
" />
<path d="M21.0245 76.8175
L21.0850 76.9385
" />
<path d="M21.0850 76.9385
L21.0850 77.3013
" />
<path d="M21.0850 77.3013
L21.0245 77.4223
" />
<path d="M21.0245 77.4223
L20.9640 77.4828
" />
<path d="M20.9640 77.4828
L20.8431 77.5432
" />
<path d="M20.8431 77.5432
L20.6617 77.5432
" />
</g></g>
<g style="fill:none; 
stroke:#000000; stroke-width:0.3175; stroke-opacity:1; 
stroke-linecap:round; stroke-linejoin:round;">
<text x="30.4800" y="25.0230"
textLength="7.2300" font-size="1.6933" lengthAdjust="spacingAndGlyphs"
text-anchor="middle" opacity="0" stroke-opacity="0">DD_L_x</text>
<g class="stroked-text"><desc>DD_L_x</desc>
<path d="M27.5166 24.9589
L27.5166 23.6889
" />
<path d="M27.5166 23.6889
L27.8190 23.6889
" />
<path d="M27.8190 23.6889
L28.0004 23.7494
" />
<path d="M28.0004 23.7494
L28.1214 23.8704
" />
<path d="M28.1214 23.8704
L28.1819 23.9913
" />
<path d="M28.1819 23.9913
L28.2423 24.2332
" />
<path d="M28.2423 24.2332
L28.2423 24.4146
" />
<path d="M28.2423 24.4146
L28.1819 24.6565
" />
<path d="M28.1819 24.6565
L28.1214 24.7775
" />
<path d="M28.1214 24.7775
L28.0004 24.8985
" />
<path d="M28.0004 24.8985
L27.8190 24.9589
" />
<path d="M27.8190 24.9589
L27.5166 24.9589
" />
<path d="M28.7866 24.9589
L28.7866 23.6889
" />
<path d="M28.7866 23.6889
L29.0890 23.6889
" />
<path d="M29.0890 23.6889
L29.2704 23.7494
" />
<path d="M29.2704 23.7494
L29.3914 23.8704
" />
<path d="M29.3914 23.8704
L29.4519 23.9913
" />
<path d="M29.4519 23.9913
L29.5123 24.2332
" />
<path d="M29.5123 24.2332
L29.5123 24.4146
" />
<path d="M29.5123 24.4146
L29.4519 24.6565
" />
<path d="M29.4519 24.6565
L29.3914 24.7775
" />
<path d="M29.3914 24.7775
L29.2704 24.8985
" />
<path d="M29.2704 24.8985
L29.0890 24.9589
" />
<path d="M29.0890 24.9589
L28.7866 24.9589
" />
<path d="M29.7543 25.0799
L30.7219 25.0799
" />
<path d="M31.6290 24.9589
L31.0242 24.9589
" />
<path d="M31.0242 24.9589
L31.0242 23.6889
" />
<path d="M31.7500 25.0799
L32.7176 25.0799
" />
<path d="M32.8990 24.9589
L33.5642 24.1123
" />
<path d="M32.8990 24.1123
L33.5642 24.9589
" />
</g></g>
<g style="fill:none; 
stroke:#000000; stroke-width:0.3175; stroke-opacity:1; 
stroke-linecap:round; stroke-linejoin:round;">
<text x="30.4800" y="55.2490"
textLength="7.5324" font-size="1.6933" lengthAdjust="spacingAndGlyphs"
text-anchor="middle" opacity="0" stroke-opacity="0">DD_H_x</text>
<g class="stroked-text"><desc>DD_H_x</desc>
<path d="M27.3654 55.1849
L27.3654 53.9149
" />
<path d="M27.3654 53.9149
L27.6678 53.9149
" />
<path d="M27.6678 53.9149
L27.8492 53.9754
" />
<path d="M27.8492 53.9754
L27.9702 54.0964
" />
<path d="M27.9702 54.0964
L28.0307 54.2173
" />
<path d="M28.0307 54.2173
L28.0911 54.4592
" />
<path d="M28.0911 54.4592
L28.0911 54.6406
" />
<path d="M28.0911 54.6406
L28.0307 54.8825
" />
<path d="M28.0307 54.8825
L27.9702 55.0035
" />
<path d="M27.9702 55.0035
L27.8492 55.1245
" />
<path d="M27.8492 55.1245
L27.6678 55.1849
" />
<path d="M27.6678 55.1849
L27.3654 55.1849
" />
<path d="M28.6354 55.1849
L28.6354 53.9149
" />
<path d="M28.6354 53.9149
L28.9378 53.9149
" />
<path d="M28.9378 53.9149
L29.1192 53.9754
" />
<path d="M29.1192 53.9754
L29.2402 54.0964
" />
<path d="M29.2402 54.0964
L29.3007 54.2173
" />
<path d="M29.3007 54.2173
L29.3611 54.4592
" />
<path d="M29.3611 54.4592
L29.3611 54.6406
" />
<path d="M29.3611 54.6406
L29.3007 54.8825
" />
<path d="M29.3007 54.8825
L29.2402 55.0035
" />
<path d="M29.2402 55.0035
L29.1192 55.1245
" />
<path d="M29.1192 55.1245
L28.9378 55.1849
" />
<path d="M28.9378 55.1849
L28.6354 55.1849
" />
<path d="M29.6031 55.3059
L30.5707 55.3059
" />
<path d="M30.8730 55.1849
L30.8730 53.9149
" />
<path d="M30.8730 54.5197
L31.5987 54.5197
" />
<path d="M31.5987 55.1849
L31.5987 53.9149
" />
<path d="M31.9012 55.3059
L32.8688 55.3059
" />
<path d="M33.0502 55.1849
L33.7154 54.3383
" />
<path d="M33.0502 54.3383
L33.7154 55.1849
" />
</g></g>
<g style="fill:none; 
stroke:#000000; stroke-width:0.3175; stroke-opacity:1; 
stroke-linecap:round; stroke-linejoin:round;">
<text x="30.4800" y="17.1490"
textLength="7.5324" font-size="1.6933" lengthAdjust="spacingAndGlyphs"
text-anchor="middle" opacity="0" stroke-opacity="0">DD_H_x</text>
<g class="stroked-text"><desc>DD_H_x</desc>
<path d="M27.3654 17.0849
L27.3654 15.8149
" />
<path d="M27.3654 15.8149
L27.6678 15.8149
" />
<path d="M27.6678 15.8149
L27.8492 15.8754
" />
<path d="M27.8492 15.8754
L27.9702 15.9964
" />
<path d="M27.9702 15.9964
L28.0307 16.1173
" />
<path d="M28.0307 16.1173
L28.0911 16.3592
" />
<path d="M28.0911 16.3592
L28.0911 16.5406
" />
<path d="M28.0911 16.5406
L28.0307 16.7825
" />
<path d="M28.0307 16.7825
L27.9702 16.9035
" />
<path d="M27.9702 16.9035
L27.8492 17.0245
" />
<path d="M27.8492 17.0245
L27.6678 17.0849
" />
<path d="M27.6678 17.0849
L27.3654 17.0849
" />
<path d="M28.6354 17.0849
L28.6354 15.8149
" />
<path d="M28.6354 15.8149
L28.9378 15.8149
" />
<path d="M28.9378 15.8149
L29.1192 15.8754
" />
<path d="M29.1192 15.8754
L29.2402 15.9964
" />
<path d="M29.2402 15.9964
L29.3007 16.1173
" />
<path d="M29.3007 16.1173
L29.3611 16.3592
" />
<path d="M29.3611 16.3592
L29.3611 16.5406
" />
<path d="M29.3611 16.5406
L29.3007 16.7825
" />
<path d="M29.3007 16.7825
L29.2402 16.9035
" />
<path d="M29.2402 16.9035
L29.1192 17.0245
" />
<path d="M29.1192 17.0245
L28.9378 17.0849
" />
<path d="M28.9378 17.0849
L28.6354 17.0849
" />
<path d="M29.6031 17.2059
L30.5707 17.2059
" />
<path d="M30.8730 17.0849
L30.8730 15.8149
" />
<path d="M30.8730 16.4197
L31.5987 16.4197
" />
<path d="M31.5987 17.0849
L31.5987 15.8149
" />
<path d="M31.9012 17.2059
L32.8688 17.2059
" />
<path d="M33.0502 17.0849
L33.7154 16.2383
" />
<path d="M33.0502 16.2383
L33.7154 17.0849
" />
</g></g>
<g style="fill:none; 
stroke:#FFFFFF; stroke-width:0.3810; stroke-opacity:1; 
stroke-linecap:round; stroke-linejoin:round;">
<rect x="8.890000" y="1.270000" width="25.400000" height="77.470000" rx="0.000000" />
</g>
<g style="fill:none; 
stroke:#000000; stroke-width:0.3810; stroke-opacity:1; 
stroke-linecap:round; stroke-linejoin:round;">
<rect x="33.020000" y="19.050000" width="2.540000" height="2.540000" rx="0.000000" />
<rect x="33.020000" y="57.150000" width="2.540000" height="2.540000" rx="0.000000" />
</g>
<g style="fill:none; 
stroke:#000000; stroke-width:0.3175; stroke-opacity:1; 
stroke-linecap:round; stroke-linejoin:round;">
<text x="26.6700" y="76.8350"
textLength="4.5691" font-size="1.6933" lengthAdjust="spacingAndGlyphs"
text-anchor="middle" opacity="0" stroke-opacity="0">GND</text>
<g class="stroked-text"><desc>GND</desc>
<path d="M25.7024 75.5614
L25.5814 75.5009
" />
<path d="M25.5814 75.5009
L25.4000 75.5009
" />
<path d="M25.4000 75.5009
L25.2186 75.5614
" />
<path d="M25.2186 75.5614
L25.0976 75.6824
" />
<path d="M25.0976 75.6824
L25.0371 75.8033
" />
<path d="M25.0371 75.8033
L24.9767 76.0452
" />
<path d="M24.9767 76.0452
L24.9767 76.2266
" />
<path d="M24.9767 76.2266
L25.0371 76.4685
" />
<path d="M25.0371 76.4685
L25.0976 76.5895
" />
<path d="M25.0976 76.5895
L25.2186 76.7105
" />
<path d="M25.2186 76.7105
L25.4000 76.7709
" />
<path d="M25.4000 76.7709
L25.5209 76.7709
" />
<path d="M25.5209 76.7709
L25.7024 76.7105
" />
<path d="M25.7024 76.7105
L25.7628 76.6500
" />
<path d="M25.7628 76.6500
L25.7628 76.2266
" />
<path d="M25.7628 76.2266
L25.5209 76.2266
" />
<path d="M26.3071 76.7709
L26.3071 75.5009
" />
<path d="M26.3071 75.5009
L27.0328 76.7709
" />
<path d="M27.0328 76.7709
L27.0328 75.5009
" />
<path d="M27.6376 76.7709
L27.6376 75.5009
" />
<path d="M27.6376 75.5009
L27.9400 75.5009
" />
<path d="M27.9400 75.5009
L28.1214 75.5614
" />
<path d="M28.1214 75.5614
L28.2424 75.6824
" />
<path d="M28.2424 75.6824
L28.3029 75.8033
" />
<path d="M28.3029 75.8033
L28.3633 76.0452
" />
<path d="M28.3633 76.0452
L28.3633 76.2266
" />
<path d="M28.3633 76.2266
L28.3029 76.4685
" />
<path d="M28.3029 76.4685
L28.2424 76.5895
" />
<path d="M28.2424 76.5895
L28.1214 76.7105
" />
<path d="M28.1214 76.7105
L27.9400 76.7709
" />
<path d="M27.9400 76.7709
L27.6376 76.7709
" />
</g></g>
<g style="fill:none; 
stroke:#000000; stroke-width:0.3810; stroke-opacity:1; 
stroke-linecap:round; stroke-linejoin:round;">
<path d="M21.5900 66.0400
L19.0500 66.0400
" />
<path d="M26.6700 63.5000
L26.6700 60.9600
" />
<path d="M26.6700 69.8500
L26.6700 72.3900
" />
</g>
<g style="fill:none; 
stroke:#000000; stroke-width:0.3175; stroke-opacity:1; 
stroke-linecap:round; stroke-linejoin:round;">
<text x="26.6700" y="42.5450"
textLength="10.3143" font-size="1.6933" lengthAdjust="spacingAndGlyphs"
text-anchor="middle" opacity="0" stroke-opacity="0">ACTU PWR</text>
<g class="stroked-text"><desc>ACTU PWR</desc>
<path d="M22.1041 42.1181
L22.7088 42.1181
" />
<path d="M21.9831 42.4809
L22.4064 41.2109
" />
<path d="M22.4064 41.2109
L22.8298 42.4809
" />
<path d="M23.9788 42.3600
L23.9184 42.4205
" />
<path d="M23.9184 42.4205
L23.7369 42.4809
" />
<path d="M23.7369 42.4809
L23.6160 42.4809
" />
<path d="M23.6160 42.4809
L23.4346 42.4205
" />
<path d="M23.4346 42.4205
L23.3136 42.2995
" />
<path d="M23.3136 42.2995
L23.2531 42.1785
" />
<path d="M23.2531 42.1785
L23.1927 41.9366
" />
<path d="M23.1927 41.9366
L23.1927 41.7552
" />
<path d="M23.1927 41.7552
L23.2531 41.5133
" />
<path d="M23.2531 41.5133
L23.3136 41.3924
" />
<path d="M23.3136 41.3924
L23.4346 41.2714
" />
<path d="M23.4346 41.2714
L23.6160 41.2109
" />
<path d="M23.6160 41.2109
L23.7369 41.2109
" />
<path d="M23.7369 41.2109
L23.9184 41.2714
" />
<path d="M23.9184 41.2714
L23.9788 41.3319
" />
<path d="M24.3417 41.2109
L25.0674 41.2109
" />
<path d="M24.7046 42.4809
L24.7046 41.2109
" />
<path d="M25.4907 41.2109
L25.4907 42.2390
" />
<path d="M25.4907 42.2390
L25.5512 42.3600
" />
<path d="M25.5512 42.3600
L25.6117 42.4205
" />
<path d="M25.6117 42.4205
L25.7326 42.4809
" />
<path d="M25.7326 42.4809
L25.9745 42.4809
" />
<path d="M25.9745 42.4809
L26.0955 42.4205
" />
<path d="M26.0955 42.4205
L26.1560 42.3600
" />
<path d="M26.1560 42.3600
L26.2164 42.2390
" />
<path d="M26.2164 42.2390
L26.2164 41.2109
" />
<path d="M27.7888 42.4809
L27.7888 41.2109
" />
<path d="M27.7888 41.2109
L28.2726 41.2109
" />
<path d="M28.2726 41.2109
L28.3936 41.2714
" />
<path d="M28.3936 41.2714
L28.4541 41.3319
" />
<path d="M28.4541 41.3319
L28.5145 41.4528
" />
<path d="M28.5145 41.4528
L28.5145 41.6343
" />
<path d="M28.5145 41.6343
L28.4541 41.7552
" />
<path d="M28.4541 41.7552
L28.3936 41.8157
" />
<path d="M28.3936 41.8157
L28.2726 41.8762
" />
<path d="M28.2726 41.8762
L27.7888 41.8762
" />
<path d="M28.9379 41.2109
L29.2403 42.4809
" />
<path d="M29.2403 42.4809
L29.4822 41.5738
" />
<path d="M29.4822 41.5738
L29.7241 42.4809
" />
<path d="M29.7241 42.4809
L30.0265 41.2109
" />
<path d="M31.2359 42.4809
L30.8126 41.8762
" />
<path d="M30.5102 42.4809
L30.5102 41.2109
" />
<path d="M30.5102 41.2109
L30.9940 41.2109
" />
<path d="M30.9940 41.2109
L31.1150 41.2714
" />
<path d="M31.1150 41.2714
L31.1755 41.3319
" />
<path d="M31.1755 41.3319
L31.2359 41.4528
" />
<path d="M31.2359 41.4528
L31.2359 41.6343
" />
<path d="M31.2359 41.6343
L31.1755 41.7552
" />
<path d="M31.1755 41.7552
L31.1150 41.8157
" />
<path d="M31.1150 41.8157
L30.9940 41.8762
" />
<path d="M30.9940 41.8762
L30.5102 41.8762
" />
</g></g>
<g style="fill:none; 
stroke:#000000; stroke-width:0.3175; stroke-opacity:1; 
stroke-linecap:round; stroke-linejoin:round;">
<text x="26.6700" y="38.7350"
textLength="4.5691" font-size="1.6933" lengthAdjust="spacingAndGlyphs"
text-anchor="middle" opacity="0" stroke-opacity="0">GND</text>
<g class="stroked-text"><desc>GND</desc>
<path d="M25.7024 37.4614
L25.5814 37.4009
" />
<path d="M25.5814 37.4009
L25.4000 37.4009
" />
<path d="M25.4000 37.4009
L25.2186 37.4614
" />
<path d="M25.2186 37.4614
L25.0976 37.5824
" />
<path d="M25.0976 37.5824
L25.0371 37.7033
" />
<path d="M25.0371 37.7033
L24.9767 37.9452
" />
<path d="M24.9767 37.9452
L24.9767 38.1266
" />
<path d="M24.9767 38.1266
L25.0371 38.3685
" />
<path d="M25.0371 38.3685
L25.0976 38.4895
" />
<path d="M25.0976 38.4895
L25.2186 38.6105
" />
<path d="M25.2186 38.6105
L25.4000 38.6709
" />
<path d="M25.4000 38.6709
L25.5209 38.6709
" />
<path d="M25.5209 38.6709
L25.7024 38.6105
" />
<path d="M25.7024 38.6105
L25.7628 38.5500
" />
<path d="M25.7628 38.5500
L25.7628 38.1266
" />
<path d="M25.7628 38.1266
L25.5209 38.1266
" />
<path d="M26.3071 38.6709
L26.3071 37.4009
" />
<path d="M26.3071 37.4009
L27.0328 38.6709
" />
<path d="M27.0328 38.6709
L27.0328 37.4009
" />
<path d="M27.6376 38.6709
L27.6376 37.4009
" />
<path d="M27.6376 37.4009
L27.9400 37.4009
" />
<path d="M27.9400 37.4009
L28.1214 37.4614
" />
<path d="M28.1214 37.4614
L28.2424 37.5824
" />
<path d="M28.2424 37.5824
L28.3029 37.7033
" />
<path d="M28.3029 37.7033
L28.3633 37.9452
" />
<path d="M28.3633 37.9452
L28.3633 38.1266
" />
<path d="M28.3633 38.1266
L28.3029 38.3685
" />
<path d="M28.3029 38.3685
L28.2424 38.4895
" />
<path d="M28.2424 38.4895
L28.1214 38.6105
" />
<path d="M28.1214 38.6105
L27.9400 38.6709
" />
<path d="M27.9400 38.6709
L27.6376 38.6709
" />
</g></g>
<g style="fill:none; 
stroke:#000000; stroke-width:0.3810; stroke-opacity:1; 
stroke-linecap:round; stroke-linejoin:round;">
<path d="M21.5900 27.9400
L19.0500 27.9400
" />
<path d="M26.6700 25.4000
L26.6700 22.8600
" />
<path d="M26.6700 31.7500
L26.6700 34.2900
" />
<path d="M21.5900 50.8000
L19.0500 50.8000
" />
<path d="M26.6700 48.2600
L26.6700 45.7200
" />
<path d="M26.6700 54.6100
L26.6700 57.1500
" />
</g>
<g style="fill:none; 
stroke:#000000; stroke-width:0.3175; stroke-opacity:1; 
stroke-linecap:round; stroke-linejoin:round;">
<text x="26.6700" y="4.4450"
textLength="10.3143" font-size="1.6933" lengthAdjust="spacingAndGlyphs"
text-anchor="middle" opacity="0" stroke-opacity="0">ACTU PWR</text>
<g class="stroked-text"><desc>ACTU PWR</desc>
<path d="M22.1041 4.0181
L22.7088 4.0181
" />
<path d="M21.9831 4.3809
L22.4064 3.1109
" />
<path d="M22.4064 3.1109
L22.8298 4.3809
" />
<path d="M23.9788 4.2600
L23.9184 4.3205
" />
<path d="M23.9184 4.3205
L23.7369 4.3809
" />
<path d="M23.7369 4.3809
L23.6160 4.3809
" />
<path d="M23.6160 4.3809
L23.4346 4.3205
" />
<path d="M23.4346 4.3205
L23.3136 4.1995
" />
<path d="M23.3136 4.1995
L23.2531 4.0785
" />
<path d="M23.2531 4.0785
L23.1927 3.8366
" />
<path d="M23.1927 3.8366
L23.1927 3.6552
" />
<path d="M23.1927 3.6552
L23.2531 3.4133
" />
<path d="M23.2531 3.4133
L23.3136 3.2924
" />
<path d="M23.3136 3.2924
L23.4346 3.1714
" />
<path d="M23.4346 3.1714
L23.6160 3.1109
" />
<path d="M23.6160 3.1109
L23.7369 3.1109
" />
<path d="M23.7369 3.1109
L23.9184 3.1714
" />
<path d="M23.9184 3.1714
L23.9788 3.2319
" />
<path d="M24.3417 3.1109
L25.0674 3.1109
" />
<path d="M24.7046 4.3809
L24.7046 3.1109
" />
<path d="M25.4907 3.1109
L25.4907 4.1390
" />
<path d="M25.4907 4.1390
L25.5512 4.2600
" />
<path d="M25.5512 4.2600
L25.6117 4.3205
" />
<path d="M25.6117 4.3205
L25.7326 4.3809
" />
<path d="M25.7326 4.3809
L25.9745 4.3809
" />
<path d="M25.9745 4.3809
L26.0955 4.3205
" />
<path d="M26.0955 4.3205
L26.1560 4.2600
" />
<path d="M26.1560 4.2600
L26.2164 4.1390
" />
<path d="M26.2164 4.1390
L26.2164 3.1109
" />
<path d="M27.7888 4.3809
L27.7888 3.1109
" />
<path d="M27.7888 3.1109
L28.2726 3.1109
" />
<path d="M28.2726 3.1109
L28.3936 3.1714
" />
<path d="M28.3936 3.1714
L28.4541 3.2319
" />
<path d="M28.4541 3.2319
L28.5145 3.3528
" />
<path d="M28.5145 3.3528
L28.5145 3.5343
" />
<path d="M28.5145 3.5343
L28.4541 3.6552
" />
<path d="M28.4541 3.6552
L28.3936 3.7157
" />
<path d="M28.3936 3.7157
L28.2726 3.7762
" />
<path d="M28.2726 3.7762
L27.7888 3.7762
" />
<path d="M28.9379 3.1109
L29.2403 4.3809
" />
<path d="M29.2403 4.3809
L29.4822 3.4738
" />
<path d="M29.4822 3.4738
L29.7241 4.3809
" />
<path d="M29.7241 4.3809
L30.0265 3.1109
" />
<path d="M31.2359 4.3809
L30.8126 3.7762
" />
<path d="M30.5102 4.3809
L30.5102 3.1109
" />
<path d="M30.5102 3.1109
L30.9940 3.1109
" />
<path d="M30.9940 3.1109
L31.1150 3.1714
" />
<path d="M31.1150 3.1714
L31.1755 3.2319
" />
<path d="M31.1755 3.2319
L31.2359 3.3528
" />
<path d="M31.2359 3.3528
L31.2359 3.5343
" />
<path d="M31.2359 3.5343
L31.1755 3.6552
" />
<path d="M31.1755 3.6552
L31.1150 3.7157
" />
<path d="M31.1150 3.7157
L30.9940 3.7762
" />
<path d="M30.9940 3.7762
L30.5102 3.7762
" />
</g></g>
<g style="fill:none; 
stroke:#000000; stroke-width:0.3810; stroke-opacity:1; 
stroke-linecap:round; stroke-linejoin:round;">
<path d="M21.5900 12.7000
L19.0500 12.7000
" />
<path d="M26.6700 10.1600
L26.6700 7.6200
" />
<path d="M26.6700 16.5100
L26.6700 19.0500
" />
</g> 
</svg>
