<?xml version="1.0" standalone="no"?>
 <!DOCTYPE svg PUBLIC "-//W3C//DTD SVG 1.1//EN" 
 "http://www.w3.org/Graphics/SVG/1.1/DTD/svg11.dtd"> 
<svg
  xmlns:svg="http://www.w3.org/2000/svg"
  xmlns="http://www.w3.org/2000/svg"
  xmlns:xlink="http://www.w3.org/1999/xlink"
  version="1.1"
  width="39.9796mm" height="44.9834mm" viewBox="0.0000 0.0000 39.9796 44.9834">
<title>SVG Image created as Graphical Drawings-Halfbridge.svg date 2025/02/06 13:37:17 </title>
  <desc>Image generated by Eeschema-SVG </desc>
<g style="fill:#000000; fill-opacity:1.0000;stroke:#000000; stroke-opacity:1.0000;
stroke-linecap:round; stroke-linejoin:round;"
 transform="translate(0 0) scale(1 1)">
</g>
<g style="fill:#848484; fill-opacity:0.3500; stroke:none;">
<rect x="1.270000" y="2.540000" width="25.400000" height="39.370000" rx="0.000000" />
</g>
<g style="fill:#FFFFFF; fill-opacity:1.0000; stroke:none;">
<rect x="25.400000" y="20.320000" width="2.540000" height="2.540000" rx="0.000000" />
<path style="fill:none; 
stroke:#000000; stroke-width:0.3810; stroke-opacity:1; 
stroke-linecap:round; stroke-linejoin:round;fill:none"
d="M 19.0500,8.8900
19.0500,6.3500
" /> 
<path style="fill:none; 
stroke:#000000; stroke-width:0.3810; stroke-opacity:1; 
stroke-linecap:round; stroke-linejoin:round;fill:none"
d="M 20.3200,6.3500
17.7800,6.3500
" /> 
</g>
<g style="fill:none; 
stroke:#000000; stroke-width:0.3175; stroke-opacity:1; 
stroke-linecap:round; stroke-linejoin:round;">
<text x="19.0500" y="5.7150"
textLength="10.3143" font-size="1.6933" lengthAdjust="spacingAndGlyphs"
text-anchor="middle" opacity="0" stroke-opacity="0">ACTU PWR</text>
<g class="stroked-text"><desc>ACTU PWR</desc>
<path d="M14.4841 5.2881
L15.0888 5.2881
" />
<path d="M14.3631 5.6509
L14.7864 4.3809
" />
<path d="M14.7864 4.3809
L15.2098 5.6509
" />
<path d="M16.3588 5.5300
L16.2984 5.5905
" />
<path d="M16.2984 5.5905
L16.1169 5.6509
" />
<path d="M16.1169 5.6509
L15.9960 5.6509
" />
<path d="M15.9960 5.6509
L15.8146 5.5905
" />
<path d="M15.8146 5.5905
L15.6936 5.4695
" />
<path d="M15.6936 5.4695
L15.6331 5.3485
" />
<path d="M15.6331 5.3485
L15.5727 5.1066
" />
<path d="M15.5727 5.1066
L15.5727 4.9252
" />
<path d="M15.5727 4.9252
L15.6331 4.6833
" />
<path d="M15.6331 4.6833
L15.6936 4.5624
" />
<path d="M15.6936 4.5624
L15.8146 4.4414
" />
<path d="M15.8146 4.4414
L15.9960 4.3809
" />
<path d="M15.9960 4.3809
L16.1169 4.3809
" />
<path d="M16.1169 4.3809
L16.2984 4.4414
" />
<path d="M16.2984 4.4414
L16.3588 4.5019
" />
<path d="M16.7217 4.3809
L17.4474 4.3809
" />
<path d="M17.0846 5.6509
L17.0846 4.3809
" />
<path d="M17.8707 4.3809
L17.8707 5.4090
" />
<path d="M17.8707 5.4090
L17.9312 5.5300
" />
<path d="M17.9312 5.5300
L17.9917 5.5905
" />
<path d="M17.9917 5.5905
L18.1126 5.6509
" />
<path d="M18.1126 5.6509
L18.3545 5.6509
" />
<path d="M18.3545 5.6509
L18.4755 5.5905
" />
<path d="M18.4755 5.5905
L18.5360 5.5300
" />
<path d="M18.5360 5.5300
L18.5964 5.4090
" />
<path d="M18.5964 5.4090
L18.5964 4.3809
" />
<path d="M20.1688 5.6509
L20.1688 4.3809
" />
<path d="M20.1688 4.3809
L20.6526 4.3809
" />
<path d="M20.6526 4.3809
L20.7736 4.4414
" />
<path d="M20.7736 4.4414
L20.8341 4.5019
" />
<path d="M20.8341 4.5019
L20.8945 4.6228
" />
<path d="M20.8945 4.6228
L20.8945 4.8043
" />
<path d="M20.8945 4.8043
L20.8341 4.9252
" />
<path d="M20.8341 4.9252
L20.7736 4.9857
" />
<path d="M20.7736 4.9857
L20.6526 5.0462
" />
<path d="M20.6526 5.0462
L20.1688 5.0462
" />
<path d="M21.3179 4.3809
L21.6203 5.6509
" />
<path d="M21.6203 5.6509
L21.8622 4.7438
" />
<path d="M21.8622 4.7438
L22.1041 5.6509
" />
<path d="M22.1041 5.6509
L22.4065 4.3809
" />
<path d="M23.6159 5.6509
L23.1926 5.0462
" />
<path d="M22.8902 5.6509
L22.8902 4.3809
" />
<path d="M22.8902 4.3809
L23.3740 4.3809
" />
<path d="M23.3740 4.3809
L23.4950 4.4414
" />
<path d="M23.4950 4.4414
L23.5555 4.5019
" />
<path d="M23.5555 4.5019
L23.6159 4.6228
" />
<path d="M23.6159 4.6228
L23.6159 4.8043
" />
<path d="M23.6159 4.8043
L23.5555 4.9252
" />
<path d="M23.5555 4.9252
L23.4950 4.9857
" />
<path d="M23.4950 4.9857
L23.3740 5.0462
" />
<path d="M23.3740 5.0462
L22.8902 5.0462
" />
</g><path style="fill:none; 
stroke:#000000; stroke-width:0.3810; stroke-opacity:1; 
stroke-linecap:round; stroke-linejoin:round;fill:none"
d="M 19.0500,35.5600
19.0500,36.8300
20.3200,36.8300
19.0500,38.1000
17.7800,36.8300
19.0500,36.8300
" /> 
</g>
<g style="fill:none; 
stroke:#000000; stroke-width:0.3175; stroke-opacity:1; 
stroke-linecap:round; stroke-linejoin:round;">
<text x="19.0500" y="40.0050"
textLength="4.5691" font-size="1.6933" lengthAdjust="spacingAndGlyphs"
text-anchor="middle" opacity="0" stroke-opacity="0">GND</text>
<g class="stroked-text"><desc>GND</desc>
<path d="M18.0824 38.7314
L17.9614 38.6709
" />
<path d="M17.9614 38.6709
L17.7800 38.6709
" />
<path d="M17.7800 38.6709
L17.5986 38.7314
" />
<path d="M17.5986 38.7314
L17.4776 38.8524
" />
<path d="M17.4776 38.8524
L17.4171 38.9733
" />
<path d="M17.4171 38.9733
L17.3567 39.2152
" />
<path d="M17.3567 39.2152
L17.3567 39.3966
" />
<path d="M17.3567 39.3966
L17.4171 39.6385
" />
<path d="M17.4171 39.6385
L17.4776 39.7595
" />
<path d="M17.4776 39.7595
L17.5986 39.8805
" />
<path d="M17.5986 39.8805
L17.7800 39.9409
" />
<path d="M17.7800 39.9409
L17.9009 39.9409
" />
<path d="M17.9009 39.9409
L18.0824 39.8805
" />
<path d="M18.0824 39.8805
L18.1428 39.8200
" />
<path d="M18.1428 39.8200
L18.1428 39.3966
" />
<path d="M18.1428 39.3966
L17.9009 39.3966
" />
<path d="M18.6871 39.9409
L18.6871 38.6709
" />
<path d="M18.6871 38.6709
L19.4128 39.9409
" />
<path d="M19.4128 39.9409
L19.4128 38.6709
" />
<path d="M20.0176 39.9409
L20.0176 38.6709
" />
<path d="M20.0176 38.6709
L20.3200 38.6709
" />
<path d="M20.3200 38.6709
L20.5014 38.7314
" />
<path d="M20.5014 38.7314
L20.6224 38.8524
" />
<path d="M20.6224 38.8524
L20.6829 38.9733
" />
<path d="M20.6829 38.9733
L20.7433 39.2152
" />
<path d="M20.7433 39.2152
L20.7433 39.3966
" />
<path d="M20.7433 39.3966
L20.6829 39.6385
" />
<path d="M20.6829 39.6385
L20.6224 39.7595
" />
<path d="M20.6224 39.7595
L20.5014 39.8805
" />
<path d="M20.5014 39.8805
L20.3200 39.9409
" />
<path d="M20.3200 39.9409
L20.0176 39.9409
" />
</g><path style="fill:none; 
stroke:#000000; stroke-width:0.2540; stroke-opacity:1; 
stroke-linecap:round; stroke-linejoin:round;fill:none"
d="M 16.7640,27.3050
16.7640,31.1150
" /> 
<path style="fill:none; 
stroke:#000000; stroke-width:0.3810; stroke-opacity:1; 
stroke-linecap:round; stroke-linejoin:round;fill:none"
d="M 16.7640,29.2100
13.9700,29.2100
" /> 
<path style="fill:none; 
stroke:#000000; stroke-width:0.2540; stroke-opacity:1; 
stroke-linecap:round; stroke-linejoin:round;fill:none"
d="M 17.2720,26.9240
17.2720,27.9400
" /> 
<path style="fill:none; 
stroke:#000000; stroke-width:0.2540; stroke-opacity:1; 
stroke-linecap:round; stroke-linejoin:round;fill:none"
d="M 17.2720,28.7020
17.2720,29.7180
" /> 
<path style="fill:none; 
stroke:#000000; stroke-width:0.2540; stroke-opacity:1; 
stroke-linecap:round; stroke-linejoin:round;fill:none"
d="M 17.2720,30.4800
17.2720,31.4960
" /> 
<path style="fill:none; 
stroke:#000000; stroke-width:0.2500; stroke-opacity:1; 
stroke-linecap:round; stroke-linejoin:round;fill:none"
d="M 17.2720,30.9880
19.8120,30.9880
19.8120,27.4320
17.2720,27.4320
" /> 
<path style="fill:#000000; fill-opacity:1.0000; 
stroke:#000000; stroke-width:0.3810; stroke-opacity:1; 
stroke-linecap:round; stroke-linejoin:round;fill-rule:evenodd;"
d="M 17.5260,29.2100
18.5420,28.8290
18.5420,29.5910
Z" /> 
</g>
<g style="fill:none; 
stroke:#000000; stroke-width:0.2540; stroke-opacity:1; 
stroke-linecap:round; stroke-linejoin:round;">
<circle cx="18.1610" cy="29.2100" r="2.7940" /> 
<path style="fill:none; 
stroke:#000000; stroke-width:0.3810; stroke-opacity:1; 
stroke-linecap:round; stroke-linejoin:round;fill:none"
d="M 19.0500,26.6700
19.0500,27.4320
" /> 
</g>
<g style="fill:#000000; fill-opacity:1.0000; 
stroke:#000000; stroke-width:0.3810; stroke-opacity:1; 
stroke-linecap:round; stroke-linejoin:round;">
<circle cx="19.0500" cy="27.4320" r="0.2540" /> 
<circle cx="19.0500" cy="30.9880" r="0.2540" /> 
<path style="fill:none; 
stroke:#000000; stroke-width:0.3810; stroke-opacity:1; 
stroke-linecap:round; stroke-linejoin:round;fill:none"
d="M 19.0500,31.7500
19.0500,29.2100
17.2720,29.2100
" /> 
<path style="fill:none; 
stroke:#000000; stroke-width:0.3810; stroke-opacity:1; 
stroke-linecap:round; stroke-linejoin:round;fill:none"
d="M 19.0500,33.0200
19.0500,31.7500
" /> 
<path style="fill:none; 
stroke:#000000; stroke-width:0.2500; stroke-opacity:1; 
stroke-linecap:round; stroke-linejoin:round;fill:none"
d="M 19.0500,33.0200
13.9700,33.0200
13.9700,29.2100
" /> 
<path style="fill:none; 
stroke:#000000; stroke-width:0.1524; stroke-opacity:1; 
stroke-linecap:round; stroke-linejoin:round;fill:none"
d="M 19.3040,28.7020
20.3200,28.7020
" /> 
<path style="fill:none; 
stroke:#000000; stroke-width:0.1524; stroke-opacity:1; 
stroke-linecap:round; stroke-linejoin:round;fill:none"
d="M 14.7320,33.5280
14.8590,33.4010
14.8590,32.6390
14.9860,32.5120
" /> 
<path style="fill:#000000; fill-opacity:1.0000; 
stroke:#000000; stroke-width:0.2000; stroke-opacity:1; 
stroke-linecap:round; stroke-linejoin:round;fill-rule:evenodd;"
d="M 14.8590,33.0200
15.4940,33.4010
15.4940,32.6390
Z" /> 
<path style="fill:#000000; fill-opacity:1.0000; 
stroke:#000000; stroke-width:0.2000; stroke-opacity:1; 
stroke-linecap:round; stroke-linejoin:round;fill-rule:evenodd;"
d="M 16.8910,33.0200
16.2560,32.6390
16.2560,33.4010
Z" /> 
<path style="fill:none; 
stroke:#000000; stroke-width:0.1524; stroke-opacity:1; 
stroke-linecap:round; stroke-linejoin:round;fill:none"
d="M 17.0180,32.5120
16.8910,32.6390
16.8910,33.4010
16.7640,33.5280
" /> 
<path style="fill:#000000; fill-opacity:1.0000; 
stroke:#000000; stroke-width:0.2000; stroke-opacity:1; 
stroke-linecap:round; stroke-linejoin:round;fill-rule:evenodd;"
d="M 19.8120,28.8290
19.4310,29.4640
20.1930,29.4640
Z" /> 
</g>
<g style="fill:none; 
stroke:#000000; stroke-width:0.3810; stroke-opacity:1; 
stroke-linecap:round; stroke-linejoin:round;">
<path d="M13.9700 29.2100
L11.4300 29.2100
" />
<path d="M19.0500 26.6700
L19.0500 24.1300
" />
<path d="M19.0500 33.0200
L19.0500 35.5600
" />
<path style="fill:none; 
stroke:#000000; stroke-width:0.2540; stroke-opacity:1; 
stroke-linecap:round; stroke-linejoin:round;fill:none"
d="M 16.7640,12.0650
16.7640,15.8750
" /> 
<path style="fill:none; 
stroke:#000000; stroke-width:0.3810; stroke-opacity:1; 
stroke-linecap:round; stroke-linejoin:round;fill:none"
d="M 16.7640,13.9700
13.9700,13.9700
" /> 
<path style="fill:none; 
stroke:#000000; stroke-width:0.2540; stroke-opacity:1; 
stroke-linecap:round; stroke-linejoin:round;fill:none"
d="M 17.2720,11.6840
17.2720,12.7000
" /> 
<path style="fill:none; 
stroke:#000000; stroke-width:0.2540; stroke-opacity:1; 
stroke-linecap:round; stroke-linejoin:round;fill:none"
d="M 17.2720,13.4620
17.2720,14.4780
" /> 
<path style="fill:none; 
stroke:#000000; stroke-width:0.2540; stroke-opacity:1; 
stroke-linecap:round; stroke-linejoin:round;fill:none"
d="M 17.2720,15.2400
17.2720,16.2560
" /> 
<path style="fill:none; 
stroke:#000000; stroke-width:0.2500; stroke-opacity:1; 
stroke-linecap:round; stroke-linejoin:round;fill:none"
d="M 17.2720,15.7480
19.8120,15.7480
19.8120,12.1920
17.2720,12.1920
" /> 
<path style="fill:#000000; fill-opacity:1.0000; 
stroke:#000000; stroke-width:0.3810; stroke-opacity:1; 
stroke-linecap:round; stroke-linejoin:round;fill-rule:evenodd;"
d="M 17.5260,13.9700
18.5420,13.5890
18.5420,14.3510
Z" /> 
</g>
<g style="fill:none; 
stroke:#000000; stroke-width:0.2540; stroke-opacity:1; 
stroke-linecap:round; stroke-linejoin:round;">
<circle cx="18.1610" cy="13.9700" r="2.7940" /> 
<path style="fill:none; 
stroke:#000000; stroke-width:0.3810; stroke-opacity:1; 
stroke-linecap:round; stroke-linejoin:round;fill:none"
d="M 19.0500,11.4300
19.0500,12.1920
" /> 
</g>
<g style="fill:#000000; fill-opacity:1.0000; 
stroke:#000000; stroke-width:0.3810; stroke-opacity:1; 
stroke-linecap:round; stroke-linejoin:round;">
<circle cx="19.0500" cy="12.1920" r="0.2540" /> 
<circle cx="19.0500" cy="15.7480" r="0.2540" /> 
<path style="fill:none; 
stroke:#000000; stroke-width:0.3810; stroke-opacity:1; 
stroke-linecap:round; stroke-linejoin:round;fill:none"
d="M 19.0500,16.5100
19.0500,13.9700
17.2720,13.9700
" /> 
<path style="fill:none; 
stroke:#000000; stroke-width:0.3810; stroke-opacity:1; 
stroke-linecap:round; stroke-linejoin:round;fill:none"
d="M 19.0500,17.7800
19.0500,16.5100
" /> 
<path style="fill:none; 
stroke:#000000; stroke-width:0.2500; stroke-opacity:1; 
stroke-linecap:round; stroke-linejoin:round;fill:none"
d="M 19.0500,17.7800
13.9700,17.7800
13.9700,13.9700
" /> 
<path style="fill:none; 
stroke:#000000; stroke-width:0.1524; stroke-opacity:1; 
stroke-linecap:round; stroke-linejoin:round;fill:none"
d="M 19.3040,13.4620
20.3200,13.4620
" /> 
<path style="fill:none; 
stroke:#000000; stroke-width:0.1524; stroke-opacity:1; 
stroke-linecap:round; stroke-linejoin:round;fill:none"
d="M 14.7320,18.2880
14.8590,18.1610
14.8590,17.3990
14.9860,17.2720
" /> 
<path style="fill:#000000; fill-opacity:1.0000; 
stroke:#000000; stroke-width:0.2000; stroke-opacity:1; 
stroke-linecap:round; stroke-linejoin:round;fill-rule:evenodd;"
d="M 14.8590,17.7800
15.4940,18.1610
15.4940,17.3990
Z" /> 
<path style="fill:#000000; fill-opacity:1.0000; 
stroke:#000000; stroke-width:0.2000; stroke-opacity:1; 
stroke-linecap:round; stroke-linejoin:round;fill-rule:evenodd;"
d="M 16.8910,17.7800
16.2560,17.3990
16.2560,18.1610
Z" /> 
<path style="fill:none; 
stroke:#000000; stroke-width:0.1524; stroke-opacity:1; 
stroke-linecap:round; stroke-linejoin:round;fill:none"
d="M 17.0180,17.2720
16.8910,17.3990
16.8910,18.1610
16.7640,18.2880
" /> 
<path style="fill:#000000; fill-opacity:1.0000; 
stroke:#000000; stroke-width:0.2000; stroke-opacity:1; 
stroke-linecap:round; stroke-linejoin:round;fill-rule:evenodd;"
d="M 19.8120,13.5890
19.4310,14.2240
20.1930,14.2240
Z" /> 
</g>
<g style="fill:none; 
stroke:#000000; stroke-width:0.3810; stroke-opacity:1; 
stroke-linecap:round; stroke-linejoin:round;">
<path d="M13.9700 13.9700
L11.4300 13.9700
" />
<path d="M19.0500 11.4300
L19.0500 8.8900
" />
<path d="M19.0500 17.7800
L19.0500 20.3200
" />
<path style="fill:none; 
stroke:#000000; stroke-width:0.3810; stroke-opacity:1; 
stroke-linecap:round; stroke-linejoin:round;fill:none"
d="M 32.0040,24.1300
32.3850,23.1140
32.7660,24.1300
33.1470,25.1460
33.5280,24.1300
" /> 
<path style="fill:none; 
stroke:#000000; stroke-width:0.3810; stroke-opacity:1; 
stroke-linecap:round; stroke-linejoin:round;fill:none"
d="M 32.0040,24.1300
30.4800,24.1300
" /> 
<path style="fill:none; 
stroke:#000000; stroke-width:0.3810; stroke-opacity:1; 
stroke-linecap:round; stroke-linejoin:round;fill:none"
d="M 33.5280,24.1300
33.9090,23.1140
34.2900,24.1300
34.6710,25.1460
35.0520,24.1300
" /> 
<path style="fill:none; 
stroke:#000000; stroke-width:0.3810; stroke-opacity:1; 
stroke-linecap:round; stroke-linejoin:round;fill:none"
d="M 35.0520,24.1300
35.4330,23.1140
35.8140,24.1300
36.1950,25.1460
36.5760,24.1300
" /> 
<path style="fill:none; 
stroke:#000000; stroke-width:0.3810; stroke-opacity:1; 
stroke-linecap:round; stroke-linejoin:round;fill:none"
d="M 36.5760,24.1300
36.8300,24.1300
" /> 
<path style="fill:none; 
stroke:#000000; stroke-width:0.3810; stroke-opacity:1; 
stroke-linecap:round; stroke-linejoin:round;fill:none"
d="M 38.1000,24.1300
36.5760,24.1300
" /> 
<path style="fill:none; 
stroke:#000000; stroke-width:0.3810; stroke-opacity:1; 
stroke-linecap:round; stroke-linejoin:round;fill:none"
d="M 38.1000,19.0500
36.1950,19.0500
" /> 
<path style="fill:none; 
stroke:#000000; stroke-width:0.3810; stroke-opacity:1; 
stroke-linecap:round; stroke-linejoin:round;fill:none"
d="M 32.3850,19.0500
30.4800,19.0500
" /> 
<circle cx="34.2900" cy="19.0500" r="1.9050" /> 
<text x="34.2901" y="20.4040"
textLength="3.2173" font-size="2.9333" lengthAdjust="spacingAndGlyphs"
text-anchor="middle" opacity="0" stroke-opacity="0">M</text>
<g class="stroked-text"><desc>M</desc>
<path d="M33.5568 20.3018
L33.5568 18.1018
" />
<path d="M33.5568 18.1018
L34.2901 19.6732
" />
<path d="M34.2901 19.6732
L35.0234 18.1018
" />
<path d="M35.0234 18.1018
L35.0234 20.3018
" />
</g><path d="M27.9400 21.5900
L29.2100 21.5900
" />
<path d="M19.0500 20.3200
L19.0500 21.5900
" />
<path d="M19.0500 21.5900
L25.4000 21.5900
" />
<path d="M19.0500 21.5900
L19.0500 24.1300
" />
</g>
<g style="fill:none; 
stroke:#000000; stroke-width:0.3175; stroke-opacity:1; 
stroke-linecap:round; stroke-linejoin:round;">
<text x="22.8600" y="18.4190"
textLength="7.5324" font-size="1.6933" lengthAdjust="spacingAndGlyphs"
text-anchor="middle" opacity="0" stroke-opacity="0">DD_H_x</text>
<g class="stroked-text"><desc>DD_H_x</desc>
<path d="M19.7454 18.3549
L19.7454 17.0849
" />
<path d="M19.7454 17.0849
L20.0478 17.0849
" />
<path d="M20.0478 17.0849
L20.2292 17.1454
" />
<path d="M20.2292 17.1454
L20.3502 17.2664
" />
<path d="M20.3502 17.2664
L20.4107 17.3873
" />
<path d="M20.4107 17.3873
L20.4711 17.6292
" />
<path d="M20.4711 17.6292
L20.4711 17.8106
" />
<path d="M20.4711 17.8106
L20.4107 18.0525
" />
<path d="M20.4107 18.0525
L20.3502 18.1735
" />
<path d="M20.3502 18.1735
L20.2292 18.2945
" />
<path d="M20.2292 18.2945
L20.0478 18.3549
" />
<path d="M20.0478 18.3549
L19.7454 18.3549
" />
<path d="M21.0154 18.3549
L21.0154 17.0849
" />
<path d="M21.0154 17.0849
L21.3178 17.0849
" />
<path d="M21.3178 17.0849
L21.4992 17.1454
" />
<path d="M21.4992 17.1454
L21.6202 17.2664
" />
<path d="M21.6202 17.2664
L21.6807 17.3873
" />
<path d="M21.6807 17.3873
L21.7411 17.6292
" />
<path d="M21.7411 17.6292
L21.7411 17.8106
" />
<path d="M21.7411 17.8106
L21.6807 18.0525
" />
<path d="M21.6807 18.0525
L21.6202 18.1735
" />
<path d="M21.6202 18.1735
L21.4992 18.2945
" />
<path d="M21.4992 18.2945
L21.3178 18.3549
" />
<path d="M21.3178 18.3549
L21.0154 18.3549
" />
<path d="M21.9831 18.4759
L22.9507 18.4759
" />
<path d="M23.2530 18.3549
L23.2530 17.0849
" />
<path d="M23.2530 17.6897
L23.9787 17.6897
" />
<path d="M23.9787 18.3549
L23.9787 17.0849
" />
<path d="M24.2812 18.4759
L25.2488 18.4759
" />
<path d="M25.4302 18.3549
L26.0954 17.5083
" />
<path d="M25.4302 17.5083
L26.0954 18.3549
" />
</g></g>
<g style="fill:none; 
stroke:#000000; stroke-width:0.3175; stroke-opacity:1; 
stroke-linecap:round; stroke-linejoin:round;">
<text x="1.7780" y="39.2407"
textLength="8.5603" font-size="1.6933" lengthAdjust="spacingAndGlyphs"
text-anchor="start" opacity="0" stroke-opacity="0">Onboard</text>
<g class="stroked-text"><desc>Onboard</desc>
<path d="M2.5310 37.9066
L2.7729 37.9066
" />
<path d="M2.7729 37.9066
L2.8939 37.9671
" />
<path d="M2.8939 37.9671
L3.0148 38.0881
" />
<path d="M3.0148 38.0881
L3.0753 38.3300
" />
<path d="M3.0753 38.3300
L3.0753 38.7533
" />
<path d="M3.0753 38.7533
L3.0148 38.9952
" />
<path d="M3.0148 38.9952
L2.8939 39.1162
" />
<path d="M2.8939 39.1162
L2.7729 39.1766
" />
<path d="M2.7729 39.1766
L2.5310 39.1766
" />
<path d="M2.5310 39.1766
L2.4101 39.1162
" />
<path d="M2.4101 39.1162
L2.2891 38.9952
" />
<path d="M2.2891 38.9952
L2.2287 38.7533
" />
<path d="M2.2287 38.7533
L2.2287 38.3300
" />
<path d="M2.2287 38.3300
L2.2891 38.0881
" />
<path d="M2.2891 38.0881
L2.4101 37.9671
" />
<path d="M2.4101 37.9671
L2.5310 37.9066
" />
<path d="M3.6196 38.3300
L3.6196 39.1766
" />
<path d="M3.6196 38.4509
L3.6801 38.3904
" />
<path d="M3.6801 38.3904
L3.8011 38.3300
" />
<path d="M3.8011 38.3300
L3.9825 38.3300
" />
<path d="M3.9825 38.3300
L4.1034 38.3904
" />
<path d="M4.1034 38.3904
L4.1639 38.5114
" />
<path d="M4.1639 38.5114
L4.1639 39.1766
" />
<path d="M4.7686 39.1766
L4.7686 37.9066
" />
<path d="M4.7686 38.3904
L4.8896 38.3300
" />
<path d="M4.8896 38.3300
L5.1315 38.3300
" />
<path d="M5.1315 38.3300
L5.2524 38.3904
" />
<path d="M5.2524 38.3904
L5.3129 38.4509
" />
<path d="M5.3129 38.4509
L5.3734 38.5719
" />
<path d="M5.3734 38.5719
L5.3734 38.9347
" />
<path d="M5.3734 38.9347
L5.3129 39.0557
" />
<path d="M5.3129 39.0557
L5.2524 39.1162
" />
<path d="M5.2524 39.1162
L5.1315 39.1766
" />
<path d="M5.1315 39.1766
L4.8896 39.1766
" />
<path d="M4.8896 39.1766
L4.7686 39.1162
" />
<path d="M6.0991 39.1766
L5.9781 39.1162
" />
<path d="M5.9781 39.1162
L5.9176 39.0557
" />
<path d="M5.9176 39.0557
L5.8572 38.9347
" />
<path d="M5.8572 38.9347
L5.8572 38.5719
" />
<path d="M5.8572 38.5719
L5.9176 38.4509
" />
<path d="M5.9176 38.4509
L5.9781 38.3904
" />
<path d="M5.9781 38.3904
L6.0991 38.3300
" />
<path d="M6.0991 38.3300
L6.2805 38.3300
" />
<path d="M6.2805 38.3300
L6.4014 38.3904
" />
<path d="M6.4014 38.3904
L6.4619 38.4509
" />
<path d="M6.4619 38.4509
L6.5224 38.5719
" />
<path d="M6.5224 38.5719
L6.5224 38.9347
" />
<path d="M6.5224 38.9347
L6.4619 39.0557
" />
<path d="M6.4619 39.0557
L6.4014 39.1162
" />
<path d="M6.4014 39.1162
L6.2805 39.1766
" />
<path d="M6.2805 39.1766
L6.0991 39.1766
" />
<path d="M7.6109 39.1766
L7.6109 38.5114
" />
<path d="M7.6109 38.5114
L7.5504 38.3904
" />
<path d="M7.5504 38.3904
L7.4295 38.3300
" />
<path d="M7.4295 38.3300
L7.1876 38.3300
" />
<path d="M7.1876 38.3300
L7.0666 38.3904
" />
<path d="M7.6109 39.1162
L7.4900 39.1766
" />
<path d="M7.4900 39.1766
L7.1876 39.1766
" />
<path d="M7.1876 39.1766
L7.0666 39.1162
" />
<path d="M7.0666 39.1162
L7.0062 38.9952
" />
<path d="M7.0062 38.9952
L7.0062 38.8742
" />
<path d="M7.0062 38.8742
L7.0666 38.7533
" />
<path d="M7.0666 38.7533
L7.1876 38.6928
" />
<path d="M7.1876 38.6928
L7.4900 38.6928
" />
<path d="M7.4900 38.6928
L7.6109 38.6323
" />
<path d="M8.2156 39.1766
L8.2156 38.3300
" />
<path d="M8.2156 38.5719
L8.2761 38.4509
" />
<path d="M8.2761 38.4509
L8.3366 38.3904
" />
<path d="M8.3366 38.3904
L8.4575 38.3300
" />
<path d="M8.4575 38.3300
L8.5785 38.3300
" />
<path d="M9.5461 39.1766
L9.5461 37.9066
" />
<path d="M9.5461 39.1162
L9.4252 39.1766
" />
<path d="M9.4252 39.1766
L9.1833 39.1766
" />
<path d="M9.1833 39.1766
L9.0623 39.1162
" />
<path d="M9.0623 39.1162
L9.0018 39.0557
" />
<path d="M9.0018 39.0557
L8.9414 38.9347
" />
<path d="M8.9414 38.9347
L8.9414 38.5719
" />
<path d="M8.9414 38.5719
L9.0018 38.4509
" />
<path d="M9.0018 38.4509
L9.0623 38.3904
" />
<path d="M9.0623 38.3904
L9.1833 38.3300
" />
<path d="M9.1833 38.3300
L9.4252 38.3300
" />
<path d="M9.4252 38.3300
L9.5461 38.3904
" />
</g><text x="1.7780" y="41.2853"
textLength="12.6727" font-size="1.6933" lengthAdjust="spacingAndGlyphs"
text-anchor="start" opacity="0" stroke-opacity="0">AutomatePro</text>
<g class="stroked-text"><desc>AutomatePro</desc>
<path d="M2.2287 40.8584
L2.8334 40.8584
" />
<path d="M2.1077 41.2212
L2.5310 39.9512
" />
<path d="M2.5310 39.9512
L2.9544 41.2212
" />
<path d="M3.9220 40.3746
L3.9220 41.2212
" />
<path d="M3.3777 40.3746
L3.3777 41.0398
" />
<path d="M3.3777 41.0398
L3.4382 41.1608
" />
<path d="M3.4382 41.1608
L3.5592 41.2212
" />
<path d="M3.5592 41.2212
L3.7406 41.2212
" />
<path d="M3.7406 41.2212
L3.8615 41.1608
" />
<path d="M3.8615 41.1608
L3.9220 41.1003
" />
<path d="M4.3453 40.3746
L4.8291 40.3746
" />
<path d="M4.5267 39.9512
L4.5267 41.0398
" />
<path d="M4.5267 41.0398
L4.5872 41.1608
" />
<path d="M4.5872 41.1608
L4.7082 41.2212
" />
<path d="M4.7082 41.2212
L4.8291 41.2212
" />
<path d="M5.4339 41.2212
L5.3129 41.1608
" />
<path d="M5.3129 41.1608
L5.2524 41.1003
" />
<path d="M5.2524 41.1003
L5.1920 40.9793
" />
<path d="M5.1920 40.9793
L5.1920 40.6165
" />
<path d="M5.1920 40.6165
L5.2524 40.4955
" />
<path d="M5.2524 40.4955
L5.3129 40.4350
" />
<path d="M5.3129 40.4350
L5.4339 40.3746
" />
<path d="M5.4339 40.3746
L5.6153 40.3746
" />
<path d="M5.6153 40.3746
L5.7362 40.4350
" />
<path d="M5.7362 40.4350
L5.7967 40.4955
" />
<path d="M5.7967 40.4955
L5.8572 40.6165
" />
<path d="M5.8572 40.6165
L5.8572 40.9793
" />
<path d="M5.8572 40.9793
L5.7967 41.1003
" />
<path d="M5.7967 41.1003
L5.7362 41.1608
" />
<path d="M5.7362 41.1608
L5.6153 41.2212
" />
<path d="M5.6153 41.2212
L5.4339 41.2212
" />
<path d="M6.4014 41.2212
L6.4014 40.3746
" />
<path d="M6.4014 40.4955
L6.4619 40.4350
" />
<path d="M6.4619 40.4350
L6.5829 40.3746
" />
<path d="M6.5829 40.3746
L6.7643 40.3746
" />
<path d="M6.7643 40.3746
L6.8852 40.4350
" />
<path d="M6.8852 40.4350
L6.9457 40.5560
" />
<path d="M6.9457 40.5560
L6.9457 41.2212
" />
<path d="M6.9457 40.5560
L7.0062 40.4350
" />
<path d="M7.0062 40.4350
L7.1271 40.3746
" />
<path d="M7.1271 40.3746
L7.3086 40.3746
" />
<path d="M7.3086 40.3746
L7.4295 40.4350
" />
<path d="M7.4295 40.4350
L7.4900 40.5560
" />
<path d="M7.4900 40.5560
L7.4900 41.2212
" />
<path d="M8.6390 41.2212
L8.6390 40.5560
" />
<path d="M8.6390 40.5560
L8.5785 40.4350
" />
<path d="M8.5785 40.4350
L8.4576 40.3746
" />
<path d="M8.4576 40.3746
L8.2157 40.3746
" />
<path d="M8.2157 40.3746
L8.0947 40.4350
" />
<path d="M8.6390 41.1608
L8.5181 41.2212
" />
<path d="M8.5181 41.2212
L8.2157 41.2212
" />
<path d="M8.2157 41.2212
L8.0947 41.1608
" />
<path d="M8.0947 41.1608
L8.0343 41.0398
" />
<path d="M8.0343 41.0398
L8.0343 40.9188
" />
<path d="M8.0343 40.9188
L8.0947 40.7979
" />
<path d="M8.0947 40.7979
L8.2157 40.7374
" />
<path d="M8.2157 40.7374
L8.5181 40.7374
" />
<path d="M8.5181 40.7374
L8.6390 40.6769
" />
<path d="M9.0623 40.3746
L9.5461 40.3746
" />
<path d="M9.2437 39.9512
L9.2437 41.0398
" />
<path d="M9.2437 41.0398
L9.3042 41.1608
" />
<path d="M9.3042 41.1608
L9.4252 41.2212
" />
<path d="M9.4252 41.2212
L9.5461 41.2212
" />
<path d="M10.4532 41.1608
L10.3323 41.2212
" />
<path d="M10.3323 41.2212
L10.0904 41.2212
" />
<path d="M10.0904 41.2212
L9.9694 41.1608
" />
<path d="M9.9694 41.1608
L9.9090 41.0398
" />
<path d="M9.9090 41.0398
L9.9090 40.5560
" />
<path d="M9.9090 40.5560
L9.9694 40.4350
" />
<path d="M9.9694 40.4350
L10.0904 40.3746
" />
<path d="M10.0904 40.3746
L10.3323 40.3746
" />
<path d="M10.3323 40.3746
L10.4532 40.4350
" />
<path d="M10.4532 40.4350
L10.5137 40.5560
" />
<path d="M10.5137 40.5560
L10.5137 40.6769
" />
<path d="M10.5137 40.6769
L9.9090 40.7979
" />
<path d="M11.0580 41.2212
L11.0580 39.9512
" />
<path d="M11.0580 39.9512
L11.5418 39.9512
" />
<path d="M11.5418 39.9512
L11.6628 40.0117
" />
<path d="M11.6628 40.0117
L11.7233 40.0722
" />
<path d="M11.7233 40.0722
L11.7837 40.1931
" />
<path d="M11.7837 40.1931
L11.7837 40.3746
" />
<path d="M11.7837 40.3746
L11.7233 40.4955
" />
<path d="M11.7233 40.4955
L11.6628 40.5560
" />
<path d="M11.6628 40.5560
L11.5418 40.6165
" />
<path d="M11.5418 40.6165
L11.0580 40.6165
" />
<path d="M12.3280 41.2212
L12.3280 40.3746
" />
<path d="M12.3280 40.6165
L12.3885 40.4955
" />
<path d="M12.3885 40.4955
L12.4490 40.4350
" />
<path d="M12.4490 40.4350
L12.5699 40.3746
" />
<path d="M12.5699 40.3746
L12.6909 40.3746
" />
<path d="M13.2957 41.2212
L13.1747 41.1608
" />
<path d="M13.1747 41.1608
L13.1142 41.1003
" />
<path d="M13.1142 41.1003
L13.0538 40.9793
" />
<path d="M13.0538 40.9793
L13.0538 40.6165
" />
<path d="M13.0538 40.6165
L13.1142 40.4955
" />
<path d="M13.1142 40.4955
L13.1747 40.4350
" />
<path d="M13.1747 40.4350
L13.2957 40.3746
" />
<path d="M13.2957 40.3746
L13.4771 40.3746
" />
<path d="M13.4771 40.3746
L13.5980 40.4350
" />
<path d="M13.5980 40.4350
L13.6585 40.4955
" />
<path d="M13.6585 40.4955
L13.7190 40.6165
" />
<path d="M13.7190 40.6165
L13.7190 40.9793
" />
<path d="M13.7190 40.9793
L13.6585 41.1003
" />
<path d="M13.6585 41.1003
L13.5980 41.1608
" />
<path d="M13.5980 41.1608
L13.4771 41.2212
" />
<path d="M13.4771 41.2212
L13.2957 41.2212
" />
</g></g>
<g style="fill:none; 
stroke:#000000; stroke-width:0.3175; stroke-opacity:1; 
stroke-linecap:round; stroke-linejoin:round;">
<text x="22.8600" y="26.2930"
textLength="7.2300" font-size="1.6933" lengthAdjust="spacingAndGlyphs"
text-anchor="middle" opacity="0" stroke-opacity="0">DD_L_x</text>
<g class="stroked-text"><desc>DD_L_x</desc>
<path d="M19.8966 26.2289
L19.8966 24.9589
" />
<path d="M19.8966 24.9589
L20.1990 24.9589
" />
<path d="M20.1990 24.9589
L20.3804 25.0194
" />
<path d="M20.3804 25.0194
L20.5014 25.1404
" />
<path d="M20.5014 25.1404
L20.5619 25.2613
" />
<path d="M20.5619 25.2613
L20.6223 25.5032
" />
<path d="M20.6223 25.5032
L20.6223 25.6846
" />
<path d="M20.6223 25.6846
L20.5619 25.9265
" />
<path d="M20.5619 25.9265
L20.5014 26.0475
" />
<path d="M20.5014 26.0475
L20.3804 26.1685
" />
<path d="M20.3804 26.1685
L20.1990 26.2289
" />
<path d="M20.1990 26.2289
L19.8966 26.2289
" />
<path d="M21.1666 26.2289
L21.1666 24.9589
" />
<path d="M21.1666 24.9589
L21.4690 24.9589
" />
<path d="M21.4690 24.9589
L21.6504 25.0194
" />
<path d="M21.6504 25.0194
L21.7714 25.1404
" />
<path d="M21.7714 25.1404
L21.8319 25.2613
" />
<path d="M21.8319 25.2613
L21.8923 25.5032
" />
<path d="M21.8923 25.5032
L21.8923 25.6846
" />
<path d="M21.8923 25.6846
L21.8319 25.9265
" />
<path d="M21.8319 25.9265
L21.7714 26.0475
" />
<path d="M21.7714 26.0475
L21.6504 26.1685
" />
<path d="M21.6504 26.1685
L21.4690 26.2289
" />
<path d="M21.4690 26.2289
L21.1666 26.2289
" />
<path d="M22.1343 26.3499
L23.1019 26.3499
" />
<path d="M24.0090 26.2289
L23.4042 26.2289
" />
<path d="M23.4042 26.2289
L23.4042 24.9589
" />
<path d="M24.1300 26.3499
L25.0976 26.3499
" />
<path d="M25.2790 26.2289
L25.9442 25.3823
" />
<path d="M25.2790 25.3823
L25.9442 26.2289
" />
</g></g>
<g style="fill:none; 
stroke:#FFFFFF; stroke-width:0.3810; stroke-opacity:1; 
stroke-linecap:round; stroke-linejoin:round;">
<rect x="1.270000" y="2.540000" width="25.400000" height="39.370000" rx="0.000000" />
</g>
<g style="fill:none; 
stroke:#000000; stroke-width:0.3810; stroke-opacity:1; 
stroke-linecap:round; stroke-linejoin:round;">
<rect x="25.400000" y="20.320000" width="2.540000" height="2.540000" rx="0.000000" />
</g>
<g style="fill:none; 
stroke:#000000; stroke-width:0.3175; stroke-opacity:1; 
stroke-linecap:round; stroke-linejoin:round;">
<text x="19.0500" y="5.7150"
textLength="10.3143" font-size="1.6933" lengthAdjust="spacingAndGlyphs"
text-anchor="middle" opacity="0" stroke-opacity="0">ACTU PWR</text>
<g class="stroked-text"><desc>ACTU PWR</desc>
<path d="M14.4841 5.2881
L15.0888 5.2881
" />
<path d="M14.3631 5.6509
L14.7864 4.3809
" />
<path d="M14.7864 4.3809
L15.2098 5.6509
" />
<path d="M16.3588 5.5300
L16.2984 5.5905
" />
<path d="M16.2984 5.5905
L16.1169 5.6509
" />
<path d="M16.1169 5.6509
L15.9960 5.6509
" />
<path d="M15.9960 5.6509
L15.8146 5.5905
" />
<path d="M15.8146 5.5905
L15.6936 5.4695
" />
<path d="M15.6936 5.4695
L15.6331 5.3485
" />
<path d="M15.6331 5.3485
L15.5727 5.1066
" />
<path d="M15.5727 5.1066
L15.5727 4.9252
" />
<path d="M15.5727 4.9252
L15.6331 4.6833
" />
<path d="M15.6331 4.6833
L15.6936 4.5624
" />
<path d="M15.6936 4.5624
L15.8146 4.4414
" />
<path d="M15.8146 4.4414
L15.9960 4.3809
" />
<path d="M15.9960 4.3809
L16.1169 4.3809
" />
<path d="M16.1169 4.3809
L16.2984 4.4414
" />
<path d="M16.2984 4.4414
L16.3588 4.5019
" />
<path d="M16.7217 4.3809
L17.4474 4.3809
" />
<path d="M17.0846 5.6509
L17.0846 4.3809
" />
<path d="M17.8707 4.3809
L17.8707 5.4090
" />
<path d="M17.8707 5.4090
L17.9312 5.5300
" />
<path d="M17.9312 5.5300
L17.9917 5.5905
" />
<path d="M17.9917 5.5905
L18.1126 5.6509
" />
<path d="M18.1126 5.6509
L18.3545 5.6509
" />
<path d="M18.3545 5.6509
L18.4755 5.5905
" />
<path d="M18.4755 5.5905
L18.5360 5.5300
" />
<path d="M18.5360 5.5300
L18.5964 5.4090
" />
<path d="M18.5964 5.4090
L18.5964 4.3809
" />
<path d="M20.1688 5.6509
L20.1688 4.3809
" />
<path d="M20.1688 4.3809
L20.6526 4.3809
" />
<path d="M20.6526 4.3809
L20.7736 4.4414
" />
<path d="M20.7736 4.4414
L20.8341 4.5019
" />
<path d="M20.8341 4.5019
L20.8945 4.6228
" />
<path d="M20.8945 4.6228
L20.8945 4.8043
" />
<path d="M20.8945 4.8043
L20.8341 4.9252
" />
<path d="M20.8341 4.9252
L20.7736 4.9857
" />
<path d="M20.7736 4.9857
L20.6526 5.0462
" />
<path d="M20.6526 5.0462
L20.1688 5.0462
" />
<path d="M21.3179 4.3809
L21.6203 5.6509
" />
<path d="M21.6203 5.6509
L21.8622 4.7438
" />
<path d="M21.8622 4.7438
L22.1041 5.6509
" />
<path d="M22.1041 5.6509
L22.4065 4.3809
" />
<path d="M23.6159 5.6509
L23.1926 5.0462
" />
<path d="M22.8902 5.6509
L22.8902 4.3809
" />
<path d="M22.8902 4.3809
L23.3740 4.3809
" />
<path d="M23.3740 4.3809
L23.4950 4.4414
" />
<path d="M23.4950 4.4414
L23.5555 4.5019
" />
<path d="M23.5555 4.5019
L23.6159 4.6228
" />
<path d="M23.6159 4.6228
L23.6159 4.8043
" />
<path d="M23.6159 4.8043
L23.5555 4.9252
" />
<path d="M23.5555 4.9252
L23.4950 4.9857
" />
<path d="M23.4950 4.9857
L23.3740 5.0462
" />
<path d="M23.3740 5.0462
L22.8902 5.0462
" />
</g></g>
<g style="fill:none; 
stroke:#000000; stroke-width:0.3175; stroke-opacity:1; 
stroke-linecap:round; stroke-linejoin:round;">
<text x="19.0500" y="40.0050"
textLength="4.5691" font-size="1.6933" lengthAdjust="spacingAndGlyphs"
text-anchor="middle" opacity="0" stroke-opacity="0">GND</text>
<g class="stroked-text"><desc>GND</desc>
<path d="M18.0824 38.7314
L17.9614 38.6709
" />
<path d="M17.9614 38.6709
L17.7800 38.6709
" />
<path d="M17.7800 38.6709
L17.5986 38.7314
" />
<path d="M17.5986 38.7314
L17.4776 38.8524
" />
<path d="M17.4776 38.8524
L17.4171 38.9733
" />
<path d="M17.4171 38.9733
L17.3567 39.2152
" />
<path d="M17.3567 39.2152
L17.3567 39.3966
" />
<path d="M17.3567 39.3966
L17.4171 39.6385
" />
<path d="M17.4171 39.6385
L17.4776 39.7595
" />
<path d="M17.4776 39.7595
L17.5986 39.8805
" />
<path d="M17.5986 39.8805
L17.7800 39.9409
" />
<path d="M17.7800 39.9409
L17.9009 39.9409
" />
<path d="M17.9009 39.9409
L18.0824 39.8805
" />
<path d="M18.0824 39.8805
L18.1428 39.8200
" />
<path d="M18.1428 39.8200
L18.1428 39.3966
" />
<path d="M18.1428 39.3966
L17.9009 39.3966
" />
<path d="M18.6871 39.9409
L18.6871 38.6709
" />
<path d="M18.6871 38.6709
L19.4128 39.9409
" />
<path d="M19.4128 39.9409
L19.4128 38.6709
" />
<path d="M20.0176 39.9409
L20.0176 38.6709
" />
<path d="M20.0176 38.6709
L20.3200 38.6709
" />
<path d="M20.3200 38.6709
L20.5014 38.7314
" />
<path d="M20.5014 38.7314
L20.6224 38.8524
" />
<path d="M20.6224 38.8524
L20.6829 38.9733
" />
<path d="M20.6829 38.9733
L20.7433 39.2152
" />
<path d="M20.7433 39.2152
L20.7433 39.3966
" />
<path d="M20.7433 39.3966
L20.6829 39.6385
" />
<path d="M20.6829 39.6385
L20.6224 39.7595
" />
<path d="M20.6224 39.7595
L20.5014 39.8805
" />
<path d="M20.5014 39.8805
L20.3200 39.9409
" />
<path d="M20.3200 39.9409
L20.0176 39.9409
" />
</g></g>
<g style="fill:none; 
stroke:#000000; stroke-width:0.3810; stroke-opacity:1; 
stroke-linecap:round; stroke-linejoin:round;">
<path d="M13.9700 29.2100
L11.4300 29.2100
" />
<path d="M19.0500 26.6700
L19.0500 24.1300
" />
<path d="M19.0500 33.0200
L19.0500 35.5600
" />
<path d="M13.9700 13.9700
L11.4300 13.9700
" />
<path d="M19.0500 11.4300
L19.0500 8.8900
" />
<path d="M19.0500 17.7800
L19.0500 20.3200
" />
</g> 
</svg>
