<?xml version="1.0" standalone="no"?>
 <!DOCTYPE svg PUBLIC "-//W3C//DTD SVG 1.1//EN" 
 "http://www.w3.org/Graphics/SVG/1.1/DTD/svg11.dtd"> 
<svg
  xmlns:svg="http://www.w3.org/2000/svg"
  xmlns="http://www.w3.org/2000/svg"
  xmlns:xlink="http://www.w3.org/1999/xlink"
  version="1.1"
  width="44.9834mm" height="29.9974mm" viewBox="0.0000 0.0000 44.9834 29.9974">
<title>SVG Image created as Graphical Drawings-Warning_Buzzer.svg date 2025/02/06 13:37:17 </title>
  <desc>Image generated by Eeschema-SVG </desc>
<g style="fill:#000000; fill-opacity:1.0000;stroke:#000000; stroke-opacity:1.0000;
stroke-linecap:round; stroke-linejoin:round;"
 transform="translate(0 0) scale(1 1)">
</g>
<g style="fill:#848484; fill-opacity:0.3500; stroke:none;">
<rect x="1.270000" y="1.270000" width="24.130000" height="26.670000" rx="0.000000" />
</g>
<g style="fill:#FFFFFF; fill-opacity:1.0000; stroke:none;">
<rect x="24.130000" y="7.620000" width="2.540000" height="2.540000" rx="0.000000" />
<path style="fill:none; 
stroke:#000000; stroke-width:0.2540; stroke-opacity:1; 
stroke-linecap:round; stroke-linejoin:round;fill:none"
d="M 14.2240,12.0650
14.2240,15.8750
" /> 
<path style="fill:none; 
stroke:#000000; stroke-width:0.3810; stroke-opacity:1; 
stroke-linecap:round; stroke-linejoin:round;fill:none"
d="M 14.2240,13.9700
11.4300,13.9700
" /> 
<path style="fill:none; 
stroke:#000000; stroke-width:0.2540; stroke-opacity:1; 
stroke-linecap:round; stroke-linejoin:round;fill:none"
d="M 14.7320,11.6840
14.7320,12.7000
" /> 
<path style="fill:none; 
stroke:#000000; stroke-width:0.2540; stroke-opacity:1; 
stroke-linecap:round; stroke-linejoin:round;fill:none"
d="M 14.7320,13.4620
14.7320,14.4780
" /> 
<path style="fill:none; 
stroke:#000000; stroke-width:0.2540; stroke-opacity:1; 
stroke-linecap:round; stroke-linejoin:round;fill:none"
d="M 14.7320,15.2400
14.7320,16.2560
" /> 
<path style="fill:none; 
stroke:#000000; stroke-width:0.2500; stroke-opacity:1; 
stroke-linecap:round; stroke-linejoin:round;fill:none"
d="M 14.7320,15.7480
17.2720,15.7480
17.2720,12.1920
14.7320,12.1920
" /> 
<path style="fill:#000000; fill-opacity:1.0000; 
stroke:#000000; stroke-width:0.3810; stroke-opacity:1; 
stroke-linecap:round; stroke-linejoin:round;fill-rule:evenodd;"
d="M 14.9860,13.9700
16.0020,13.5890
16.0020,14.3510
Z" /> 
</g>
<g style="fill:none; 
stroke:#000000; stroke-width:0.2540; stroke-opacity:1; 
stroke-linecap:round; stroke-linejoin:round;">
<circle cx="15.6210" cy="13.9700" r="2.7940" /> 
<path style="fill:none; 
stroke:#000000; stroke-width:0.3810; stroke-opacity:1; 
stroke-linecap:round; stroke-linejoin:round;fill:none"
d="M 16.5100,11.4300
16.5100,12.1920
" /> 
</g>
<g style="fill:#000000; fill-opacity:1.0000; 
stroke:#000000; stroke-width:0.3810; stroke-opacity:1; 
stroke-linecap:round; stroke-linejoin:round;">
<circle cx="16.5100" cy="12.1920" r="0.2540" /> 
<circle cx="16.5100" cy="15.7480" r="0.2540" /> 
<path style="fill:none; 
stroke:#000000; stroke-width:0.3810; stroke-opacity:1; 
stroke-linecap:round; stroke-linejoin:round;fill:none"
d="M 16.5100,16.5100
16.5100,13.9700
14.7320,13.9700
" /> 
<path style="fill:none; 
stroke:#000000; stroke-width:0.2500; stroke-opacity:1; 
stroke-linecap:round; stroke-linejoin:round;fill:none"
d="M 16.5100,17.7800
11.4300,17.7800
11.4300,13.9700
" /> 
<path style="fill:none; 
stroke:#000000; stroke-width:0.3810; stroke-opacity:1; 
stroke-linecap:round; stroke-linejoin:round;fill:none"
d="M 16.5100,17.7800
16.5100,16.5100
" /> 
<path style="fill:none; 
stroke:#000000; stroke-width:0.1524; stroke-opacity:1; 
stroke-linecap:round; stroke-linejoin:round;fill:none"
d="M 16.7640,13.4620
17.7800,13.4620
" /> 
<path style="fill:none; 
stroke:#000000; stroke-width:0.1524; stroke-opacity:1; 
stroke-linecap:round; stroke-linejoin:round;fill:none"
d="M 12.1920,18.2880
12.3190,18.1610
12.3190,17.3990
12.4460,17.2720
" /> 
<path style="fill:#000000; fill-opacity:1.0000; 
stroke:#000000; stroke-width:0.2000; stroke-opacity:1; 
stroke-linecap:round; stroke-linejoin:round;fill-rule:evenodd;"
d="M 12.3190,17.7800
12.9540,18.1610
12.9540,17.3990
Z" /> 
<path style="fill:#000000; fill-opacity:1.0000; 
stroke:#000000; stroke-width:0.2000; stroke-opacity:1; 
stroke-linecap:round; stroke-linejoin:round;fill-rule:evenodd;"
d="M 14.3510,17.7800
13.7160,17.3990
13.7160,18.1610
Z" /> 
<path style="fill:none; 
stroke:#000000; stroke-width:0.1524; stroke-opacity:1; 
stroke-linecap:round; stroke-linejoin:round;fill:none"
d="M 14.4780,17.2720
14.3510,17.3990
14.3510,18.1610
14.2240,18.2880
" /> 
<path style="fill:#000000; fill-opacity:1.0000; 
stroke:#000000; stroke-width:0.2000; stroke-opacity:1; 
stroke-linecap:round; stroke-linejoin:round;fill-rule:evenodd;"
d="M 17.2720,13.5890
16.8910,14.2240
17.6530,14.2240
Z" /> 
</g>
<g style="fill:none; 
stroke:#000000; stroke-width:0.3810; stroke-opacity:1; 
stroke-linecap:round; stroke-linejoin:round;">
<path d="M11.4300 13.9700
L8.8900 13.9700
" />
<path d="M16.5100 11.4300
L16.5100 8.8900
" />
<path d="M16.5100 17.7800
L16.5100 20.3200
" />
<path style="fill:none; 
stroke:#000000; stroke-width:0.3810; stroke-opacity:1; 
stroke-linecap:round; stroke-linejoin:round;fill:none"
d="M 16.5100,20.3200
16.5100,21.5900
17.7800,21.5900
16.5100,22.8600
15.2400,21.5900
16.5100,21.5900
" /> 
</g>
<g style="fill:none; 
stroke:#000000; stroke-width:0.3175; stroke-opacity:1; 
stroke-linecap:round; stroke-linejoin:round;">
<text x="16.5100" y="24.7650"
textLength="4.5691" font-size="1.6933" lengthAdjust="spacingAndGlyphs"
text-anchor="middle" opacity="0" stroke-opacity="0">GND</text>
<g class="stroked-text"><desc>GND</desc>
<path d="M15.5424 23.4914
L15.4214 23.4309
" />
<path d="M15.4214 23.4309
L15.2400 23.4309
" />
<path d="M15.2400 23.4309
L15.0586 23.4914
" />
<path d="M15.0586 23.4914
L14.9376 23.6124
" />
<path d="M14.9376 23.6124
L14.8771 23.7333
" />
<path d="M14.8771 23.7333
L14.8167 23.9752
" />
<path d="M14.8167 23.9752
L14.8167 24.1566
" />
<path d="M14.8167 24.1566
L14.8771 24.3985
" />
<path d="M14.8771 24.3985
L14.9376 24.5195
" />
<path d="M14.9376 24.5195
L15.0586 24.6405
" />
<path d="M15.0586 24.6405
L15.2400 24.7009
" />
<path d="M15.2400 24.7009
L15.3609 24.7009
" />
<path d="M15.3609 24.7009
L15.5424 24.6405
" />
<path d="M15.5424 24.6405
L15.6028 24.5800
" />
<path d="M15.6028 24.5800
L15.6028 24.1566
" />
<path d="M15.6028 24.1566
L15.3609 24.1566
" />
<path d="M16.1471 24.7009
L16.1471 23.4309
" />
<path d="M16.1471 23.4309
L16.8728 24.7009
" />
<path d="M16.8728 24.7009
L16.8728 23.4309
" />
<path d="M17.4776 24.7009
L17.4776 23.4309
" />
<path d="M17.4776 23.4309
L17.7800 23.4309
" />
<path d="M17.7800 23.4309
L17.9614 23.4914
" />
<path d="M17.9614 23.4914
L18.0824 23.6124
" />
<path d="M18.0824 23.6124
L18.1429 23.7333
" />
<path d="M18.1429 23.7333
L18.2033 23.9752
" />
<path d="M18.2033 23.9752
L18.2033 24.1566
" />
<path d="M18.2033 24.1566
L18.1429 24.3985
" />
<path d="M18.1429 24.3985
L18.0824 24.5195
" />
<path d="M18.0824 24.5195
L17.9614 24.6405
" />
<path d="M17.9614 24.6405
L17.7800 24.7009
" />
<path d="M17.7800 24.7009
L17.4776 24.7009
" />
</g><path style="fill:none; 
stroke:#000000; stroke-width:0.3810; stroke-opacity:1; 
stroke-linecap:round; stroke-linejoin:round;fill:none"
d="M 30.4800,6.3500
30.4800,3.8100
" /> 
<path style="fill:none; 
stroke:#000000; stroke-width:0.3810; stroke-opacity:1; 
stroke-linecap:round; stroke-linejoin:round;fill:none"
d="M 29.2100,3.8100
31.7500,3.8100
" /> 
</g>
<g style="fill:none; 
stroke:#000000; stroke-width:0.3175; stroke-opacity:1; 
stroke-linecap:round; stroke-linejoin:round;">
<text x="30.4799" y="3.1750"
textLength="6.9881" font-size="1.6933" lengthAdjust="spacingAndGlyphs"
text-anchor="middle" opacity="0" stroke-opacity="0">0-24V</text>
<g class="stroked-text"><desc>0-24V</desc>
<path d="M27.8794 1.8409
L28.0004 1.8409
" />
<path d="M28.0004 1.8409
L28.1213 1.9014
" />
<path d="M28.1213 1.9014
L28.1818 1.9619
" />
<path d="M28.1818 1.9619
L28.2423 2.0828
" />
<path d="M28.2423 2.0828
L28.3028 2.3247
" />
<path d="M28.3028 2.3247
L28.3028 2.6271
" />
<path d="M28.3028 2.6271
L28.2423 2.8690
" />
<path d="M28.2423 2.8690
L28.1818 2.9900
" />
<path d="M28.1818 2.9900
L28.1213 3.0505
" />
<path d="M28.1213 3.0505
L28.0004 3.1109
" />
<path d="M28.0004 3.1109
L27.8794 3.1109
" />
<path d="M27.8794 3.1109
L27.7585 3.0505
" />
<path d="M27.7585 3.0505
L27.6980 2.9900
" />
<path d="M27.6980 2.9900
L27.6375 2.8690
" />
<path d="M27.6375 2.8690
L27.5771 2.6271
" />
<path d="M27.5771 2.6271
L27.5771 2.3247
" />
<path d="M27.5771 2.3247
L27.6375 2.0828
" />
<path d="M27.6375 2.0828
L27.6980 1.9619
" />
<path d="M27.6980 1.9619
L27.7585 1.9014
" />
<path d="M27.7585 1.9014
L27.8794 1.8409
" />
<path d="M28.8470 2.6271
L29.8147 2.6271
" />
<path d="M30.3590 1.9619
L30.4194 1.9014
" />
<path d="M30.4194 1.9014
L30.5404 1.8409
" />
<path d="M30.5404 1.8409
L30.8428 1.8409
" />
<path d="M30.8428 1.8409
L30.9637 1.9014
" />
<path d="M30.9637 1.9014
L31.0242 1.9619
" />
<path d="M31.0242 1.9619
L31.0847 2.0828
" />
<path d="M31.0847 2.0828
L31.0847 2.2038
" />
<path d="M31.0847 2.2038
L31.0242 2.3852
" />
<path d="M31.0242 2.3852
L30.2985 3.1109
" />
<path d="M30.2985 3.1109
L31.0847 3.1109
" />
<path d="M32.1732 2.2643
L32.1732 3.1109
" />
<path d="M31.8708 1.7805
L31.5685 2.6876
" />
<path d="M31.5685 2.6876
L32.3546 2.6876
" />
<path d="M32.6570 1.8409
L33.0803 3.1109
" />
<path d="M33.0803 3.1109
L33.5037 1.8409
" />
</g></g>
<g style="fill:none; 
stroke:#000000; stroke-width:0.2540; stroke-opacity:1; 
stroke-linecap:round; stroke-linejoin:round;">
<rect x="33.020000" y="5.080000" width="3.556000" height="5.080000" rx="0.000000" />
<path style="fill:none; 
stroke:#000000; stroke-width:0.2540; stroke-opacity:1; 
stroke-linecap:round; stroke-linejoin:round;fill:none"
d="M 36.5760,5.0800
39.1160,2.5400
39.1160,12.7000
36.5760,10.1600
" /> 
</g>
<g style="fill:none; 
stroke:#000000; stroke-width:0.3810; stroke-opacity:1; 
stroke-linecap:round; stroke-linejoin:round;">
<path d="M33.0200 6.3500
L30.4800 6.3500
" />
<path d="M33.0200 8.8900
L30.4800 8.8900
" />
</g>
<g style="fill:none; 
stroke:#000000; stroke-width:0.3175; stroke-opacity:1; 
stroke-linecap:round; stroke-linejoin:round;">
<text x="35.4292" y="14.3510"
textLength="15.4546" font-size="1.6933" lengthAdjust="spacingAndGlyphs"
text-anchor="middle" opacity="0" stroke-opacity="0">Warning Buzzer</text>
<g class="stroked-text"><desc>Warning Buzzer</desc>
<path d="M28.2326 13.0169
L28.5350 14.2869
" />
<path d="M28.5350 14.2869
L28.7769 13.3798
" />
<path d="M28.7769 13.3798
L29.0188 14.2869
" />
<path d="M29.0188 14.2869
L29.3212 13.0169
" />
<path d="M30.3492 14.2869
L30.3492 13.6217
" />
<path d="M30.3492 13.6217
L30.2887 13.5007
" />
<path d="M30.2887 13.5007
L30.1678 13.4403
" />
<path d="M30.1678 13.4403
L29.9259 13.4403
" />
<path d="M29.9259 13.4403
L29.8049 13.5007
" />
<path d="M30.3492 14.2265
L30.2283 14.2869
" />
<path d="M30.2283 14.2869
L29.9259 14.2869
" />
<path d="M29.9259 14.2869
L29.8049 14.2265
" />
<path d="M29.8049 14.2265
L29.7445 14.1055
" />
<path d="M29.7445 14.1055
L29.7445 13.9845
" />
<path d="M29.7445 13.9845
L29.8049 13.8636
" />
<path d="M29.8049 13.8636
L29.9259 13.8031
" />
<path d="M29.9259 13.8031
L30.2283 13.8031
" />
<path d="M30.2283 13.8031
L30.3492 13.7426
" />
<path d="M30.9539 14.2869
L30.9539 13.4403
" />
<path d="M30.9539 13.6822
L31.0144 13.5612
" />
<path d="M31.0144 13.5612
L31.0749 13.5007
" />
<path d="M31.0749 13.5007
L31.1958 13.4403
" />
<path d="M31.1958 13.4403
L31.3168 13.4403
" />
<path d="M31.7401 13.4403
L31.7401 14.2869
" />
<path d="M31.7401 13.5612
L31.8006 13.5007
" />
<path d="M31.8006 13.5007
L31.9216 13.4403
" />
<path d="M31.9216 13.4403
L32.1030 13.4403
" />
<path d="M32.1030 13.4403
L32.2239 13.5007
" />
<path d="M32.2239 13.5007
L32.2844 13.6217
" />
<path d="M32.2844 13.6217
L32.2844 14.2869
" />
<path d="M32.8891 14.2869
L32.8891 13.4403
" />
<path d="M32.8891 13.0169
L32.8287 13.0774
" />
<path d="M32.8287 13.0774
L32.8891 13.1379
" />
<path d="M32.8891 13.1379
L32.9496 13.0774
" />
<path d="M32.9496 13.0774
L32.8891 13.0169
" />
<path d="M32.8891 13.0169
L32.8891 13.1379
" />
<path d="M33.4939 13.4403
L33.4939 14.2869
" />
<path d="M33.4939 13.5612
L33.5544 13.5007
" />
<path d="M33.5544 13.5007
L33.6754 13.4403
" />
<path d="M33.6754 13.4403
L33.8568 13.4403
" />
<path d="M33.8568 13.4403
L33.9777 13.5007
" />
<path d="M33.9777 13.5007
L34.0382 13.6217
" />
<path d="M34.0382 13.6217
L34.0382 14.2869
" />
<path d="M35.1872 13.4403
L35.1872 14.4684
" />
<path d="M35.1872 14.4684
L35.1267 14.5893
" />
<path d="M35.1267 14.5893
L35.0663 14.6498
" />
<path d="M35.0663 14.6498
L34.9453 14.7103
" />
<path d="M34.9453 14.7103
L34.7639 14.7103
" />
<path d="M34.7639 14.7103
L34.6429 14.6498
" />
<path d="M35.1872 14.2265
L35.0663 14.2869
" />
<path d="M35.0663 14.2869
L34.8244 14.2869
" />
<path d="M34.8244 14.2869
L34.7034 14.2265
" />
<path d="M34.7034 14.2265
L34.6429 14.1660
" />
<path d="M34.6429 14.1660
L34.5825 14.0450
" />
<path d="M34.5825 14.0450
L34.5825 13.6822
" />
<path d="M34.5825 13.6822
L34.6429 13.5612
" />
<path d="M34.6429 13.5612
L34.7034 13.5007
" />
<path d="M34.7034 13.5007
L34.8244 13.4403
" />
<path d="M34.8244 13.4403
L35.0663 13.4403
" />
<path d="M35.0663 13.4403
L35.1872 13.5007
" />
<path d="M37.1829 13.6217
L37.3643 13.6822
" />
<path d="M37.3643 13.6822
L37.4248 13.7426
" />
<path d="M37.4248 13.7426
L37.4852 13.8636
" />
<path d="M37.4852 13.8636
L37.4852 14.0450
" />
<path d="M37.4852 14.0450
L37.4248 14.1660
" />
<path d="M37.4248 14.1660
L37.3643 14.2265
" />
<path d="M37.3643 14.2265
L37.2433 14.2869
" />
<path d="M37.2433 14.2869
L36.7595 14.2869
" />
<path d="M36.7595 14.2869
L36.7595 13.0169
" />
<path d="M36.7595 13.0169
L37.1829 13.0169
" />
<path d="M37.1829 13.0169
L37.3038 13.0774
" />
<path d="M37.3038 13.0774
L37.3643 13.1379
" />
<path d="M37.3643 13.1379
L37.4248 13.2588
" />
<path d="M37.4248 13.2588
L37.4248 13.3798
" />
<path d="M37.4248 13.3798
L37.3643 13.5007
" />
<path d="M37.3643 13.5007
L37.3038 13.5612
" />
<path d="M37.3038 13.5612
L37.1829 13.6217
" />
<path d="M37.1829 13.6217
L36.7595 13.6217
" />
<path d="M38.5738 13.4403
L38.5738 14.2869
" />
<path d="M38.0295 13.4403
L38.0295 14.1055
" />
<path d="M38.0295 14.1055
L38.0900 14.2265
" />
<path d="M38.0900 14.2265
L38.2110 14.2869
" />
<path d="M38.2110 14.2869
L38.3924 14.2869
" />
<path d="M38.3924 14.2869
L38.5133 14.2265
" />
<path d="M38.5133 14.2265
L38.5738 14.1660
" />
<path d="M39.0576 13.4403
L39.7228 13.4403
" />
<path d="M39.7228 13.4403
L39.0576 14.2869
" />
<path d="M39.0576 14.2869
L39.7228 14.2869
" />
<path d="M40.0857 13.4403
L40.7509 13.4403
" />
<path d="M40.7509 13.4403
L40.0857 14.2869
" />
<path d="M40.0857 14.2869
L40.7509 14.2869
" />
<path d="M41.7185 14.2265
L41.5976 14.2869
" />
<path d="M41.5976 14.2869
L41.3557 14.2869
" />
<path d="M41.3557 14.2869
L41.2347 14.2265
" />
<path d="M41.2347 14.2265
L41.1743 14.1055
" />
<path d="M41.1743 14.1055
L41.1743 13.6217
" />
<path d="M41.1743 13.6217
L41.2347 13.5007
" />
<path d="M41.2347 13.5007
L41.3557 13.4403
" />
<path d="M41.3557 13.4403
L41.5976 13.4403
" />
<path d="M41.5976 13.4403
L41.7185 13.5007
" />
<path d="M41.7185 13.5007
L41.7790 13.6217
" />
<path d="M41.7790 13.6217
L41.7790 13.7426
" />
<path d="M41.7790 13.7426
L41.1743 13.8636
" />
<path d="M42.3233 14.2869
L42.3233 13.4403
" />
<path d="M42.3233 13.6822
L42.3838 13.5612
" />
<path d="M42.3838 13.5612
L42.4443 13.5007
" />
<path d="M42.4443 13.5007
L42.5652 13.4403
" />
<path d="M42.5652 13.4403
L42.6862 13.4403
" />
</g></g>
<g style="fill:none; 
stroke:#000000; stroke-width:0.3810; stroke-opacity:1; 
stroke-linecap:round; stroke-linejoin:round;">
<path d="M16.5100 8.8900
L24.1300 8.8900
" />
<path d="M27.9400 8.8900
L30.4800 8.8900
" />
<path d="M26.6700 8.8900
L27.9400 8.8900
" />
</g>
<g style="fill:none; 
stroke:#000000; stroke-width:0.3175; stroke-opacity:1; 
stroke-linecap:round; stroke-linejoin:round;">
<text x="19.3040" y="8.2590"
textLength="6.8672" font-size="1.6933" lengthAdjust="spacingAndGlyphs"
text-anchor="middle" opacity="0" stroke-opacity="0">WARNx</text>
<g class="stroked-text"><desc>WARNx</desc>
<path d="M16.4011 6.9249
L16.7035 8.1949
" />
<path d="M16.7035 8.1949
L16.9454 7.2878
" />
<path d="M16.9454 7.2878
L17.1873 8.1949
" />
<path d="M17.1873 8.1949
L17.4897 6.9249
" />
<path d="M17.9130 7.8321
L18.5177 7.8321
" />
<path d="M17.7920 8.1949
L18.2153 6.9249
" />
<path d="M18.2153 6.9249
L18.6387 8.1949
" />
<path d="M19.7877 8.1949
L19.3644 7.5902
" />
<path d="M19.0620 8.1949
L19.0620 6.9249
" />
<path d="M19.0620 6.9249
L19.5458 6.9249
" />
<path d="M19.5458 6.9249
L19.6668 6.9854
" />
<path d="M19.6668 6.9854
L19.7273 7.0459
" />
<path d="M19.7273 7.0459
L19.7877 7.1668
" />
<path d="M19.7877 7.1668
L19.7877 7.3483
" />
<path d="M19.7877 7.3483
L19.7273 7.4692
" />
<path d="M19.7273 7.4692
L19.6668 7.5297
" />
<path d="M19.6668 7.5297
L19.5458 7.5902
" />
<path d="M19.5458 7.5902
L19.0620 7.5902
" />
<path d="M20.3320 8.1949
L20.3320 6.9249
" />
<path d="M20.3320 6.9249
L21.0577 8.1949
" />
<path d="M21.0577 8.1949
L21.0577 6.9249
" />
<path d="M21.5416 8.1949
L22.2068 7.3483
" />
<path d="M21.5416 7.3483
L22.2068 8.1949
" />
</g></g>
<g style="fill:none; 
stroke:#000000; stroke-width:0.3175; stroke-opacity:1; 
stroke-linecap:round; stroke-linejoin:round;">
<text x="2.0320" y="25.0167"
textLength="8.5603" font-size="1.6933" lengthAdjust="spacingAndGlyphs"
text-anchor="start" opacity="0" stroke-opacity="0">Onboard</text>
<g class="stroked-text"><desc>Onboard</desc>
<path d="M2.7850 23.6826
L3.0269 23.6826
" />
<path d="M3.0269 23.6826
L3.1479 23.7431
" />
<path d="M3.1479 23.7431
L3.2688 23.8641
" />
<path d="M3.2688 23.8641
L3.3293 24.1060
" />
<path d="M3.3293 24.1060
L3.3293 24.5293
" />
<path d="M3.3293 24.5293
L3.2688 24.7712
" />
<path d="M3.2688 24.7712
L3.1479 24.8922
" />
<path d="M3.1479 24.8922
L3.0269 24.9526
" />
<path d="M3.0269 24.9526
L2.7850 24.9526
" />
<path d="M2.7850 24.9526
L2.6641 24.8922
" />
<path d="M2.6641 24.8922
L2.5431 24.7712
" />
<path d="M2.5431 24.7712
L2.4827 24.5293
" />
<path d="M2.4827 24.5293
L2.4827 24.1060
" />
<path d="M2.4827 24.1060
L2.5431 23.8641
" />
<path d="M2.5431 23.8641
L2.6641 23.7431
" />
<path d="M2.6641 23.7431
L2.7850 23.6826
" />
<path d="M3.8736 24.1060
L3.8736 24.9526
" />
<path d="M3.8736 24.2269
L3.9341 24.1664
" />
<path d="M3.9341 24.1664
L4.0551 24.1060
" />
<path d="M4.0551 24.1060
L4.2365 24.1060
" />
<path d="M4.2365 24.1060
L4.3574 24.1664
" />
<path d="M4.3574 24.1664
L4.4179 24.2874
" />
<path d="M4.4179 24.2874
L4.4179 24.9526
" />
<path d="M5.0226 24.9526
L5.0226 23.6826
" />
<path d="M5.0226 24.1664
L5.1436 24.1060
" />
<path d="M5.1436 24.1060
L5.3855 24.1060
" />
<path d="M5.3855 24.1060
L5.5064 24.1664
" />
<path d="M5.5064 24.1664
L5.5669 24.2269
" />
<path d="M5.5669 24.2269
L5.6274 24.3479
" />
<path d="M5.6274 24.3479
L5.6274 24.7107
" />
<path d="M5.6274 24.7107
L5.5669 24.8317
" />
<path d="M5.5669 24.8317
L5.5064 24.8922
" />
<path d="M5.5064 24.8922
L5.3855 24.9526
" />
<path d="M5.3855 24.9526
L5.1436 24.9526
" />
<path d="M5.1436 24.9526
L5.0226 24.8922
" />
<path d="M6.3531 24.9526
L6.2321 24.8922
" />
<path d="M6.2321 24.8922
L6.1716 24.8317
" />
<path d="M6.1716 24.8317
L6.1112 24.7107
" />
<path d="M6.1112 24.7107
L6.1112 24.3479
" />
<path d="M6.1112 24.3479
L6.1716 24.2269
" />
<path d="M6.1716 24.2269
L6.2321 24.1664
" />
<path d="M6.2321 24.1664
L6.3531 24.1060
" />
<path d="M6.3531 24.1060
L6.5345 24.1060
" />
<path d="M6.5345 24.1060
L6.6554 24.1664
" />
<path d="M6.6554 24.1664
L6.7159 24.2269
" />
<path d="M6.7159 24.2269
L6.7764 24.3479
" />
<path d="M6.7764 24.3479
L6.7764 24.7107
" />
<path d="M6.7764 24.7107
L6.7159 24.8317
" />
<path d="M6.7159 24.8317
L6.6554 24.8922
" />
<path d="M6.6554 24.8922
L6.5345 24.9526
" />
<path d="M6.5345 24.9526
L6.3531 24.9526
" />
<path d="M7.8649 24.9526
L7.8649 24.2874
" />
<path d="M7.8649 24.2874
L7.8044 24.1664
" />
<path d="M7.8044 24.1664
L7.6835 24.1060
" />
<path d="M7.6835 24.1060
L7.4416 24.1060
" />
<path d="M7.4416 24.1060
L7.3206 24.1664
" />
<path d="M7.8649 24.8922
L7.7440 24.9526
" />
<path d="M7.7440 24.9526
L7.4416 24.9526
" />
<path d="M7.4416 24.9526
L7.3206 24.8922
" />
<path d="M7.3206 24.8922
L7.2602 24.7712
" />
<path d="M7.2602 24.7712
L7.2602 24.6502
" />
<path d="M7.2602 24.6502
L7.3206 24.5293
" />
<path d="M7.3206 24.5293
L7.4416 24.4688
" />
<path d="M7.4416 24.4688
L7.7440 24.4688
" />
<path d="M7.7440 24.4688
L7.8649 24.4083
" />
<path d="M8.4696 24.9526
L8.4696 24.1060
" />
<path d="M8.4696 24.3479
L8.5301 24.2269
" />
<path d="M8.5301 24.2269
L8.5906 24.1664
" />
<path d="M8.5906 24.1664
L8.7115 24.1060
" />
<path d="M8.7115 24.1060
L8.8325 24.1060
" />
<path d="M9.8001 24.9526
L9.8001 23.6826
" />
<path d="M9.8001 24.8922
L9.6792 24.9526
" />
<path d="M9.6792 24.9526
L9.4373 24.9526
" />
<path d="M9.4373 24.9526
L9.3163 24.8922
" />
<path d="M9.3163 24.8922
L9.2558 24.8317
" />
<path d="M9.2558 24.8317
L9.1954 24.7107
" />
<path d="M9.1954 24.7107
L9.1954 24.3479
" />
<path d="M9.1954 24.3479
L9.2558 24.2269
" />
<path d="M9.2558 24.2269
L9.3163 24.1664
" />
<path d="M9.3163 24.1664
L9.4373 24.1060
" />
<path d="M9.4373 24.1060
L9.6792 24.1060
" />
<path d="M9.6792 24.1060
L9.8001 24.1664
" />
</g><text x="2.0320" y="27.0613"
textLength="12.6727" font-size="1.6933" lengthAdjust="spacingAndGlyphs"
text-anchor="start" opacity="0" stroke-opacity="0">AutomatePro</text>
<g class="stroked-text"><desc>AutomatePro</desc>
<path d="M2.4827 26.6344
L3.0874 26.6344
" />
<path d="M2.3617 26.9972
L2.7850 25.7272
" />
<path d="M2.7850 25.7272
L3.2084 26.9972
" />
<path d="M4.1760 26.1506
L4.1760 26.9972
" />
<path d="M3.6317 26.1506
L3.6317 26.8158
" />
<path d="M3.6317 26.8158
L3.6922 26.9368
" />
<path d="M3.6922 26.9368
L3.8132 26.9972
" />
<path d="M3.8132 26.9972
L3.9946 26.9972
" />
<path d="M3.9946 26.9972
L4.1155 26.9368
" />
<path d="M4.1155 26.9368
L4.1760 26.8763
" />
<path d="M4.5993 26.1506
L5.0831 26.1506
" />
<path d="M4.7807 25.7272
L4.7807 26.8158
" />
<path d="M4.7807 26.8158
L4.8412 26.9368
" />
<path d="M4.8412 26.9368
L4.9622 26.9972
" />
<path d="M4.9622 26.9972
L5.0831 26.9972
" />
<path d="M5.6879 26.9972
L5.5669 26.9368
" />
<path d="M5.5669 26.9368
L5.5064 26.8763
" />
<path d="M5.5064 26.8763
L5.4460 26.7553
" />
<path d="M5.4460 26.7553
L5.4460 26.3925
" />
<path d="M5.4460 26.3925
L5.5064 26.2715
" />
<path d="M5.5064 26.2715
L5.5669 26.2110
" />
<path d="M5.5669 26.2110
L5.6879 26.1506
" />
<path d="M5.6879 26.1506
L5.8693 26.1506
" />
<path d="M5.8693 26.1506
L5.9902 26.2110
" />
<path d="M5.9902 26.2110
L6.0507 26.2715
" />
<path d="M6.0507 26.2715
L6.1112 26.3925
" />
<path d="M6.1112 26.3925
L6.1112 26.7553
" />
<path d="M6.1112 26.7553
L6.0507 26.8763
" />
<path d="M6.0507 26.8763
L5.9902 26.9368
" />
<path d="M5.9902 26.9368
L5.8693 26.9972
" />
<path d="M5.8693 26.9972
L5.6879 26.9972
" />
<path d="M6.6554 26.9972
L6.6554 26.1506
" />
<path d="M6.6554 26.2715
L6.7159 26.2110
" />
<path d="M6.7159 26.2110
L6.8369 26.1506
" />
<path d="M6.8369 26.1506
L7.0183 26.1506
" />
<path d="M7.0183 26.1506
L7.1392 26.2110
" />
<path d="M7.1392 26.2110
L7.1997 26.3320
" />
<path d="M7.1997 26.3320
L7.1997 26.9972
" />
<path d="M7.1997 26.3320
L7.2602 26.2110
" />
<path d="M7.2602 26.2110
L7.3811 26.1506
" />
<path d="M7.3811 26.1506
L7.5626 26.1506
" />
<path d="M7.5626 26.1506
L7.6835 26.2110
" />
<path d="M7.6835 26.2110
L7.7440 26.3320
" />
<path d="M7.7440 26.3320
L7.7440 26.9972
" />
<path d="M8.8930 26.9972
L8.8930 26.3320
" />
<path d="M8.8930 26.3320
L8.8325 26.2110
" />
<path d="M8.8325 26.2110
L8.7116 26.1506
" />
<path d="M8.7116 26.1506
L8.4697 26.1506
" />
<path d="M8.4697 26.1506
L8.3487 26.2110
" />
<path d="M8.8930 26.9368
L8.7721 26.9972
" />
<path d="M8.7721 26.9972
L8.4697 26.9972
" />
<path d="M8.4697 26.9972
L8.3487 26.9368
" />
<path d="M8.3487 26.9368
L8.2883 26.8158
" />
<path d="M8.2883 26.8158
L8.2883 26.6948
" />
<path d="M8.2883 26.6948
L8.3487 26.5739
" />
<path d="M8.3487 26.5739
L8.4697 26.5134
" />
<path d="M8.4697 26.5134
L8.7721 26.5134
" />
<path d="M8.7721 26.5134
L8.8930 26.4529
" />
<path d="M9.3163 26.1506
L9.8001 26.1506
" />
<path d="M9.4977 25.7272
L9.4977 26.8158
" />
<path d="M9.4977 26.8158
L9.5582 26.9368
" />
<path d="M9.5582 26.9368
L9.6792 26.9972
" />
<path d="M9.6792 26.9972
L9.8001 26.9972
" />
<path d="M10.7072 26.9368
L10.5863 26.9972
" />
<path d="M10.5863 26.9972
L10.3444 26.9972
" />
<path d="M10.3444 26.9972
L10.2234 26.9368
" />
<path d="M10.2234 26.9368
L10.1630 26.8158
" />
<path d="M10.1630 26.8158
L10.1630 26.3320
" />
<path d="M10.1630 26.3320
L10.2234 26.2110
" />
<path d="M10.2234 26.2110
L10.3444 26.1506
" />
<path d="M10.3444 26.1506
L10.5863 26.1506
" />
<path d="M10.5863 26.1506
L10.7072 26.2110
" />
<path d="M10.7072 26.2110
L10.7677 26.3320
" />
<path d="M10.7677 26.3320
L10.7677 26.4529
" />
<path d="M10.7677 26.4529
L10.1630 26.5739
" />
<path d="M11.3120 26.9972
L11.3120 25.7272
" />
<path d="M11.3120 25.7272
L11.7958 25.7272
" />
<path d="M11.7958 25.7272
L11.9168 25.7877
" />
<path d="M11.9168 25.7877
L11.9773 25.8482
" />
<path d="M11.9773 25.8482
L12.0377 25.9691
" />
<path d="M12.0377 25.9691
L12.0377 26.1506
" />
<path d="M12.0377 26.1506
L11.9773 26.2715
" />
<path d="M11.9773 26.2715
L11.9168 26.3320
" />
<path d="M11.9168 26.3320
L11.7958 26.3925
" />
<path d="M11.7958 26.3925
L11.3120 26.3925
" />
<path d="M12.5820 26.9972
L12.5820 26.1506
" />
<path d="M12.5820 26.3925
L12.6425 26.2715
" />
<path d="M12.6425 26.2715
L12.7030 26.2110
" />
<path d="M12.7030 26.2110
L12.8239 26.1506
" />
<path d="M12.8239 26.1506
L12.9449 26.1506
" />
<path d="M13.5497 26.9972
L13.4287 26.9368
" />
<path d="M13.4287 26.9368
L13.3682 26.8763
" />
<path d="M13.3682 26.8763
L13.3078 26.7553
" />
<path d="M13.3078 26.7553
L13.3078 26.3925
" />
<path d="M13.3078 26.3925
L13.3682 26.2715
" />
<path d="M13.3682 26.2715
L13.4287 26.2110
" />
<path d="M13.4287 26.2110
L13.5497 26.1506
" />
<path d="M13.5497 26.1506
L13.7311 26.1506
" />
<path d="M13.7311 26.1506
L13.8520 26.2110
" />
<path d="M13.8520 26.2110
L13.9125 26.2715
" />
<path d="M13.9125 26.2715
L13.9730 26.3925
" />
<path d="M13.9730 26.3925
L13.9730 26.7553
" />
<path d="M13.9730 26.7553
L13.9125 26.8763
" />
<path d="M13.9125 26.8763
L13.8520 26.9368
" />
<path d="M13.8520 26.9368
L13.7311 26.9972
" />
<path d="M13.7311 26.9972
L13.5497 26.9972
" />
</g></g>
<g style="fill:none; 
stroke:#FFFFFF; stroke-width:0.3810; stroke-opacity:1; 
stroke-linecap:round; stroke-linejoin:round;">
<rect x="1.270000" y="1.270000" width="24.130000" height="26.670000" rx="0.000000" />
</g>
<g style="fill:none; 
stroke:#000000; stroke-width:0.3810; stroke-opacity:1; 
stroke-linecap:round; stroke-linejoin:round;">
<rect x="24.130000" y="7.620000" width="2.540000" height="2.540000" rx="0.000000" />
<path d="M11.4300 13.9700
L8.8900 13.9700
" />
<path d="M16.5100 11.4300
L16.5100 8.8900
" />
<path d="M16.5100 17.7800
L16.5100 20.3200
" />
</g>
<g style="fill:none; 
stroke:#000000; stroke-width:0.3175; stroke-opacity:1; 
stroke-linecap:round; stroke-linejoin:round;">
<text x="16.5100" y="24.7650"
textLength="4.5691" font-size="1.6933" lengthAdjust="spacingAndGlyphs"
text-anchor="middle" opacity="0" stroke-opacity="0">GND</text>
<g class="stroked-text"><desc>GND</desc>
<path d="M15.5424 23.4914
L15.4214 23.4309
" />
<path d="M15.4214 23.4309
L15.2400 23.4309
" />
<path d="M15.2400 23.4309
L15.0586 23.4914
" />
<path d="M15.0586 23.4914
L14.9376 23.6124
" />
<path d="M14.9376 23.6124
L14.8771 23.7333
" />
<path d="M14.8771 23.7333
L14.8167 23.9752
" />
<path d="M14.8167 23.9752
L14.8167 24.1566
" />
<path d="M14.8167 24.1566
L14.8771 24.3985
" />
<path d="M14.8771 24.3985
L14.9376 24.5195
" />
<path d="M14.9376 24.5195
L15.0586 24.6405
" />
<path d="M15.0586 24.6405
L15.2400 24.7009
" />
<path d="M15.2400 24.7009
L15.3609 24.7009
" />
<path d="M15.3609 24.7009
L15.5424 24.6405
" />
<path d="M15.5424 24.6405
L15.6028 24.5800
" />
<path d="M15.6028 24.5800
L15.6028 24.1566
" />
<path d="M15.6028 24.1566
L15.3609 24.1566
" />
<path d="M16.1471 24.7009
L16.1471 23.4309
" />
<path d="M16.1471 23.4309
L16.8728 24.7009
" />
<path d="M16.8728 24.7009
L16.8728 23.4309
" />
<path d="M17.4776 24.7009
L17.4776 23.4309
" />
<path d="M17.4776 23.4309
L17.7800 23.4309
" />
<path d="M17.7800 23.4309
L17.9614 23.4914
" />
<path d="M17.9614 23.4914
L18.0824 23.6124
" />
<path d="M18.0824 23.6124
L18.1429 23.7333
" />
<path d="M18.1429 23.7333
L18.2033 23.9752
" />
<path d="M18.2033 23.9752
L18.2033 24.1566
" />
<path d="M18.2033 24.1566
L18.1429 24.3985
" />
<path d="M18.1429 24.3985
L18.0824 24.5195
" />
<path d="M18.0824 24.5195
L17.9614 24.6405
" />
<path d="M17.9614 24.6405
L17.7800 24.7009
" />
<path d="M17.7800 24.7009
L17.4776 24.7009
" />
</g></g>
<g style="fill:none; 
stroke:#000000; stroke-width:0.3175; stroke-opacity:1; 
stroke-linecap:round; stroke-linejoin:round;">
<text x="30.4799" y="3.1750"
textLength="6.9881" font-size="1.6933" lengthAdjust="spacingAndGlyphs"
text-anchor="middle" opacity="0" stroke-opacity="0">0-24V</text>
<g class="stroked-text"><desc>0-24V</desc>
<path d="M27.8794 1.8409
L28.0004 1.8409
" />
<path d="M28.0004 1.8409
L28.1213 1.9014
" />
<path d="M28.1213 1.9014
L28.1818 1.9619
" />
<path d="M28.1818 1.9619
L28.2423 2.0828
" />
<path d="M28.2423 2.0828
L28.3028 2.3247
" />
<path d="M28.3028 2.3247
L28.3028 2.6271
" />
<path d="M28.3028 2.6271
L28.2423 2.8690
" />
<path d="M28.2423 2.8690
L28.1818 2.9900
" />
<path d="M28.1818 2.9900
L28.1213 3.0505
" />
<path d="M28.1213 3.0505
L28.0004 3.1109
" />
<path d="M28.0004 3.1109
L27.8794 3.1109
" />
<path d="M27.8794 3.1109
L27.7585 3.0505
" />
<path d="M27.7585 3.0505
L27.6980 2.9900
" />
<path d="M27.6980 2.9900
L27.6375 2.8690
" />
<path d="M27.6375 2.8690
L27.5771 2.6271
" />
<path d="M27.5771 2.6271
L27.5771 2.3247
" />
<path d="M27.5771 2.3247
L27.6375 2.0828
" />
<path d="M27.6375 2.0828
L27.6980 1.9619
" />
<path d="M27.6980 1.9619
L27.7585 1.9014
" />
<path d="M27.7585 1.9014
L27.8794 1.8409
" />
<path d="M28.8470 2.6271
L29.8147 2.6271
" />
<path d="M30.3590 1.9619
L30.4194 1.9014
" />
<path d="M30.4194 1.9014
L30.5404 1.8409
" />
<path d="M30.5404 1.8409
L30.8428 1.8409
" />
<path d="M30.8428 1.8409
L30.9637 1.9014
" />
<path d="M30.9637 1.9014
L31.0242 1.9619
" />
<path d="M31.0242 1.9619
L31.0847 2.0828
" />
<path d="M31.0847 2.0828
L31.0847 2.2038
" />
<path d="M31.0847 2.2038
L31.0242 2.3852
" />
<path d="M31.0242 2.3852
L30.2985 3.1109
" />
<path d="M30.2985 3.1109
L31.0847 3.1109
" />
<path d="M32.1732 2.2643
L32.1732 3.1109
" />
<path d="M31.8708 1.7805
L31.5685 2.6876
" />
<path d="M31.5685 2.6876
L32.3546 2.6876
" />
<path d="M32.6570 1.8409
L33.0803 3.1109
" />
<path d="M33.0803 3.1109
L33.5037 1.8409
" />
</g></g>
<g style="fill:none; 
stroke:#000000; stroke-width:0.3175; stroke-opacity:1; 
stroke-linecap:round; stroke-linejoin:round;">
<text x="35.4292" y="14.3510"
textLength="15.4546" font-size="1.6933" lengthAdjust="spacingAndGlyphs"
text-anchor="middle" opacity="0" stroke-opacity="0">Warning Buzzer</text>
<g class="stroked-text"><desc>Warning Buzzer</desc>
<path d="M28.2326 13.0169
L28.5350 14.2869
" />
<path d="M28.5350 14.2869
L28.7769 13.3798
" />
<path d="M28.7769 13.3798
L29.0188 14.2869
" />
<path d="M29.0188 14.2869
L29.3212 13.0169
" />
<path d="M30.3492 14.2869
L30.3492 13.6217
" />
<path d="M30.3492 13.6217
L30.2887 13.5007
" />
<path d="M30.2887 13.5007
L30.1678 13.4403
" />
<path d="M30.1678 13.4403
L29.9259 13.4403
" />
<path d="M29.9259 13.4403
L29.8049 13.5007
" />
<path d="M30.3492 14.2265
L30.2283 14.2869
" />
<path d="M30.2283 14.2869
L29.9259 14.2869
" />
<path d="M29.9259 14.2869
L29.8049 14.2265
" />
<path d="M29.8049 14.2265
L29.7445 14.1055
" />
<path d="M29.7445 14.1055
L29.7445 13.9845
" />
<path d="M29.7445 13.9845
L29.8049 13.8636
" />
<path d="M29.8049 13.8636
L29.9259 13.8031
" />
<path d="M29.9259 13.8031
L30.2283 13.8031
" />
<path d="M30.2283 13.8031
L30.3492 13.7426
" />
<path d="M30.9539 14.2869
L30.9539 13.4403
" />
<path d="M30.9539 13.6822
L31.0144 13.5612
" />
<path d="M31.0144 13.5612
L31.0749 13.5007
" />
<path d="M31.0749 13.5007
L31.1958 13.4403
" />
<path d="M31.1958 13.4403
L31.3168 13.4403
" />
<path d="M31.7401 13.4403
L31.7401 14.2869
" />
<path d="M31.7401 13.5612
L31.8006 13.5007
" />
<path d="M31.8006 13.5007
L31.9216 13.4403
" />
<path d="M31.9216 13.4403
L32.1030 13.4403
" />
<path d="M32.1030 13.4403
L32.2239 13.5007
" />
<path d="M32.2239 13.5007
L32.2844 13.6217
" />
<path d="M32.2844 13.6217
L32.2844 14.2869
" />
<path d="M32.8891 14.2869
L32.8891 13.4403
" />
<path d="M32.8891 13.0169
L32.8287 13.0774
" />
<path d="M32.8287 13.0774
L32.8891 13.1379
" />
<path d="M32.8891 13.1379
L32.9496 13.0774
" />
<path d="M32.9496 13.0774
L32.8891 13.0169
" />
<path d="M32.8891 13.0169
L32.8891 13.1379
" />
<path d="M33.4939 13.4403
L33.4939 14.2869
" />
<path d="M33.4939 13.5612
L33.5544 13.5007
" />
<path d="M33.5544 13.5007
L33.6754 13.4403
" />
<path d="M33.6754 13.4403
L33.8568 13.4403
" />
<path d="M33.8568 13.4403
L33.9777 13.5007
" />
<path d="M33.9777 13.5007
L34.0382 13.6217
" />
<path d="M34.0382 13.6217
L34.0382 14.2869
" />
<path d="M35.1872 13.4403
L35.1872 14.4684
" />
<path d="M35.1872 14.4684
L35.1267 14.5893
" />
<path d="M35.1267 14.5893
L35.0663 14.6498
" />
<path d="M35.0663 14.6498
L34.9453 14.7103
" />
<path d="M34.9453 14.7103
L34.7639 14.7103
" />
<path d="M34.7639 14.7103
L34.6429 14.6498
" />
<path d="M35.1872 14.2265
L35.0663 14.2869
" />
<path d="M35.0663 14.2869
L34.8244 14.2869
" />
<path d="M34.8244 14.2869
L34.7034 14.2265
" />
<path d="M34.7034 14.2265
L34.6429 14.1660
" />
<path d="M34.6429 14.1660
L34.5825 14.0450
" />
<path d="M34.5825 14.0450
L34.5825 13.6822
" />
<path d="M34.5825 13.6822
L34.6429 13.5612
" />
<path d="M34.6429 13.5612
L34.7034 13.5007
" />
<path d="M34.7034 13.5007
L34.8244 13.4403
" />
<path d="M34.8244 13.4403
L35.0663 13.4403
" />
<path d="M35.0663 13.4403
L35.1872 13.5007
" />
<path d="M37.1829 13.6217
L37.3643 13.6822
" />
<path d="M37.3643 13.6822
L37.4248 13.7426
" />
<path d="M37.4248 13.7426
L37.4852 13.8636
" />
<path d="M37.4852 13.8636
L37.4852 14.0450
" />
<path d="M37.4852 14.0450
L37.4248 14.1660
" />
<path d="M37.4248 14.1660
L37.3643 14.2265
" />
<path d="M37.3643 14.2265
L37.2433 14.2869
" />
<path d="M37.2433 14.2869
L36.7595 14.2869
" />
<path d="M36.7595 14.2869
L36.7595 13.0169
" />
<path d="M36.7595 13.0169
L37.1829 13.0169
" />
<path d="M37.1829 13.0169
L37.3038 13.0774
" />
<path d="M37.3038 13.0774
L37.3643 13.1379
" />
<path d="M37.3643 13.1379
L37.4248 13.2588
" />
<path d="M37.4248 13.2588
L37.4248 13.3798
" />
<path d="M37.4248 13.3798
L37.3643 13.5007
" />
<path d="M37.3643 13.5007
L37.3038 13.5612
" />
<path d="M37.3038 13.5612
L37.1829 13.6217
" />
<path d="M37.1829 13.6217
L36.7595 13.6217
" />
<path d="M38.5738 13.4403
L38.5738 14.2869
" />
<path d="M38.0295 13.4403
L38.0295 14.1055
" />
<path d="M38.0295 14.1055
L38.0900 14.2265
" />
<path d="M38.0900 14.2265
L38.2110 14.2869
" />
<path d="M38.2110 14.2869
L38.3924 14.2869
" />
<path d="M38.3924 14.2869
L38.5133 14.2265
" />
<path d="M38.5133 14.2265
L38.5738 14.1660
" />
<path d="M39.0576 13.4403
L39.7228 13.4403
" />
<path d="M39.7228 13.4403
L39.0576 14.2869
" />
<path d="M39.0576 14.2869
L39.7228 14.2869
" />
<path d="M40.0857 13.4403
L40.7509 13.4403
" />
<path d="M40.7509 13.4403
L40.0857 14.2869
" />
<path d="M40.0857 14.2869
L40.7509 14.2869
" />
<path d="M41.7185 14.2265
L41.5976 14.2869
" />
<path d="M41.5976 14.2869
L41.3557 14.2869
" />
<path d="M41.3557 14.2869
L41.2347 14.2265
" />
<path d="M41.2347 14.2265
L41.1743 14.1055
" />
<path d="M41.1743 14.1055
L41.1743 13.6217
" />
<path d="M41.1743 13.6217
L41.2347 13.5007
" />
<path d="M41.2347 13.5007
L41.3557 13.4403
" />
<path d="M41.3557 13.4403
L41.5976 13.4403
" />
<path d="M41.5976 13.4403
L41.7185 13.5007
" />
<path d="M41.7185 13.5007
L41.7790 13.6217
" />
<path d="M41.7790 13.6217
L41.7790 13.7426
" />
<path d="M41.7790 13.7426
L41.1743 13.8636
" />
<path d="M42.3233 14.2869
L42.3233 13.4403
" />
<path d="M42.3233 13.6822
L42.3838 13.5612
" />
<path d="M42.3838 13.5612
L42.4443 13.5007
" />
<path d="M42.4443 13.5007
L42.5652 13.4403
" />
<path d="M42.5652 13.4403
L42.6862 13.4403
" />
</g></g>
<g style="fill:none; 
stroke:#000000; stroke-width:0.3810; stroke-opacity:1; 
stroke-linecap:round; stroke-linejoin:round;">
<path d="M33.0200 6.3500
L30.4800 6.3500
" />
<path d="M33.0200 8.8900
L30.4800 8.8900
" />
</g> 
</svg>
